<svg width="29" height="29" viewBox="0 0 29 29" fill="none" xmlns="http://www.w3.org/2000/svg">
<g clip-path="url(#clip0_7_94)">
<path d="M4.83331 14.5C4.83331 9.17125 9.17123 4.83334 14.5 4.83334C19.8287 4.83334 24.1666 9.17126 24.1666 14.5C24.1666 19.8288 19.8287 24.1667 14.5 24.1667C9.17123 24.1667 4.83331 19.8288 4.83331 14.5ZM2.41665 14.5C2.41665 21.17 7.82998 26.5833 14.5 26.5833C21.17 26.5833 26.5833 21.17 26.5833 14.5C26.5833 7.83001 21.17 2.41667 14.5 2.41667C7.82998 2.41667 2.41665 7.83 2.41665 14.5ZM14.5 13.2917L9.66665 13.2917L9.66665 15.7083L14.5 15.7083L14.5 19.3333L19.3333 14.5L14.5 9.66667L14.5 13.2917Z" fill="#95FF70"/>
</g>
<defs>
<clipPath id="clip0_7_94">
<rect width="29" height="29" fill="white" transform="translate(29) rotate(90)"/>
</clipPath>
</defs>
</svg>
