<svg width="30" height="29" viewBox="0 0 30 29" fill="none" xmlns="http://www.w3.org/2000/svg">
<g clip-path="url(#clip0_7_75)">
<path d="M5.33333 14.5C5.33333 9.17125 9.67125 4.83334 15 4.83334C20.3287 4.83334 24.6667 9.17126 24.6667 14.5C24.6667 19.8288 20.3287 24.1667 15 24.1667C9.67124 24.1667 5.33333 19.8288 5.33333 14.5ZM2.91666 14.5C2.91666 21.17 8.33 26.5833 15 26.5833C21.67 26.5833 27.0833 21.17 27.0833 14.5C27.0833 7.83001 21.67 2.41667 15 2.41667C8.33 2.41667 2.91666 7.83 2.91666 14.5ZM15 13.2917L10.1667 13.2917L10.1667 15.7083L15 15.7083L15 19.3333L19.8333 14.5L15 9.66667L15 13.2917Z" fill="#95FF70"/>
</g>
<defs>
<clipPath id="clip0_7_75">
<rect width="29" height="29" fill="white" transform="translate(29.5) rotate(90)"/>
</clipPath>
</defs>
</svg>
