<svg width="73" height="73" viewBox="0 0 73 73" fill="none" xmlns="http://www.w3.org/2000/svg">
<path fill-rule="evenodd" clip-rule="evenodd" d="M62.5 52C65.2846 52 67.9558 53.1063 69.9245 55.0755C71.8937 57.0444 73 59.7152 73 62.5C73 65.2846 71.8937 67.9558 69.9245 69.9245C67.9554 71.8937 65.2848 73 62.5 73C59.7154 73 57.0446 71.8937 55.0755 69.9245C53.1063 67.9558 52 65.2846 52 62.5C52 56.7011 56.7011 52 62.5 52Z" fill="#3BA561"/>
<path d="M36.5 0C16.3416 0 0 16.3416 0 36.5C0 56.6584 16.3416 73 36.5 73C40.6566 73 44.6509 72.3052 48.3731 71.0254C46.8332 68.4737 46 65.5295 46 62.5C46 53.3874 53.3874 46 62.5 46C65.5295 46 68.4737 46.8332 71.0254 48.3731C72.3052 44.6509 73 40.6566 73 36.5C73 16.3416 56.6584 0 36.5 0Z" fill="#FF78B8"/>
<mask id="mask0_813_1846" style="mask-type:alpha" maskUnits="userSpaceOnUse" x="0" y="0" width="73" height="73">
<path d="M36.5 0C16.3416 0 0 16.3416 0 36.5C0 56.6584 16.3416 73 36.5 73C40.6566 73 44.6509 72.3052 48.3731 71.0254C46.8332 68.4737 46 65.5295 46 62.5C46 53.3874 53.3874 46 62.5 46C65.5295 46 68.4737 46.8332 71.0254 48.3731C72.3052 44.6509 73 40.6566 73 36.5C73 16.3416 56.6584 0 36.5 0Z" fill="#BFBFBF"/>
</mask>
<g mask="url(#mask0_813_1846)">
<path d="M56.753 36.4422C61.1886 35.6066 63.8688 30.0701 62.7395 24.0763C61.6101 18.0823 57.099 13.9008 52.6636 14.7364C48.2281 15.5721 45.5478 21.1086 46.6772 27.1025C47.8065 33.0963 52.3176 37.2779 56.753 36.4422Z" fill="white"/>
<path d="M55.6074 38.128C50.2414 38.128 45.551 32.814 44.9013 25.9148C44.6629 24.127 44.7923 22.3093 45.2816 20.5733C45.7709 18.8373 46.6098 17.2195 47.7467 15.8194C48.4775 14.9689 49.3766 14.2791 50.3874 13.7939C51.3984 13.3086 52.4988 13.0383 53.6195 13H53.8014C59.1674 13 63.8578 18.327 64.5204 25.2132C64.7601 27.0019 64.6301 28.8209 64.1384 30.5574C63.6468 32.2939 62.8038 33.9109 61.662 35.3086C60.9313 36.1591 60.0321 36.8487 59.0212 37.334C58.0104 37.8193 56.9099 38.0897 55.7893 38.128H55.6074ZM53.7884 16.2222H53.6844C53.0037 16.2518 52.3367 16.4231 51.7259 16.725C51.1151 17.0271 50.5741 17.4533 50.1374 17.9762C49.2982 19.0459 48.6827 20.2736 48.3279 21.5861C47.973 22.8985 47.8858 24.269 48.0716 25.616C48.5523 30.7091 51.9694 34.9448 55.6204 34.9448H55.7243C56.4069 34.9154 57.0759 34.7443 57.6888 34.4422C58.3017 34.1403 58.845 33.7141 59.2843 33.1907C60.1183 32.1181 60.7305 30.8901 61.0852 29.5785C61.4399 28.2669 61.53 26.8978 61.3502 25.551C60.8564 20.4708 57.3614 16.2222 53.7884 16.2222Z" fill="#5865F2"/>
<path d="M41.8004 28.2034C42.4634 22.0393 39.1665 16.6296 34.4362 16.1208C29.7061 15.6119 25.3339 20.1965 24.6707 26.3608C24.0077 32.525 27.3046 37.9346 32.0349 38.4434C36.765 38.9524 41.1372 34.3677 41.8004 28.2034Z" fill="white"/>
<path d="M32.7404 40.064C32.0119 40.0658 31.2865 39.9696 30.5836 39.7781C25.1916 38.31 21.9304 31.5407 23.3206 24.6806C23.6261 22.8911 24.2927 21.1825 25.2802 19.6591C26.2675 18.1356 27.5547 16.8293 29.0634 15.8195C30.0638 15.1775 31.1867 14.7501 32.3608 14.5645C33.535 14.3789 34.7349 14.439 35.8846 14.7411C41.2896 16.2093 44.5508 22.9785 43.1476 29.8257C42.8401 31.611 42.1726 33.3151 41.1853 34.8341C40.1979 36.3531 38.9115 37.6551 37.4048 38.6608C36.0104 39.5526 34.3952 40.0384 32.7404 40.064ZM33.7148 17.6775C32.6585 17.6911 31.6274 18.0018 30.7395 18.574C29.6103 19.3542 28.6489 20.3529 27.9125 21.5112C27.1761 22.6694 26.6794 23.9636 26.4519 25.3172C25.3865 30.5143 27.6082 35.7114 31.4281 36.6989C32.157 36.8884 32.9177 36.9227 33.6608 36.7997C34.4038 36.6765 35.1127 36.3987 35.7417 35.9843C36.8672 35.1973 37.8257 34.1949 38.5616 33.0353C39.2975 31.8757 39.7965 30.5816 40.0293 29.228C41.0947 24.0309 38.8599 18.8338 35.0531 17.8464C34.6163 17.7322 34.1663 17.6754 33.7148 17.6775Z" fill="#5865F2"/>
<path d="M55.7197 29.223C56.8605 29.2088 57.7684 27.8476 57.7475 26.183C57.7266 24.5184 56.7847 23.1805 55.644 23.1949C54.5031 23.2092 53.5952 24.5703 53.6161 26.235C53.637 27.8996 54.5788 29.2373 55.7197 29.223Z" fill="black"/>
<path d="M37.2328 28.0156C37.5422 26.3798 36.8842 24.8818 35.7632 24.6698C34.642 24.4579 33.4824 25.612 33.1731 27.2478C32.8637 28.8835 33.5217 30.3814 34.6428 30.5935C35.7638 30.8055 36.9234 29.6514 37.2328 28.0156Z" fill="black"/>
<path d="M46.5184 21.7578L41.5156 22.111L41.7399 25.2863L46.7426 24.9331L46.5184 21.7578Z" fill="#5865F2"/>
<path d="M42.2114 38.2059H50.2149C50.4234 38.207 50.6294 38.2531 50.8184 38.3414C51.0073 38.4297 51.1749 38.5579 51.3095 38.7173C51.4443 38.8766 51.5428 39.0633 51.5983 39.2643C51.6537 39.4654 51.6649 39.6762 51.6311 39.882C51.0205 43.5459 48.7597 51.1207 41.055 40.4797C40.8988 40.2664 40.8048 40.014 40.7835 39.7505C40.7622 39.487 40.8143 39.2229 40.9341 38.9872C41.0538 38.7516 41.2368 38.5539 41.4622 38.4159C41.6878 38.278 41.947 38.2053 42.2114 38.2059Z" fill="black"/>
<path d="M47.3953 42.3377C45.7195 41.7936 43.9393 41.6512 42.1982 41.9219C46.8237 47.6517 49.2663 46.2745 50.5396 43.7019C49.5529 43.117 48.4965 42.6586 47.3953 42.3377Z" fill="#E53794"/>
</g>
</svg>
