<svg width="73" height="73" viewBox="0 0 73 73" fill="none" xmlns="http://www.w3.org/2000/svg">
<path fill-rule="evenodd" clip-rule="evenodd" d="M62.5 52C65.2846 52 67.9558 53.1063 69.9245 55.0755C71.8937 57.0444 73 59.7152 73 62.5C73 65.2846 71.8937 67.9558 69.9245 69.9245C67.9554 71.8937 65.2848 73 62.5 73C59.7154 73 57.0446 71.8937 55.0755 69.9245C53.1063 67.9558 52 65.2846 52 62.5C52 56.7011 56.7011 52 62.5 52Z" fill="#3BA561"/>
<path d="M36.5 0C16.3416 0 0 16.3416 0 36.5C0 56.6584 16.3416 73 36.5 73C40.6566 73 44.6509 72.3052 48.3731 71.0254C46.8332 68.4737 46 65.5295 46 62.5C46 53.3874 53.3874 46 62.5 46C65.5295 46 68.4737 46.8332 71.0254 48.3731C72.3052 44.6509 73 40.6566 73 36.5C73 16.3416 56.6584 0 36.5 0Z" fill="#5865F2"/>
<mask id="mask0_813_1793" style="mask-type:alpha" maskUnits="userSpaceOnUse" x="0" y="0" width="73" height="73">
<path d="M36.5 0C16.3416 0 0 16.3416 0 36.5C0 56.6584 16.3416 73 36.5 73C40.6566 73 44.6509 72.3052 48.3731 71.0254C46.8332 68.4737 46 65.5295 46 62.5C46 53.3874 53.3874 46 62.5 46C65.5295 46 68.4737 46.8332 71.0254 48.3731C72.3052 44.6509 73 40.6566 73 36.5C73 16.3416 56.6584 0 36.5 0Z" fill="#BFBFBF"/>
</mask>
<g mask="url(#mask0_813_1793)">
<path d="M51.2445 53.0004H22.4053C20.7411 52.9294 19.1709 52.2098 18.0305 50.9957C16.8902 49.7816 16.2703 48.1694 16.3035 46.504H57.407C57.4398 48.1795 56.8116 49.8005 55.6583 51.0163C54.505 52.2321 52.9194 52.9449 51.2445 53.0004Z" fill="#FFC518"/>
<path d="M57.1643 48.2192C57.3171 47.66 57.3987 47.0837 57.4072 46.504H16.3037C16.3057 47.1091 16.3873 47.7113 16.5466 48.2951L57.1643 48.2192Z" fill="#FFF1A5"/>
<path d="M56.435 37.0477H17.578C14.8619 37.0477 12.6602 39.2495 12.6602 41.9655C12.6602 44.6816 14.8619 46.8834 17.578 46.8834H56.435C59.1511 46.8834 61.3529 44.6816 61.3529 41.9655C61.3529 39.2495 59.1511 37.0477 56.435 37.0477Z" fill="#FF78B8"/>
<path d="M14.4671 19.4558L22.4814 31.4317C22.5445 31.5326 22.5656 31.6544 22.5401 31.7707C22.5145 31.887 22.4444 31.9887 22.3448 32.054C22.2501 32.1112 22.1377 32.132 22.0288 32.1125C21.9198 32.0929 21.8217 32.0344 21.7528 31.9477L12.7823 20.7004C12.6092 20.4831 12.5296 20.2058 12.5609 19.9297C12.5922 19.6536 12.7319 19.4012 12.9493 19.2281C13.1667 19.055 13.4439 18.9754 13.72 19.0067C13.9961 19.038 14.2485 19.1777 14.4216 19.3951L14.4671 19.4558Z" fill="black"/>
<path d="M16.0592 26.6049C17.8447 26.6049 19.2922 25.1574 19.2922 23.3719C19.2922 21.5863 17.8447 20.1388 16.0592 20.1388C14.2736 20.1388 12.8262 21.5863 12.8262 23.3719C12.8262 25.1574 14.2736 26.6049 16.0592 26.6049Z" fill="#86FBC0"/>
<path d="M15.7042 22.7881C16.3598 22.3982 16.6378 21.6558 16.325 21.1298C16.0122 20.6038 15.2271 20.4935 14.5715 20.8834C13.9158 21.2734 13.6378 22.0158 13.9506 22.5418C14.2634 23.0678 15.0485 23.1781 15.7042 22.7881Z" fill="#D01582"/>
<path d="M17.7454 34.8166C17.7454 34.8166 15.5749 37.2603 10.399 35.2719C4.6008 33.0255 3.70527 41.0701 12.7972 40.0076C19.0659 39.279 20.3865 38.3987 20.8115 41.0701C21.2365 43.7415 25.6231 42.8612 27.1561 38.9148C28.6891 34.9683 30.4347 41.146 33.9257 42.0415C37.4168 42.9371 37.5837 38.9148 40.5587 38.9148C43.5337 38.9148 47.9203 42.9371 52.7016 40.2505C57.4828 37.5639 57.1185 39.6281 60.139 40.2505C64.4346 41.146 68.0015 39.3549 68.0015 36.6835C68.0015 34.0121 65.3301 33.1014 61.748 35.788C61.3991 36.1192 60.9719 36.3564 60.5062 36.4772C60.0406 36.598 59.5519 36.5985 59.0861 36.4786C58.6202 36.3587 58.1924 36.1224 57.843 35.7919C57.4935 35.4613 57.2337 35.0474 57.0882 34.5889L17.7454 34.8166Z" fill="#86FBC0"/>
<path d="M58.1039 35.7119C58.2134 35.7117 58.321 35.6841 58.417 35.6315C58.5129 35.5789 58.5941 35.503 58.653 35.4108C58.712 35.3186 58.7468 35.213 58.7543 35.1038C58.7618 34.9947 58.7417 34.8854 58.6959 34.786C57.8283 32.5852 56.2809 30.7187 54.2789 29.4583C52.1388 28.0315 49.7254 28.3351 46.9629 27.4092C44.2004 26.4833 42.4093 24.1003 37.2031 24.1003C31.9969 24.1003 30.1754 25.9824 27.4888 26.7717C24.8022 27.561 24.0129 26.7717 20.7951 28.5628C17.5772 30.3539 16.8183 32.5244 15.7255 34.786C15.6797 34.8854 15.6596 34.9947 15.6671 35.1038C15.6745 35.213 15.7094 35.3186 15.7683 35.4108C15.8273 35.503 15.9084 35.5789 16.0044 35.6315C16.1004 35.6841 16.208 35.7117 16.3174 35.7119H58.1039Z" fill="#FFC518"/>
<path d="M23.5898 30.5967C23.8324 30.7599 24.117 30.8495 24.4094 30.8548C24.6348 30.8542 24.8568 30.8003 25.0573 30.6974C25.2578 30.5945 25.4311 30.4456 25.563 30.2628C26.7662 28.6515 28.1516 27.1847 29.6915 25.8914C28.9812 26.24 28.2454 26.5343 27.4906 26.7718C26.4579 27.0478 25.4004 27.2207 24.3335 27.2878C23.696 28.0316 23.3317 28.5476 23.271 28.6235C23.1621 28.7739 23.084 28.9444 23.0411 29.125C22.9982 29.3056 22.9914 29.493 23.021 29.6763C23.0506 29.8596 23.1161 30.0352 23.2137 30.1932C23.3113 30.3511 23.4391 30.4883 23.5898 30.5967Z" fill="#FFF1A5"/>
<path d="M30.754 30.0961C30.5765 30.4202 30.5233 30.7978 30.6043 31.1583C30.6854 31.5188 30.8951 31.8373 31.1942 32.0542C31.4241 32.1906 31.6859 32.2639 31.9531 32.2667C32.1919 32.2682 32.4271 32.2091 32.6368 32.0949C32.8466 31.9808 33.0239 31.8153 33.1522 31.614C35.2197 28.6002 38.0835 26.2198 41.4245 24.7381C40.0633 24.292 38.6371 24.0766 37.2049 24.1006H36.5978C34.3023 25.7281 32.3221 27.7597 30.754 30.0961Z" fill="#FFF1A5"/>
<path d="M42.2142 30.8548C42.3369 30.9937 42.4861 31.1068 42.6529 31.1874C42.8198 31.2681 43.0011 31.3147 43.1861 31.3246C43.3712 31.3345 43.5564 31.3074 43.7309 31.245C43.9054 31.1826 44.0658 31.0861 44.2026 30.9611C45.8007 29.6876 47.6018 28.6922 49.5303 28.0164C48.6628 27.8705 47.8059 27.6677 46.9651 27.4093C46.443 27.2315 45.9355 27.0132 45.4472 26.7566C44.3272 27.345 43.2737 28.0523 42.3053 28.8664C42.0305 29.1186 41.8667 29.4693 41.8496 29.8418C41.8326 30.2144 41.9636 30.5786 42.2142 30.8548Z" fill="#FFF1A5"/>
<path d="M41.5308 47.3539H52.945C52.945 47.3539 47.5566 56.4003 41.5308 47.3539Z" fill="#FFF1A5"/>
<path d="M36.4751 47.3539H45.0358C45.0358 47.3539 40.9983 54.0932 36.4751 47.3539Z" fill="#FFF1A5"/>
</g>
</svg>
