<svg width="73" height="73" viewBox="0 0 73 73" fill="none" xmlns="http://www.w3.org/2000/svg">
<path fill-rule="evenodd" clip-rule="evenodd" d="M62.5 52C65.2846 52 67.9558 53.1063 69.9245 55.0755C71.8937 57.0444 73 59.7152 73 62.5C73 65.2846 71.8937 67.9558 69.9245 69.9245C67.9554 71.8937 65.2848 73 62.5 73C59.7154 73 57.0446 71.8937 55.0755 69.9245C53.1063 67.9558 52 65.2846 52 62.5C52 56.7011 56.7011 52 62.5 52Z" fill="#3BA561"/>
<path d="M36.5 0C16.3416 0 0 16.3416 0 36.5C0 56.6584 16.3416 73 36.5 73C40.6566 73 44.6509 72.3052 48.3731 71.0254C46.8332 68.4737 46 65.5295 46 62.5C46 53.3874 53.3874 46 62.5 46C65.5295 46 68.4737 46.8332 71.0254 48.3731C72.3052 44.6509 73 40.6566 73 36.5C73 16.3416 56.6584 0 36.5 0Z" fill="#FF82A6"/>
<mask id="mask0_813_1905" style="mask-type:alpha" maskUnits="userSpaceOnUse" x="0" y="0" width="73" height="73">
<path d="M36.5 0C16.3416 0 0 16.3416 0 36.5C0 56.6584 16.3416 73 36.5 73C40.6566 73 44.6509 72.3052 48.3731 71.0254C46.8332 68.4737 46 65.5295 46 62.5C46 53.3874 53.3874 46 62.5 46C65.5295 46 68.4737 46.8332 71.0254 48.3731C72.3052 44.6509 73 40.6566 73 36.5C73 16.3416 56.6584 0 36.5 0Z" fill="#BFBFBF"/>
</mask>
<g mask="url(#mask0_813_1905)">
<path d="M53.7326 12.6705L53.6447 12.9276L53.3833 13.5534L53.2954 13.8084L53.0918 14.2648C48.6111 24.7005 40.0161 32.3934 34.3226 37.7398C28.4254 43.2512 21.789 47.9119 14.604 51.5912C7.52826 54.9877 4.32686 51.9362 5.11758 46.1484L5.82469 43.2448L9.31112 28.6048L9.46113 27.8912C11.8204 18.3512 15.4611 12.8719 27.3004 9.91479L45.3154 5.49623L45.3711 5.46837C51.6625 3.94908 56.0404 6.06835 53.7326 12.6705Z" fill="url(#paint0_linear_813_1905)"/>
<path d="M51.8797 5.54982C46.1647 6.50339 35.4632 13.3777 24.8496 23.4791C14.2382 33.5805 6.1275 44.7298 5.39893 50.2048C6.40178 53.1234 9.47676 54.032 14.6046 51.5913C21.7896 47.9141 28.4261 43.2513 34.3232 37.7398C40.0168 32.3934 48.6118 24.7005 53.0925 14.2648L53.2961 13.8084L53.3839 13.5534L53.6453 12.9277L53.7332 12.6705C55.1046 8.80053 54.1832 6.48196 51.8797 5.54982Z" fill="url(#paint1_linear_813_1905)"/>
<path d="M34.9217 33.9683C45.2245 24.1926 52.0624 14.6719 50.1938 12.7026C48.3252 10.7354 38.4595 17.0633 28.1588 26.839C17.856 36.6147 11.0181 46.1354 12.8867 48.1047C14.7531 50.0718 24.621 43.744 34.9217 33.9683Z" fill="#6B3143"/>
<path d="M32.7576 50.9396L30.0298 52.9153C29.3719 53.3525 28.8212 53.9311 28.4141 54.6104C28.0091 55.2875 27.7605 56.0482 27.6876 56.8346L27.2312 60.3982L22.4291 64.8104C21.4241 65.7982 20.8305 67.1289 20.7705 68.5368L20.8005 71.9311C20.8005 71.9311 47.0548 85.9304 61.1741 83.4189C75.2912 80.9096 66.6984 56.6953 66.6984 56.6953C66.5741 56.4596 66.3855 56.2604 66.1562 56.1232C65.9248 55.9861 65.6612 55.9132 65.3933 55.9154L61.1998 55.6239L59.4105 51.2439C59.2455 50.8368 58.982 50.4768 58.6477 50.1961C58.3112 49.9154 57.9105 49.7203 57.4819 49.6282L45.1177 47.0161L32.7576 50.9396Z" fill="#EF6270"/>
<path d="M33.3546 58.2511C29.5938 57.5354 29.8488 57.6232 30.9203 55.8897C31.531 54.8204 32.4267 53.9375 33.5089 53.344L33.3546 58.2511Z" fill="#BD3C53"/>
<path d="M39.118 23.4533C38.6658 22.9647 34.8772 25.6733 30.6772 29.5775C26.4794 33.4818 23.4536 37.024 23.9079 37.5125C28.9522 45.2011 32.3186 52.5061 33.3558 58.2511L53.8694 62.2711C52.7615 44.0547 44.2458 31.6004 39.118 23.4533Z" fill="#FFB685"/>
<path d="M46.9237 39.6467C46.7501 39.0017 46.2529 38.571 45.8094 38.6889C45.3658 38.8067 45.1472 39.4282 45.3187 40.0753C45.4922 40.7224 45.9894 41.151 46.433 41.0332C46.8766 40.9153 47.0951 40.2939 46.9237 39.6467Z" fill="#543247"/>
<path d="M40.1882 43.4695C40.5075 43.0045 40.2761 42.2887 39.6675 41.8666C39.059 41.4445 38.3047 41.4787 37.9832 41.9437C37.6639 42.4066 37.8954 43.1245 38.5039 43.5445C39.1125 43.9666 39.8668 43.9323 40.1882 43.4695Z" fill="#543247"/>
<path d="M44.4121 49.7802C46.1328 48.9381 47.7078 48.0938 48.4492 48.2995C49.1885 48.5052 48.8649 49.8724 48.0528 51.4067C47.2406 52.941 47.4742 52.2595 45.5949 51.7581C43.7156 51.2567 43.0942 50.4252 44.4121 49.7802Z" fill="#C74153"/>
<path d="M45.1281 49.4996L43.8081 50.4296C43.8617 50.9739 44.6266 51.5225 45.5952 51.7582C46.5638 51.9939 47.6759 52.0882 48.0531 51.4068L48.4002 50.6675C47.9181 50.2646 46.5852 49.2832 45.1281 49.4996Z" fill="#A82C3C"/>
<path d="M47.7341 48.2933C46.5856 48.6897 45.4734 49.1868 44.4127 49.7782C43.667 50.1447 43.7206 50.5433 44.0613 50.9461L48.0127 49.1525C48.242 49.039 47.9613 48.6104 47.7341 48.2933Z" fill="white"/>
<path d="M52.7168 42.9404C52.7447 42.8546 52.689 42.7411 52.719 42.6554C52.6504 42.0768 52.404 41.5325 52.014 41.0997C51.624 40.6689 51.1097 40.3668 50.5397 40.2404C50.679 40.3625 50.7861 40.5168 50.8568 40.6882C50.9254 40.8597 50.9554 41.0439 50.9426 41.2282C50.9318 41.4125 50.8761 41.5904 50.784 41.7511C50.6918 41.9118 50.5633 42.049 50.4112 42.1518C49.8604 42.4668 49.2433 42.649 48.609 42.679C47.784 42.7711 46.989 43.0432 46.2797 43.4761C45.5704 43.9111 44.9661 44.4939 44.5076 45.1861C41.5976 45.0468 40.584 46.894 38.5204 47.9054C37.9654 48.1925 37.3654 48.3896 36.7461 48.4903C34.7168 48.8439 34.3826 48.0147 34.3333 46.9004C32.094 48.709 33.4997 51.2889 35.2354 51.9297C36.2576 52.4247 37.629 52.1782 39.0669 51.0489C42.6261 51.9339 43.8861 51.4583 45.939 48.109C49.329 48.934 51.5083 47.5818 51.6754 44.4446C51.9604 44.3011 52.2047 44.0868 52.3869 43.8254C52.569 43.5618 52.6826 43.2575 52.7168 42.9404Z" fill="#6B3143"/>
<path d="M45.9358 48.1089C49.3258 48.9339 51.5052 47.5818 51.6744 44.4446C51.9594 44.301 52.2037 44.0868 52.3837 43.8254C52.5659 43.5618 52.6794 43.2575 52.7137 42.9403C52.7416 42.8546 52.6859 42.7411 52.7159 42.6553C52.658 42.3596 52.5637 42.0703 52.4373 41.7961C52.4758 42.2696 52.3387 42.7411 52.0516 43.1182C51.7644 43.4953 51.3466 43.7525 50.8794 43.8382C49.8616 46.1139 47.8044 46.5532 45.4387 46.0775C45.4387 46.0775 42.7837 49.7954 39.1087 48.9661C36.5223 51.0854 33.758 50.8046 33.1751 48.7454C33.1216 49.4289 33.293 50.1104 33.6659 50.6846C34.0366 51.2611 34.5873 51.6982 35.2323 51.9296C36.2544 52.4246 37.628 52.1782 39.0637 51.0489C42.623 51.9339 43.883 51.4582 45.9358 48.1089Z" fill="#5E2737"/>
</g>
<defs>
<linearGradient id="paint0_linear_813_1905" x1="28.2283" y1="11.6077" x2="30.8854" y2="42.7348" gradientUnits="userSpaceOnUse">
<stop stop-color="#FFC285"/>
<stop offset="1" stop-color="#DB8D6B"/>
</linearGradient>
<linearGradient id="paint1_linear_813_1905" x1="2.03678" y1="43.472" x2="58.1432" y2="15.9898" gradientUnits="userSpaceOnUse">
<stop stop-color="#D67569"/>
<stop offset="1" stop-color="#E39E7F"/>
</linearGradient>
</defs>
</svg>
