<svg width="73" height="73" viewBox="0 0 73 73" fill="none" xmlns="http://www.w3.org/2000/svg">
<path fill-rule="evenodd" clip-rule="evenodd" d="M62.5 52C65.2846 52 67.9558 53.1063 69.9245 55.0755C71.8937 57.0444 73 59.7152 73 62.5C73 65.2846 71.8937 67.9558 69.9245 69.9245C67.9554 71.8937 65.2848 73 62.5 73C59.7154 73 57.0446 71.8937 55.0755 69.9245C53.1063 67.9558 52 65.2846 52 62.5C52 56.7011 56.7011 52 62.5 52Z" fill="#3BA561"/>
<path d="M36.5 0C16.3416 0 0 16.3416 0 36.5C0 56.6584 16.3416 73 36.5 73C40.6566 73 44.6509 72.3052 48.3731 71.0254C46.8332 68.4737 46 65.5295 46 62.5C46 53.3874 53.3874 46 62.5 46C65.5295 46 68.4737 46.8332 71.0254 48.3731C72.3052 44.6509 73 40.6566 73 36.5C73 16.3416 56.6584 0 36.5 0Z" fill="#5B59A4"/>
<mask id="mask0_813_1861" style="mask-type:alpha" maskUnits="userSpaceOnUse" x="0" y="0" width="73" height="73">
<path d="M36.5 0C16.3416 0 0 16.3416 0 36.5C0 56.6584 16.3416 73 36.5 73C40.6566 73 44.6509 72.3052 48.3731 71.0254C46.8332 68.4737 46 65.5295 46 62.5C46 53.3874 53.3874 46 62.5 46C65.5295 46 68.4737 46.8332 71.0254 48.3731C72.3052 44.6509 73 40.6566 73 36.5C73 16.3416 56.6584 0 36.5 0Z" fill="#BFBFBF"/>
</mask>
<g mask="url(#mask0_813_1861)">
<path d="M23.3241 59.8494C24.8945 58.9171 29.7857 56.1073 32.0352 54.8191C46.3285 48.4392 50.6227 48.1326 54.9168 49.8503C57.7086 50.9669 60.3656 50.2685 61.8995 49.5068C62.2704 49.3225 62.7535 49.5886 62.743 50.0029L61.7917 87.0456C61.7889 87.1519 61.7511 87.2565 61.6854 87.34C57.7919 92.2778 53.3044 92.2565 51.191 91.5314C50.9641 91.4533 50.7047 91.5279 50.5626 91.7212C46.0233 97.9017 41.2894 95.8018 39.1132 93.6413C38.8976 93.4272 38.5406 93.4277 38.331 93.6478C33.1571 99.0869 27.6313 96.5962 25.2034 94.4095C25.0321 94.2554 25.004 94.0005 25.1196 93.8012C29.3795 86.4533 28.6428 79.4644 27.6245 75.1569C27.5477 74.8323 27.1755 74.6797 26.8646 74.8007C25.3095 75.4063 23.219 75.2548 21.9081 75.0491C21.5934 74.9999 21.417 74.6644 21.5106 74.36C21.9458 72.9475 22.3135 70.2479 21.2997 67.3336C19.8274 63.1007 21.361 61.015 23.3241 59.8494Z" fill="#FFE75C"/>
<path d="M31.0303 61.6936L35.8382 67.5761" stroke="#FFC619" stroke-width="0.504591" stroke-linecap="round"/>
<path fill-rule="evenodd" clip-rule="evenodd" d="M43.6077 50.6781C43.7468 50.8917 43.8858 51.1058 44.0227 51.3202C45.3919 53.6129 46.4886 57.3293 42.9503 59.2051C37.8695 61.8988 32.8492 58.8784 31.168 55.3019C32.9237 53.6142 32.1798 51.7662 31.5447 51.0155L41.4828 46.7829C41.8212 47.9115 42.5966 49.1252 43.4028 50.3634L43.3846 50.3714C43.4581 50.4682 43.5326 50.5705 43.6077 50.6781Z" fill="url(#paint0_linear_813_1861)"/>
<path d="M35.2463 85.8458C33.0001 83.1966 28.4548 77.4466 26.4629 74.9027C32.9713 72.3688 34.7903 67.8953 34.8861 65.9755L41.2217 72.7428C41.6777 72.287 43.3959 70.2951 46.6212 65.9755C50.653 60.5759 52.3089 58.2719 57.2044 56.4721C61.1211 55.0323 64.068 58.1281 65.0518 59.856C58.8603 67.1514 45.9301 82.4047 43.7416 85.0539C41.0058 88.3658 38.0539 89.1577 35.2463 85.8458Z" fill="#FF78B9"/>
<path fill-rule="evenodd" clip-rule="evenodd" d="M44.7284 49.9024C44.9033 49.8528 45.0754 49.8053 45.2445 49.76C46.2403 51.1406 47.2906 53.2785 47.3547 55.457C47.3887 56.6076 47.1473 57.7748 46.4722 58.8424C45.797 59.91 44.6997 60.8603 43.0507 61.5964C39.7404 63.0743 36.742 62.5049 34.3534 61.2004C31.9795 59.904 30.2 57.8791 29.2803 56.3993C29.4266 56.3152 29.5714 56.2322 29.7143 56.1499C30.6013 57.5709 32.318 59.5188 34.5933 60.7615C36.8735 62.0069 39.7064 62.5415 42.8469 61.1397C44.4233 60.4358 45.4363 59.5443 46.0494 58.575C46.6623 57.6057 46.8861 56.5411 46.8546 55.4717C46.7921 53.3476 45.7205 51.2261 44.7284 49.9024Z" fill="#FFC619"/>
<path d="M17.5888 25.0053C19.3675 25.0053 20.8094 23.5634 20.8094 21.7847C20.8094 20.006 19.3675 18.5641 17.5888 18.5641C15.8101 18.5641 14.3682 20.006 14.3682 21.7847C14.3682 23.5634 15.8101 25.0053 17.5888 25.0053Z" fill="black"/>
<path d="M24.5322 26.4108C28.3672 26.4108 31.4761 23.302 31.4761 19.467C31.4761 15.632 28.3672 12.5231 24.5322 12.5231C20.6972 12.5231 17.5884 15.632 17.5884 19.467C17.5884 23.302 20.6972 26.4108 24.5322 26.4108Z" fill="black"/>
<path d="M17.8939 19.9138C19.6726 19.9138 21.1145 18.4719 21.1145 16.6932C21.1145 14.9145 19.6726 13.4726 17.8939 13.4726C16.1153 13.4726 14.6733 14.9145 14.6733 16.6932C14.6733 18.4719 16.1153 19.9138 17.8939 19.9138Z" fill="black"/>
<path d="M24.3363 16.2231C26.115 16.2231 27.5569 14.7812 27.5569 13.0025C27.5569 11.2238 26.115 9.78189 24.3363 9.78189C22.5576 9.78189 21.1157 11.2238 21.1157 13.0025C21.1157 14.7812 22.5576 16.2231 24.3363 16.2231Z" fill="black"/>
<path d="M29.0565 17.184C30.8352 17.184 32.2772 15.7421 32.2772 13.9634C32.2772 12.1847 30.8352 10.7428 29.0565 10.7428C27.2779 10.7428 25.8359 12.1847 25.8359 13.9634C25.8359 15.7421 27.2779 17.184 29.0565 17.184Z" fill="black"/>
<path d="M19.6117 15.744C21.3904 15.744 22.8323 14.3021 22.8323 12.5234C22.8323 10.7447 21.3904 9.30283 19.6117 9.30283C17.833 9.30283 16.3911 10.7447 16.3911 12.5234C16.3911 14.3021 17.833 15.744 19.6117 15.744Z" fill="black"/>
<path d="M20.5521 52.55C17.5094 49.9979 19.2844 36.4368 20.5521 29.9749L27.3001 22.1229L37.6061 21.264C41.0823 23.636 48.7954 29.8033 51.8381 35.496C55.6415 42.612 47.544 45.9246 39.0785 49.36C30.6127 52.7952 24.3555 55.7398 20.5521 52.55Z" fill="#FF78B9"/>
<path d="M37.9867 7.03138C35.2262 6.54063 30.0733 11.8163 27.5581 22.1836C27.9263 23.0629 30.5273 24.7478 37.9867 24.4533C47.3112 24.0853 45.7776 18.2575 43.7532 17.5214C41.7288 16.7852 38.6616 16.4172 38.8457 14.0247C39.0295 11.6323 40.7472 7.52215 37.9867 7.03138Z" fill="url(#paint1_linear_813_1861)"/>
<path d="M32.3419 16.6934C31.3194 17.7977 29.3605 20.3373 29.7039 21.6624C30.1334 23.3187 37.3107 22.2758 38.7218 21.6624" stroke="#3F99F2" stroke-width="0.504591" stroke-linecap="round"/>
<path d="M7.15108 26.5309C7.95578 23.845 16.001 20.8982 26.3904 23.3203C27.0097 24.0448 27.0672 28.3249 23.4457 34.853C18.9189 43.0131 13.6672 38.5418 13.9214 36.4029C14.1755 34.2637 16.1406 31.9011 13.9214 30.9883C11.7024 30.0753 6.00318 30.3625 7.15108 26.5309Z" fill="url(#paint2_linear_813_1861)"/>
<path d="M15.2896 25.3101C19.8536 23.9851 22.9576 24.5535 23.9391 25.0034" stroke="#3F99F2" stroke-width="0.504591" stroke-linecap="round"/>
<path d="M19.7642 27.1586C22.8314 25.6189 24.9173 25.4407 24.6106 27.1583C24.3037 28.8761 22.6238 31.5143 20.2927 33.1705" stroke="#3F99F2" stroke-width="0.504591" stroke-linecap="round"/>
<path d="M27.3702 28.5899C29.6378 28.2938 31.1986 25.9294 30.8564 23.3091C30.5141 20.6887 28.3984 18.8045 26.1308 19.1007C23.8632 19.3969 22.3023 21.7612 22.6446 24.3816C22.9868 27.002 25.1026 28.8861 27.3702 28.5899Z" fill="#8CD9FF"/>
<path d="M33.0346 40.8361C31.167 40.1179 27.6999 39.0381 26.57 41.9134C25.7798 43.9245 26.139 49.7428 33.6092 48.7372C41.6437 47.6556 41.0076 40.2615 37.9188 39.9023C35.92 39.6699 34.9021 41.5542 33.0346 40.8361Z" fill="#911F5E"/>
<path d="M29.3495 30.036C28.915 30.2148 27.8496 30.3549 27.0645 29.4839" stroke="black" stroke-width="0.504591" stroke-linecap="round"/>
<path d="M29.1361 30.919C28.7816 31.2542 27.8086 31.7212 26.751 30.909" stroke="black" stroke-width="0.504591" stroke-linecap="round"/>
<path d="M31.6185 36.9153C33.2278 36.9153 34.5324 34.8672 34.5324 32.3407C34.5324 29.8143 33.2278 27.7662 31.6185 27.7662C30.0092 27.7662 28.7046 29.8143 28.7046 32.3407C28.7046 34.8672 30.0092 36.9153 31.6185 36.9153Z" fill="white"/>
<path fill-rule="evenodd" clip-rule="evenodd" d="M34.1031 34.7287C34.3748 34.0336 34.5314 33.2156 34.5314 32.3404C34.5314 31.4651 34.3748 30.6472 34.1031 29.952C33.8457 29.7189 33.5468 29.5856 33.2281 29.5856C32.2588 29.5856 31.4731 30.819 31.4731 32.3404C31.4731 33.862 32.2588 35.0952 33.2281 35.0952C33.5468 35.0952 33.8455 34.9619 34.1031 34.7287Z" fill="black"/>
<path d="M40.8584 27.263C41.3164 27.1577 42.2664 26.6559 42.4035 25.4912" stroke="black" stroke-width="0.504591" stroke-linecap="round"/>
<path d="M41.543 27.8588C42.026 27.9273 43.0898 27.7457 43.4831 26.4715" stroke="black" stroke-width="0.504591" stroke-linecap="round"/>
<path d="M39.6981 35.0958C41.3074 35.0958 42.6119 33.0476 42.6119 30.5212C42.6119 27.9947 41.3074 25.9466 39.6981 25.9466C38.0888 25.9466 36.7842 27.9947 36.7842 30.5212C36.7842 33.0476 38.0888 35.0958 39.6981 35.0958Z" fill="white"/>
<path fill-rule="evenodd" clip-rule="evenodd" d="M42.1837 32.9088C42.4553 32.2137 42.6117 31.396 42.6117 30.521C42.6117 29.646 42.4553 28.8285 42.1839 28.1334C41.9261 27.8997 41.6269 27.7662 41.308 27.7662C40.3387 27.7662 39.5532 28.9996 39.5532 30.521C39.5532 32.0426 40.3387 33.276 41.308 33.276C41.6269 33.276 41.9261 33.1424 42.1837 32.9088Z" fill="black"/>
<path d="M23.3335 40.4151C24.4929 41.3076 26.91 40.4676 26.7422 38.16" stroke="#EB459F" stroke-width="0.504591" stroke-linecap="round"/>
<path fill-rule="evenodd" clip-rule="evenodd" d="M30.1845 48.669C32.6197 48.4711 34.534 46.4322 34.534 43.9461C34.534 42.8157 34.1385 41.7779 33.4781 40.9634C33.3353 40.9371 33.1877 40.8956 33.0344 40.8366C31.1669 40.1184 27.6997 39.0386 26.57 41.9139C25.9244 43.5568 26.046 47.7404 30.1845 48.669Z" fill="black"/>
<path fill-rule="evenodd" clip-rule="evenodd" d="M36.2209 48.0649C35.987 47.7732 35.5408 47.2502 34.9584 46.6606C33.337 45.2508 32.3194 45.6963 32.0133 46.0951C30.8741 45.0467 28.4085 45.567 27.9482 47.6006C29.0679 48.5519 30.8554 49.1082 33.6087 48.7378C34.6102 48.603 35.477 48.3701 36.2209 48.0649Z" fill="#EB459F"/>
<path d="M30.918 44.0526C31.2904 44.4026 32.1954 45.5892 32.8378 47.5371" stroke="black" stroke-width="0.504591" stroke-linecap="round"/>
<path d="M66.6328 64.5113C67.4302 62.5482 65.5484 57.1237 59.9048 56.1424L53.689 62.6095C53.0552 63.7342 53.229 65.3088 57.1857 67.7627C59.6922 69.317 60.9481 67.3739 61.2345 66.2903C63.8845 67.0755 64.3835 65.9631 64.3017 65.3088C64.813 65.6972 65.9949 66.0817 66.6328 64.5113Z" fill="#FF78B9"/>
<path d="M52.584 63.2537C53.913 65.1555 57.1418 68.7933 59.4238 68.1307C61.071 67.6524 61.0392 66.6584 61.2028 66.2597" stroke="#EB459F" stroke-width="0.504591" stroke-linecap="round"/>
<path d="M55.874 61.5121C58.3784 62.9779 60.7893 67.1982 63.0713 66.5359C64.2119 66.2047 64.3903 65.2782 64.3903 65.2782" stroke="#EB459F" stroke-width="0.504591" stroke-linecap="round"/>
<path fill-rule="evenodd" clip-rule="evenodd" d="M66.6407 64.4884C66.6377 64.4959 66.6347 64.5036 66.6317 64.5111C65.9936 66.0818 64.8117 65.6973 64.3004 65.3088C64.3074 65.3643 64.3102 65.4234 64.3079 65.4842C64.2484 65.4426 64.1899 65.3984 64.1321 65.3518C63.6293 64.9444 63.169 64.3313 62.7185 63.6879C62.6102 63.5331 62.5024 63.3765 62.3941 63.2191C62.0444 62.7111 61.691 62.1976 61.3082 61.7296C60.8082 61.118 60.2784 60.6104 59.6821 60.3193C59.5578 60.2587 59.5062 60.1089 59.567 59.9848C59.6276 59.8605 59.7774 59.809 59.9015 59.8698C60.5933 60.2075 61.1777 60.7795 61.6955 61.4129C62.0927 61.8987 62.4624 62.436 62.8143 62.9472V62.9475C62.9207 63.1016 63.0252 63.2534 63.1283 63.401C63.5813 64.0479 64.0058 64.6054 64.447 64.9631C64.8793 65.3131 65.298 65.4494 65.7645 65.3138C65.8988 65.2748 66.0687 65.1672 66.256 64.9759C66.3846 64.8448 66.5149 64.6807 66.6407 64.4884Z" fill="#EB459F"/>
<path fill-rule="evenodd" clip-rule="evenodd" d="M40.932 72.433L41.2224 72.7431C41.3435 72.6218 41.5539 72.3922 41.858 72.039L38.615 76.3182C38.5317 76.4282 38.3746 76.4497 38.2645 76.3664C38.1545 76.2829 38.133 76.126 38.2162 76.016L40.932 72.433Z" fill="#EB459F"/>
</g>
<defs>
<linearGradient id="paint0_linear_813_1861" x1="34.9801" y1="48.6844" x2="36.8206" y2="57.1502" gradientUnits="userSpaceOnUse">
<stop stop-color="#EB459F"/>
<stop offset="0.967742" stop-color="#FF78B9"/>
</linearGradient>
<linearGradient id="paint1_linear_813_1861" x1="37.0667" y1="16.4785" x2="30.3187" y2="21.2021" gradientUnits="userSpaceOnUse">
<stop stop-color="#8CD9FF"/>
<stop offset="1" stop-color="#66BCFF"/>
</linearGradient>
<linearGradient id="paint2_linear_813_1861" x1="16.2654" y1="31.1402" x2="24.2434" y2="25.1284" gradientUnits="userSpaceOnUse">
<stop stop-color="#8CD9FF"/>
<stop offset="1" stop-color="#66BCFF"/>
</linearGradient>
</defs>
</svg>
