<svg width="73" height="73" viewBox="0 0 73 73" fill="none" xmlns="http://www.w3.org/2000/svg">
<path fill-rule="evenodd" clip-rule="evenodd" d="M62.5 52C65.2846 52 67.9558 53.1063 69.9245 55.0755C71.8937 57.0444 73 59.7152 73 62.5C73 65.2846 71.8937 67.9558 69.9245 69.9245C67.9554 71.8937 65.2848 73 62.5 73C59.7154 73 57.0446 71.8937 55.0755 69.9245C53.1063 67.9558 52 65.2846 52 62.5C52 56.7011 56.7011 52 62.5 52Z" fill="#3BA561"/>
<path d="M36.5 0C16.3416 0 0 16.3416 0 36.5C0 56.6584 16.3416 73 36.5 73C40.6566 73 44.6509 72.3052 48.3731 71.0254C46.8332 68.4737 46 65.5295 46 62.5C46 53.3874 53.3874 46 62.5 46C65.5295 46 68.4737 46.8332 71.0254 48.3731C72.3052 44.6509 73 40.6566 73 36.5C73 16.3416 56.6584 0 36.5 0Z" fill="#2F3136"/>
<mask id="mask0_813_1813" style="mask-type:alpha" maskUnits="userSpaceOnUse" x="0" y="0" width="73" height="73">
<path d="M36.5 0C16.3416 0 0 16.3416 0 36.5C0 56.6584 16.3416 73 36.5 73C40.6566 73 44.6509 72.3052 48.3731 71.0254C46.8332 68.4737 46 65.5295 46 62.5C46 53.3874 53.3874 46 62.5 46C65.5295 46 68.4737 46.8332 71.0254 48.3731C72.3052 44.6509 73 40.6566 73 36.5C73 16.3416 56.6584 0 36.5 0Z" fill="#BFBFBF"/>
</mask>
<g mask="url(#mask0_813_1813)">
<path d="M52.6907 41.6212L55.1475 28.5522C55.4447 26.9728 56.9665 25.9327 58.5459 26.2299C60.1253 26.527 61.1655 28.0489 60.8683 29.6283C60.8157 29.9089 60.7171 30.1843 60.5952 30.4262L54.4953 42.2418C53.9682 43.2197 52.5037 42.7094 52.6907 41.6212Z" fill="#FCD45C"/>
<path d="M32.5757 58.8053C31.7318 58.9085 30.9433 58.2614 30.7828 57.3314L30.2817 54.4336C30.1095 53.4296 30.7278 52.4923 31.6383 52.3797L31.9212 52.3439C32.832 52.2313 33.6611 52.991 33.7378 54.007L33.956 56.9407C34.0253 57.8827 33.4191 58.7024 32.5757 58.8053Z" fill="url(#paint0_linear_813_1813)"/>
<path d="M26.2099 58.8053C25.3661 58.9085 24.5776 58.2614 24.417 57.3314L23.916 54.4336C23.7438 53.4296 24.3621 52.4923 25.2726 52.3797L25.5554 52.3439C26.4663 52.2313 27.2954 52.991 27.3721 54.007L27.5903 56.9407C27.6596 57.8827 27.0534 58.7024 26.2099 58.8053Z" fill="url(#paint1_linear_813_1813)"/>
<path d="M13.7075 17.9903C14.7189 19.3876 15.553 20.3966 16.0275 20.9071C17.1562 22.1198 18.803 23.7927 21.4464 25.8418C24.6843 28.3487 21.94 19.5338 19.0258 16.2911C17.499 14.5918 10.8436 14.0406 13.7075 17.9903Z" fill="url(#paint2_linear_813_1813)"/>
<path d="M16.8114 18.4911L21.0463 19.4234C20.4397 18.2106 19.7376 17.0866 19.0258 16.2933C17.499 14.5917 10.8436 14.0404 13.7075 17.9902C14.2802 18.781 14.7933 19.4425 15.2176 19.965L15.2125 19.9051C15.1287 19.0136 15.9364 18.2969 16.8114 18.4887V18.4911Z" fill="#FD78B7"/>
<path d="M36.3453 19.5073H28.3188V24.1257C28.6208 24.0729 28.8845 24.061 29.1097 24.0921C29.9415 24.2119 31.1613 25.022 32.7361 26.4984C33.2273 26.9585 33.6995 27.3971 34.1499 27.8142C38.0088 31.3874 38.9146 32.4062 38.9555 34.2276C38.9555 34.309 38.9528 34.362 38.9481 34.3908C38.6894 34.6639 37.6925 34.9826 37.0882 34.9826V39.565H42.682C45.6994 39.565 48.1683 37.1059 48.1203 34.0885C48.1203 34.0671 48.1203 34.048 48.1203 34.0261C47.9933 28.1329 44.4628 24.8686 40.3791 21.0867C39.2836 20.0681 37.8432 19.5025 36.3476 19.5025L36.3453 19.5073Z" fill="#ACBAEB"/>
<path d="M37.0854 39.5671C38.9262 39.5671 43.6309 38.5367 43.5351 34.1292C43.4389 29.7217 40.5177 27.5167 35.8679 23.1572C31.2208 18.7976 28.3928 18.582 23.3619 21.168C18.3315 23.7564 13.229 27.9242 13.229 33.7458C13.229 39.5671 19.3094 39.5671 19.3094 39.5671H37.2124" fill="#FCE55C"/>
<path d="M26.3143 25.6428C26.4246 25.9113 26.8032 25.9184 26.9256 25.6548C27.2852 24.8855 27.9607 23.8669 29.0418 23.7567C30.8032 23.5769 32.9939 25.1491 35.9057 29.5374C38.8179 33.9257 36.1574 35.7233 35.4386 36.2625C34.7603 36.7705 30.7506 38.115 27.0693 32.3225C26.753 31.8262 26.0389 31.7997 25.6793 32.2672C24.4929 33.8155 22.0194 36.4783 19.3114 36.042C15.5292 35.4358 14.8509 30.7646 19.7189 26.7022C23.9537 23.1695 25.5643 23.8262 26.3143 25.6404V25.6428Z" fill="#232143"/>
<path d="M43.6349 49.9616H46.6904C49.2072 49.9616 51.2514 52.0062 51.2514 54.5226C51.2514 56.8929 49.3268 58.8151 46.9589 58.8151H43.6251C41.593 58.8151 39.9438 57.166 39.9438 55.1339V53.6526C39.9438 51.6154 41.5977 49.9616 43.6349 49.9616Z" fill="#232143"/>
<path d="M47.4408 57.885C49.2263 57.885 50.6736 56.3192 50.6736 54.388C50.6736 52.4568 49.2263 50.8914 47.4408 50.8914C45.6549 50.8914 44.2075 52.4568 44.2075 54.388C44.2075 56.3192 45.6549 57.885 47.4408 57.885Z" fill="#FF6DB9"/>
<path d="M48.6316 52.9045C48.6316 52.3751 48.2022 51.9461 47.6728 51.9461C47.1433 51.9461 46.7144 52.3751 46.7144 52.9045V55.5865C46.7144 56.116 47.1433 56.5453 47.6728 56.5453C48.2022 56.5453 48.6316 56.116 48.6316 55.5865V52.9045Z" fill="#252147"/>
<path d="M50.7807 41.5446H24.5852C20.6553 41.5446 17.4692 44.7307 17.4692 48.6605C17.4692 52.5903 20.6553 55.776 24.5852 55.776H50.7807C54.7105 55.776 57.8966 52.5903 57.8966 48.6605C57.8966 44.7307 54.7105 41.5446 50.7807 41.5446Z" fill="#ACBAEB"/>
<path d="M24.1209 41.2569C25.6119 40.4735 25.5928 39.5673 25.5928 39.5673H37.214C37.214 39.5673 37.9546 41.5444 42.6975 41.5444C42.6975 41.5444 40.6845 41.4728 38.2421 43.0904C35.7978 44.7083 33.9667 46.1798 31.2345 47.9774C28.5022 49.7746 26.707 49.9904 25.0173 49.8825C23.3277 49.7746 19.879 48.2291 21.3528 44.1329C21.9353 42.8963 22.9131 41.8947 24.1236 41.2593L24.1209 41.2569Z" fill="#FCE55C"/>
<path d="M23.9394 39.5674C23.9394 39.5674 23.6518 36.1904 25.3773 36.0466C27.1029 35.9029 28.6823 39.6032 31.4145 39.6032L23.9394 39.5674Z" fill="#FF9F00"/>
<path d="M50.7834 41.5446H45.5972C45.5972 41.5446 47.4953 41.7483 47.6725 43.9055C47.8502 46.0623 46.508 46.5657 45.9326 48.6605C45.3576 50.755 48.5211 53.0559 51.9698 50.4218C53.2881 49.4155 54.0023 48.6173 54.4647 48.0013C54.4647 48.0013 54.4647 47.999 54.4674 47.9966C54.4674 47.9943 54.4721 47.992 54.4745 47.9869C54.52 47.9246 54.5656 47.8649 54.6061 47.805C55.0211 47.2463 55.3444 46.9015 55.5891 46.688C56.0706 46.2879 56.5331 46.3307 56.6051 46.3428C57.8129 46.5251 57.892 48.4712 57.897 48.6461C57.8896 44.7229 54.707 41.5446 50.7811 41.5446H50.7834Z" fill="#FCE55C"/>
<path d="M32.9759 28.7657C33.6063 30.4004 33.1271 32.1068 31.9069 32.5766C30.6871 33.0461 29.1867 32.1021 28.5587 30.4674C27.9284 28.8328 28.0074 26.0911 29.2277 25.6189C30.4475 25.1491 32.3456 27.1312 32.9759 28.7633V28.7657Z" fill="#5865F2"/>
<path d="M31.642 28.4302C31.8971 28.2032 31.6638 27.5246 31.1207 26.9145C30.578 26.3045 29.9309 25.994 29.6757 26.221C29.4205 26.4481 29.6539 27.1267 30.197 27.7367C30.74 28.3468 31.3868 28.6573 31.642 28.4302Z" fill="#E3E5F2"/>
<path d="M20.0528 28.6677C19.3792 30.2734 19.7532 31.9966 20.8892 32.5214C22.0253 33.0462 23.4921 32.1692 24.1653 30.5633C24.8389 28.9576 24.8915 26.2158 23.7555 25.691C22.6194 25.1685 20.7264 27.0619 20.0528 28.6677Z" fill="#5865F2"/>
<path d="M23.7008 28.4732C24.0043 28.4474 24.2065 27.9133 24.1527 27.2803C24.099 26.6472 23.8091 26.1549 23.506 26.1807C23.2025 26.2065 23.0003 26.7406 23.0541 27.3736C23.1078 28.0067 23.3977 28.499 23.7008 28.4732Z" fill="#E3E5F2"/>
<path d="M25.4752 33.8586C25.751 33.8032 26.1293 33.7771 26.5657 33.8679C26.822 33.9209 26.9517 34.1773 26.8341 34.388L26.5968 34.8146C26.3596 35.2412 25.6766 35.2412 25.4393 34.8146L25.197 34.381C25.0797 34.1675 25.2142 33.9112 25.4752 33.8586Z" fill="#FD78B7"/>
<path d="M54.7274 30.7882L54.646 31.2148C55.1229 31.0328 57.8792 30.1243 59.3196 32.8951L59.5303 32.4852C58.0877 30.0215 55.583 30.5248 54.7274 30.7858V30.7882Z" fill="#FF9F00"/>
<path d="M40.9653 24.712C41.231 24.4753 41.0884 23.881 40.647 23.3846C40.2052 22.8883 39.6313 22.6778 39.3653 22.9145C39.0996 23.1513 39.2418 23.7456 39.6836 24.2419C40.1254 24.7382 40.6992 24.9487 40.9653 24.712Z" fill="#323D70"/>
<path d="M49.6275 26.1916C49.6275 26.1916 45.7257 23.5984 41.3927 23.5409C37.0596 23.4833 44.1728 29.9448 48.0099 30.865C50.4067 31.4381 55.4613 29.7052 49.6275 26.194V26.1916Z" fill="url(#paint3_linear_813_1813)"/>
<path d="M50.5736 26.8123C47.5371 26.7596 46.9761 26.7644 45.0687 26.8219C43.4004 26.8723 43.0696 27.4618 43.1078 28.1449C44.6872 29.4056 46.5783 30.5222 48.0116 30.8651C50.2619 31.4043 54.8587 29.9063 50.5736 26.8123Z" fill="#FD78B7"/>
<path d="M29.3116 24.1257C31.0013 24.1257 33.1129 26.0166 35.586 29.7481C38.2201 33.7196 36.0773 35.3111 35.2697 35.9103L35.2074 35.9582C35.0589 36.0685 34.4165 36.3872 33.4339 36.3872C31.9145 36.3872 29.6303 35.6465 27.3894 32.1211C27.1642 31.7662 26.7785 31.5531 26.3542 31.5531C25.9658 31.5531 25.6089 31.7303 25.374 32.037C24.3217 33.4079 22.2129 35.7112 19.9049 35.7112C19.7249 35.7112 19.5453 35.6968 19.3704 35.668C18.0352 35.4549 17.0885 34.6663 16.7698 33.5088C16.2404 31.5768 17.4625 29.082 19.9598 26.9969C21.9082 25.3719 23.4159 24.5475 24.4367 24.5475C25.1344 24.5475 25.6039 24.931 25.9588 25.789C26.0691 26.0574 26.3301 26.2299 26.6203 26.2299C26.9102 26.2299 27.1498 26.0718 27.2698 25.8177C27.6052 25.1011 28.19 24.2287 29.0791 24.1377C29.1558 24.1305 29.2325 24.1257 29.3116 24.1257ZM29.3116 23.7446C29.2205 23.7446 29.1297 23.7494 29.0409 23.759C27.9597 23.8692 27.2842 24.8878 26.9246 25.6572C26.8646 25.7866 26.7423 25.8489 26.6203 25.8489C26.498 25.8489 26.3686 25.7794 26.311 25.6428C25.9514 24.7704 25.3908 24.164 24.4367 24.164C23.4062 24.164 21.9156 24.8687 19.7156 26.7021C14.8476 30.7622 15.5282 35.4358 19.308 36.042C19.5067 36.0731 19.7058 36.0899 19.9049 36.0899C22.3757 36.0899 24.5781 33.7005 25.6759 32.2672C25.8485 32.0444 26.1002 31.9318 26.3542 31.9318C26.6297 31.9318 26.9032 32.0635 27.066 32.3221C29.3549 35.9243 31.7707 36.7658 33.4339 36.7658C34.4453 36.7658 35.1789 36.4542 35.4353 36.2602C36.1541 35.721 38.8123 33.9234 35.9024 29.535C33.139 25.3672 31.0227 23.7398 29.3093 23.7398L29.3116 23.7446Z" fill="black"/>
<path d="M38.0959 40.5019C37.3864 40.0274 37.2138 39.5673 37.2138 39.5673H25.5926C25.5926 39.5673 25.5997 39.9869 25.1372 40.5019H38.0959Z" fill="url(#paint4_linear_813_1813)"/>
<path d="M54.6263 43.4478C54.463 43.4478 54.2979 43.3998 54.1518 43.3017C53.507 42.8607 52.7901 42.5704 52.0234 42.4364C51.5656 42.3573 51.259 41.921 51.3381 41.4632C51.4172 41.0054 51.8532 40.6988 52.3109 40.7779C53.3176 40.9528 54.2569 41.3338 55.1031 41.9116C55.4865 42.1726 55.5847 42.6974 55.3237 43.0812C55.1608 43.3184 54.8971 43.4478 54.6286 43.4478H54.6263Z" fill="#FD78B7"/>
</g>
<defs>
<linearGradient id="paint0_linear_813_1813" x1="30.2533" y1="55.5748" x2="33.9607" y2="55.5748" gradientUnits="userSpaceOnUse">
<stop stop-color="#FCE55C"/>
<stop offset="0.23" stop-color="#FCE159"/>
<stop offset="0.43" stop-color="#FCD651"/>
<stop offset="0.63" stop-color="#FCC444"/>
<stop offset="0.82" stop-color="#FCAA31"/>
<stop offset="1" stop-color="#FD8A1A"/>
</linearGradient>
<linearGradient id="paint1_linear_813_1813" x1="23.8899" y1="14.9988" x2="27.5977" y2="14.9988" gradientUnits="userSpaceOnUse">
<stop stop-color="#FCE55C"/>
<stop offset="0.23" stop-color="#FCE159"/>
<stop offset="0.43" stop-color="#FCD651"/>
<stop offset="0.63" stop-color="#FCC444"/>
<stop offset="0.82" stop-color="#FCAA31"/>
<stop offset="1" stop-color="#FD8A1A"/>
</linearGradient>
<linearGradient id="paint2_linear_813_1813" x1="18.7761" y1="26.7696" x2="17.164" y2="14.6928" gradientUnits="userSpaceOnUse">
<stop stop-color="#FDC41A"/>
<stop offset="0.24" stop-color="#FDC21C"/>
<stop offset="0.4" stop-color="#FDBE25"/>
<stop offset="0.54" stop-color="#FDB734"/>
<stop offset="0.66" stop-color="#FDAD49"/>
<stop offset="0.77" stop-color="#FD9F64"/>
<stop offset="0.88" stop-color="#FD8F86"/>
<stop offset="0.98" stop-color="#FD7CAD"/>
<stop offset="1" stop-color="#FD78B7"/>
</linearGradient>
<linearGradient id="paint3_linear_813_1813" x1="41.1745" y1="22.7116" x2="51.0967" y2="31.0399" gradientUnits="userSpaceOnUse">
<stop stop-color="#FDC41A"/>
<stop offset="0.15" stop-color="#FDC11E"/>
<stop offset="0.31" stop-color="#FDBB2B"/>
<stop offset="0.48" stop-color="#FDB141"/>
<stop offset="0.65" stop-color="#FDA25F"/>
<stop offset="0.82" stop-color="#FD8F86"/>
<stop offset="1" stop-color="#FD78B7"/>
</linearGradient>
<linearGradient id="paint4_linear_813_1813" x1="25.1372" y1="40.0348" x2="38.0959" y2="40.0348" gradientUnits="userSpaceOnUse">
<stop stop-color="#FDC41A"/>
<stop offset="0.28" stop-color="#FDC01A"/>
<stop offset="0.53" stop-color="#FDB51A"/>
<stop offset="0.77" stop-color="#FDA31A"/>
<stop offset="1" stop-color="#FD8A1A"/>
</linearGradient>
</defs>
</svg>
