<svg width="1110" height="377" viewBox="0 0 1110 377" fill="none" xmlns="http://www.w3.org/2000/svg">
<g clip-path="url(#clip0_813_1487)">
<mask id="mask0_813_1487" style="mask-type:luminance" maskUnits="userSpaceOnUse" x="0" y="0" width="1110" height="377">
<path d="M1110 0H0V376.271H1110V0Z" fill="white"/>
</mask>
<g mask="url(#mask0_813_1487)">
<path d="M1110 0H0V376.271H1110V0Z" fill="#FFE75C"/>
<path d="M1110 0H0V376.271H1110V0Z" fill="url(#paint0_linear_813_1487)"/>
<path d="M0 0H1110V376.271H0V0Z" fill="#FFE75C"/>
<path d="M0 0H1110V376.271H0V0Z" fill="url(#paint1_linear_813_1487)"/>
<path d="M83.4707 295.541C88.932 284.288 101.265 278.099 113.551 280.447L163.997 290.09C176.283 292.439 185.464 302.739 186.391 315.213L192.031 391.22C193.379 409.372 177.13 423.856 159.25 420.439L69.8878 403.358C52.0091 399.94 42.2471 380.484 50.1944 364.109L83.4707 295.541Z" fill="white"/>
<path d="M174.017 283.519L106.66 270.644C103.325 270.006 100.105 272.193 99.4674 275.528L98.6458 279.826C98.0084 283.161 100.195 286.381 103.53 287.018L170.888 299.894C174.222 300.531 177.442 298.344 178.08 295.01L178.901 290.711C179.539 287.376 177.352 284.156 174.017 283.519Z" fill="#7399FC"/>
<path d="M112.847 273.681L110.063 288.248" stroke="#5A78EE" stroke-width="2.82203"/>
<path d="M131.649 277.278L128.864 291.844" stroke="#5A78EE" stroke-width="2.82203"/>
<path d="M150.45 280.869L147.666 295.434" stroke="#5A78EE" stroke-width="2.82203"/>
<path d="M169.249 284.464L166.465 299.03" stroke="#5A78EE" stroke-width="2.82203"/>
<path d="M99.4214 304.186L112.292 319.004C123.205 331.569 141.18 335.27 156.169 328.038L192.824 310.349" stroke="url(#paint2_linear_813_1487)" stroke-width="25.3983" stroke-linecap="round"/>
<path d="M186.503 291.318L212.881 339.536" stroke="#904E3F" stroke-width="9.40678" stroke-linecap="round"/>
<path d="M193.241 325.412C202.236 327.131 210.923 321.233 212.643 312.237C214.362 303.241 208.463 294.554 199.468 292.835C190.472 291.115 181.785 297.014 180.066 306.01C178.346 315.006 184.245 323.692 193.241 325.412Z" fill="#7399FC"/>
<path d="M165.597 309.305L176.559 332.055L174.016 333.279L163.054 310.531L165.597 309.305Z" fill="#DAD7CB"/>
<path d="M110.495 297.522L91.1646 313.788L92.9815 315.947L112.311 299.681L110.495 297.522Z" fill="#DAD7CB"/>
<path d="M121.793 310.975L102.935 327.358L104.785 329.488L123.644 313.105L121.793 310.975Z" fill="#DAD7CB"/>
<path d="M134.538 318.593L129.469 343.346L132.234 343.911L137.302 319.159L134.538 318.593Z" fill="#DAD7CB"/>
<path d="M150.932 316.785L158.83 340.712L156.15 341.596L148.253 317.669L150.932 316.785Z" fill="#DAD7CB"/>
<path d="M220.993 263.013C217.681 263.645 213.953 258.685 212.665 251.936C211.378 245.186 213.019 239.203 216.332 238.571C219.644 237.939 223.372 242.899 224.659 249.648C225.947 256.398 224.305 262.382 220.993 263.013Z" fill="#5A78EE"/>
<path d="M216.333 238.572L202.435 241.223C196.981 246.485 200.751 263.647 207.096 265.665L220.994 263.015L216.333 238.572Z" fill="#5A78EE"/>
<path d="M153.165 182.671L153.406 178.399C154.346 161.752 141.613 147.496 124.965 146.556" stroke="black" stroke-width="2.82203"/>
<path d="M193.261 180.914C186.889 181.005 183.207 189.461 180.719 193.525L179.947 220.798C188.6 222.416 207.106 222.638 211.903 210.592C217.901 195.534 200.428 180.81 193.261 180.914Z" fill="white"/>
<path d="M113.703 176.422C120.023 177.231 122.73 186.048 124.745 190.365L122.443 217.552C113.663 218.185 95.2494 216.324 91.8378 203.814C87.5732 188.176 106.593 175.513 113.703 176.422Z" fill="white"/>
<path fill-rule="evenodd" clip-rule="evenodd" d="M209.234 192.397C199.886 207.487 192.733 209.861 180.22 211.09L180.178 212.553L182.268 221.163C191.551 222.369 207.499 221.647 211.902 210.592C214.499 204.072 212.696 197.614 209.234 192.397Z" fill="#FDAFD6"/>
<path fill-rule="evenodd" clip-rule="evenodd" d="M96.6747 185.874C103.35 198.279 109.639 203.512 123.267 207.836L123.141 209.333L120.095 217.653C110.735 217.807 94.9702 215.294 91.8393 203.814C89.972 196.967 92.5685 190.691 96.6747 185.874Z" fill="#FDAFD6"/>
<path d="M153.596 181.596C130.778 180.307 115.803 193.137 109.216 211.059C105.429 221.356 96.2823 229.991 89.0441 238.235C85.372 242.417 83.0194 247.813 82.6814 253.8C81.8779 268.035 92.7658 280.225 107 281.029L188.393 285.624C202.627 286.427 214.817 275.539 215.621 261.304C215.959 255.317 214.228 249.691 211.051 245.123C204.786 236.116 196.669 226.507 194.066 215.849C189.537 197.299 176.102 182.866 153.283 181.578L153.596 181.596Z" fill="white"/>
<path d="M160.91 234.43C162.741 233.507 162.501 229.339 160.374 225.123C158.247 220.906 155.038 218.237 153.207 219.16C151.376 220.084 151.616 224.251 153.743 228.468C155.87 232.685 159.079 235.354 160.91 234.43Z" fill="black"/>
<path d="M181.342 234.067C179.627 232.943 180.334 228.829 182.922 224.878C185.51 220.928 188.999 218.637 190.715 219.761C192.431 220.885 191.723 224.998 189.135 228.949C186.547 232.899 183.058 235.191 181.342 234.067Z" fill="black"/>
<path d="M153.353 247.053L166.212 252.281C166.051 255.157 164.475 260.854 159.472 260.642C154.47 260.429 153.308 251.494 153.353 247.053Z" fill="#FDAFD6"/>
<path d="M172.956 244.857L172.79 244.671C171.399 243.114 171.486 240.694 173.511 240.186C175.249 239.75 177.279 239.806 179.055 240.428C181.109 241.148 180.949 243.718 179.326 245.168L179.275 245.213C178.465 245.937 177.4 246.31 176.314 246.248L175.781 246.218C174.696 246.157 173.679 245.667 172.956 244.857Z" fill="black"/>
<path d="M164.538 178.698L142.737 177.468C141.042 177.372 139.591 178.668 139.495 180.363L139.291 183.984C139.195 185.679 140.492 187.13 142.186 187.226L163.988 188.457C165.682 188.552 167.134 187.256 167.23 185.561L167.434 181.94C167.53 180.245 166.233 178.794 164.538 178.698Z" fill="#7399FC"/>
<path d="M194.762 249.297L193.43 259.3" stroke="#FDAFD6" stroke-width="2.82203" stroke-linecap="round"/>
<path d="M199.479 247.794L198.147 257.796" stroke="#FDAFD6" stroke-width="2.82203" stroke-linecap="round"/>
<path d="M132.732 243.348L135.207 254.63" stroke="#FDAFD6" stroke-width="2.82203" stroke-linecap="round"/>
<path d="M126.112 240.217L128.588 251.499" stroke="#FDAFD6" stroke-width="2.82203" stroke-linecap="round"/>
<path d="M119.493 237.086L121.969 248.369" stroke="#FDAFD6" stroke-width="2.82203" stroke-linecap="round"/>
<path d="M204.197 246.287L202.865 256.289" stroke="#FDAFD6" stroke-width="2.82203" stroke-linecap="round"/>
<path d="M121.079 155.384C126.06 155.665 130.326 151.856 130.607 146.875C130.888 141.894 127.078 137.628 122.097 137.347C117.116 137.066 112.851 140.876 112.57 145.856C112.288 150.837 116.098 155.103 121.079 155.384Z" fill="#7399FC"/>
<path d="M83.9224 228.649L97.2483 233.405C101.828 239.444 95.4639 255.822 88.8838 256.841L75.5581 252.085L83.9224 228.649Z" fill="#5A78EE"/>
<path d="M75.5584 252.086C78.734 253.22 83.1808 248.892 85.4905 242.421C87.8002 235.95 87.0983 229.785 83.9228 228.651C80.7472 227.518 76.3004 231.845 73.9907 238.317C71.681 244.788 72.3829 250.953 75.5584 252.086Z" fill="#7399FC"/>
<path d="M320.63 160.018C335.275 148.452 364.616 173.208 377.456 187.031H403.391C416.612 189.314 445.037 199.967 452.97 224.319C460.903 248.669 449.665 336.178 443.054 376.89H264.567C267.618 344.423 276.696 271.193 288.594 238.016C298.434 210.581 308.603 202.936 314.488 202.258C310.934 201.458 306.519 199.199 306.519 193.88C306.519 185.681 317.452 188.426 323.681 190.075C316.562 184.875 305.985 171.584 320.63 160.018Z" fill="url(#paint3_linear_813_1487)"/>
<path d="M320.63 160.018C335.275 148.452 364.616 173.208 377.456 187.031H403.391C416.612 189.314 445.037 199.967 452.97 224.319C460.903 248.669 449.665 336.178 443.054 376.89H264.567C267.618 344.423 276.696 271.193 288.594 238.016C298.434 210.581 308.603 202.936 314.488 202.258C310.934 201.458 306.519 199.199 306.519 193.88C306.519 185.681 317.452 188.426 323.681 190.075C316.562 184.875 305.985 171.584 320.63 160.018Z" fill="url(#paint4_linear_813_1487)"/>
<path d="M320.523 188.406C325.136 191.396 330.809 193.741 336.224 193.776" stroke="#1774D0" stroke-width="2.82203" stroke-linecap="round"/>
<path d="M412.524 217.423C402.015 222.778 359.81 200.804 353.717 193.777H418.093C420.615 199.426 423.033 212.066 412.524 217.423Z" fill="url(#paint5_linear_813_1487)"/>
<path d="M554.011 340.987H427.113V347.092H554.011V340.987Z" fill="#904E3F"/>
<path d="M422.921 218.253C425.8 221.381 430.195 229.607 424.744 237.495C417.931 247.354 421.098 256.736 424.744 261.331" stroke="#1774D0" stroke-width="2.82203" stroke-linecap="round"/>
<path d="M385.203 218.927C383.27 221.696 380.185 229.223 382.883 239.403C386.257 252.129 381.724 264.118 377.19 267.483" stroke="#1774D0" stroke-width="2.82203" stroke-linecap="round"/>
<path fill-rule="evenodd" clip-rule="evenodd" d="M324.099 214.017C337.792 213.158 349.592 223.536 350.454 237.197C352.698 272.798 389.41 295.608 422.428 281.916L457.36 267.431C470.029 262.177 484.57 268.164 489.836 280.804C495.103 293.444 489.101 307.95 476.431 313.204L441.499 327.69C376.983 354.443 305.25 309.873 300.864 240.309C300.002 226.648 310.405 214.877 324.099 214.017Z" fill="#1774D0"/>
<path fill-rule="evenodd" clip-rule="evenodd" d="M324.099 214.017C337.792 213.158 349.592 223.536 350.454 237.197C352.698 272.798 389.41 295.608 422.428 281.916L457.36 267.431C470.029 262.177 484.57 268.164 489.836 280.804C495.103 293.444 489.101 307.95 476.431 313.204L441.499 327.69C376.983 354.443 305.25 309.873 300.864 240.309C300.002 226.648 310.405 214.877 324.099 214.017Z" fill="url(#paint6_linear_813_1487)"/>
<path d="M441.499 327.69L476.431 313.204C489.101 307.95 495.103 293.444 489.836 280.804C484.57 268.164 470.029 262.177 457.36 267.431L422.428 281.916C389.41 295.608 352.698 272.798 350.454 237.197C349.592 223.536 337.792 213.158 324.099 214.017C310.405 214.877 300.002 226.648 300.864 240.309" stroke="#1774D0" stroke-width="2.82203" stroke-linecap="round"/>
<path d="M412.083 335.381L420.677 340.915H548.729L610.116 148.715L600.394 140.855H459.552L412.083 335.381Z" fill="#DEE0FD"/>
<path d="M420.736 340.917H564.111L610.253 148.715H466.878L420.736 340.917Z" fill="white"/>
<path d="M489.162 118.263L494.093 113.428L530.849 374.924H524.785L489.162 118.263Z" fill="#6B2F34"/>
<path d="M406.416 411.766H427.429L587.565 115.64L572.36 113.428L565.145 115.64L406.416 411.766Z" fill="#6B2F34"/>
<path d="M412.937 411.766H433.95L591.474 116.365L572.854 113.428L412.937 411.766Z" fill="#904E3F"/>
<path d="M557.325 415.111H536.312L494.069 113.428H515.082L557.325 415.111Z" fill="#904E3F"/>
<path d="M377.988 54.4703C378.709 55.7173 380.75 55.8901 382.544 54.8562C384.339 53.8224 385.21 51.9734 384.488 50.7264C383.766 49.4793 381.726 49.3066 379.931 50.3404C378.136 51.3743 377.266 53.2233 377.988 54.4703Z" fill="#3F99F2"/>
<path d="M381.966 52.9976C365.623 63.759 373.351 93.6084 377.846 106.448L423.405 103.188C417.344 82.4665 398.31 42.2363 381.966 52.9976Z" fill="#66BCFF"/>
<path d="M402.296 75.9531C404.955 74.4216 404.677 68.977 401.676 63.7923C398.675 58.6075 394.087 55.646 391.428 57.1775C388.77 58.709 389.048 64.1536 392.049 69.3384C395.05 74.5231 399.638 77.4846 402.296 75.9531Z" fill="#DEE0FD"/>
<path d="M445.914 42.2681C431.155 42.5817 401.034 73.8578 387.819 89.4567H420.792C435.316 73.5966 460.674 41.9546 445.914 42.2681Z" fill="#3F99F2"/>
<path d="M411.394 80.7277C452.959 76.5253 442.52 128.007 432.106 154.274C459.488 194.9 418.555 215.562 364.352 200.152C296.599 180.89 359.437 85.9807 411.394 80.7277Z" fill="url(#paint7_linear_813_1487)"/>
<path d="M397.674 132.809C403.108 134.607 409.987 128.622 413.038 119.442C416.09 110.261 414.159 101.362 408.726 99.5642C403.292 97.7666 396.413 103.751 393.362 112.932C390.31 122.112 392.241 131.012 397.674 132.809Z" fill="white"/>
<path d="M399.718 132.711C402.42 133.606 405.842 130.629 407.36 126.062C408.878 121.496 407.917 117.069 405.215 116.175C402.512 115.28 399.09 118.257 397.572 122.824C396.054 127.39 397.015 131.817 399.718 132.711Z" fill="black"/>
<path d="M421.787 140.482C427.22 142.279 434.099 136.294 437.151 127.114C440.202 117.934 438.272 109.034 432.838 107.237C427.404 105.439 420.526 111.424 417.474 120.604C414.422 129.785 416.353 138.684 421.787 140.482Z" fill="white"/>
<path d="M422.42 140.667C425.123 141.562 428.544 138.585 430.062 134.018C431.58 129.452 430.62 125.025 427.917 124.131C425.214 123.236 421.792 126.213 420.274 130.78C418.756 135.346 419.717 139.773 422.42 140.667Z" fill="black"/>
<path d="M379.417 130.821C375.8 127.199 370.665 127.055 368.2 131.064" stroke="black" stroke-width="2.82203" stroke-linecap="round"/>
<path d="M373.14 132.497C369.331 154.889 387.681 176.021 427.194 164.891" stroke="black" stroke-width="2.82203" stroke-linecap="round"/>
<path d="M360.932 167.728C343.972 170.028 356.954 134.348 373.638 141.608C375.898 143.046 376.614 145.237 375.792 147.783C378.624 148.542 379.972 149.828 380.947 156.64C369.331 148.501 372.883 166.106 360.932 167.728Z" fill="#FF78B9"/>
<path fill-rule="evenodd" clip-rule="evenodd" d="M376.118 145.951C376.104 146.536 375.995 147.148 375.79 147.783C376.672 148.019 377.41 148.306 378.038 148.796C377.896 148.831 377.745 148.845 377.592 148.833C373.641 148.531 370.083 149.368 367.328 151.307C364.59 153.235 362.518 156.34 361.668 160.823C361.523 161.589 360.785 162.092 360.019 161.947C359.253 161.801 358.75 161.064 358.895 160.298C359.864 155.186 362.292 151.401 365.704 148.999C368.668 146.913 372.278 145.938 376.118 145.951Z" fill="#BD1176"/>
<path d="M432.552 96.4925C433.656 95.7814 433.346 93.342 431.858 91.0441C430.371 88.7462 428.27 87.4598 427.166 88.1709C426.062 88.882 426.373 91.3213 427.861 93.6193C429.348 95.9172 431.448 97.2036 432.552 96.4925Z" fill="#FF78B9"/>
<path d="M378.542 216.282C382.825 216.282 387.537 219.132 388.965 223.404" stroke="#1774D0" stroke-width="2.82203" stroke-linecap="round"/>
<path d="M429.658 215.142C425.375 215.142 420.663 217.991 419.235 222.264" stroke="#1774D0" stroke-width="2.82203" stroke-linecap="round"/>
<path d="M375.06 278.552C367.851 280.477 362.469 284.732 360.134 291.316" stroke="#1774D0" stroke-width="2.82203" stroke-linecap="round"/>
<path d="M374.449 279.199C368.788 284.05 365.785 290.212 366.541 297.156" stroke="#1774D0" stroke-width="2.82203" stroke-linecap="round"/>
<path d="M687.74 345.374L693.002 340.151H713.331L730.498 403.968L728.955 405.218L702.698 409.561L687.74 345.374Z" fill="#6B2F34"/>
<path d="M795.729 345.374L800.99 340.151H821.319L838.486 403.968L836.942 405.218L810.686 409.561L795.729 345.374Z" fill="#6B2F34"/>
<path d="M652.217 74.0623L657.479 68.8385H677.808L694.976 132.657L693.432 133.907L667.175 138.25L652.217 74.0623Z" fill="#6B2F34"/>
<path d="M716.578 74.0623L721.84 68.8385H742.169L759.336 132.657L757.792 133.907L731.536 138.25L716.578 74.0623Z" fill="#6B2F34"/>
<path d="M693.014 340.137H715.776L730.52 403.968H707.758L693.014 340.137Z" fill="#904E3F"/>
<path d="M801 340.137H823.762L838.505 403.968H815.744L801 340.137Z" fill="#904E3F"/>
<path d="M701.491 378.715L697.977 362.198L720.234 360.381L721.288 364.423L701.491 378.715Z" fill="#6B2F34"/>
<path d="M809.477 378.715L805.962 362.198L828.22 360.381L829.274 364.423L809.477 378.715Z" fill="#6B2F34"/>
<path d="M610.251 115.619L620.992 108.687H781.028L857.747 349.463L845.597 359.309H669.577L610.251 115.619Z" fill="#DEE0FD"/>
<path d="M657.492 68.8253H680.253L694.997 132.656H672.236L657.492 68.8253Z" fill="#904E3F"/>
<path d="M721.852 68.8253H744.614L759.358 132.656H736.596L721.852 68.8253Z" fill="#904E3F"/>
<path d="M621.066 108.687H800.251L857.917 349.464H678.733L621.066 108.687Z" fill="white"/>
<mask id="mask1_813_1487" style="mask-type:alpha" maskUnits="userSpaceOnUse" x="641" y="117" width="209" height="225">
<path d="M716.147 122.054C698.856 114.323 691.914 137.959 675.32 126.693C644.714 105.91 631.516 134.861 650.229 159.167C654.481 164.689 658.206 174.29 654.002 183.568C649.798 192.846 658.066 211.302 667.834 224.778C677.602 238.253 667.187 249.52 667.974 262.775C668.759 276.029 682.206 289.947 688.809 301.434C695.412 312.921 685.114 323.747 692.577 332.362C700.041 340.977 711.931 340.315 727.705 335.454C743.479 330.595 757.032 338.645 769.514 340.315C800.895 344.512 796.517 333.908 809.977 332.362C823.436 330.816 829.798 337.664 844.212 335.454C858.626 333.246 842.164 298.783 833.735 285.308C825.307 271.832 830.098 265.868 828.779 249.52C827.46 233.173 809.928 220.802 807.382 211.302C804.836 201.803 814.843 192.525 811.494 178.828C808.145 165.131 794.937 163.143 789.043 153.644C783.149 144.145 791.907 130.67 783.104 122.054C774.302 113.438 761.746 120.508 757.023 124.925C752.301 129.342 733.437 129.786 716.147 122.054Z" fill="#8CD9FF"/>
</mask>
<g mask="url(#mask1_813_1487)">
<path d="M716.146 122.054C698.856 114.323 691.914 137.959 675.32 126.693C644.713 105.91 631.515 134.861 650.228 159.167C654.48 164.689 658.205 174.29 654.001 183.568C649.798 192.846 658.065 211.302 667.833 224.778C677.601 238.253 667.187 249.52 667.973 262.775C668.759 276.029 682.206 289.947 688.808 301.434C695.412 312.921 685.113 323.747 692.577 332.362C700.04 340.977 711.93 340.315 727.704 335.454C743.479 330.595 757.031 338.645 769.514 340.315C800.895 344.512 796.516 333.908 809.976 332.362C823.435 330.816 829.797 337.664 844.211 335.454C858.625 333.246 842.163 298.783 833.735 285.308C825.306 271.832 830.097 265.868 828.778 249.52C827.46 233.173 809.927 220.802 807.382 211.302C804.835 201.803 814.842 192.525 811.493 178.828C808.145 165.131 794.937 163.143 789.042 153.644C783.149 144.145 791.907 130.67 783.104 122.054C774.302 113.438 761.746 120.508 757.023 124.925C752.3 129.342 733.437 129.786 716.146 122.054Z" fill="#91FFAD"/>
<path opacity="0.2" d="M752.033 246.983C776.21 246.983 791.154 227.944 785.412 204.459C779.669 180.973 755.415 161.935 731.237 161.935C707.06 161.935 692.116 180.973 697.858 204.459C703.601 227.944 727.855 246.983 752.033 246.983Z" fill="#29CC7A"/>
<path opacity="0.2" d="M758.082 271.721C796.324 271.721 819.962 241.607 810.879 204.46C801.796 167.312 763.431 137.198 725.189 137.198C686.947 137.198 663.309 167.312 672.392 204.46C681.475 241.607 719.84 271.721 758.082 271.721Z" fill="#29CC7A"/>
<path opacity="0.2" d="M767.63 310.769C828.073 310.769 865.434 263.172 851.078 204.458C836.721 145.745 776.084 98.1479 715.641 98.1479C655.198 98.1479 617.837 145.745 632.193 204.458C646.549 263.172 707.186 310.769 767.63 310.769Z" fill="#29CC7A"/>
<path d="M680.521 234.544C694.48 234.544 703.108 223.552 699.793 209.993C696.477 196.433 682.474 185.441 668.515 185.441C654.556 185.441 645.928 196.433 649.243 209.993C652.559 223.552 666.562 234.544 680.521 234.544Z" fill="#29CC7A"/>
<path d="M781.602 235.329C791.826 235.329 798.146 227.278 795.718 217.347C793.289 207.416 783.033 199.365 772.809 199.365C762.585 199.365 756.265 207.416 758.694 217.347C761.122 227.278 771.379 235.329 781.602 235.329Z" fill="#29CC7A"/>
<path d="M698.649 238.769C705.774 238.769 710.179 233.157 708.486 226.236C706.794 219.314 699.645 213.703 692.52 213.703C685.394 213.703 680.99 219.314 682.682 226.236C684.375 233.157 691.523 238.769 698.649 238.769Z" fill="#29CC7A"/>
<path d="M805.017 241.311C812.143 241.311 816.547 235.7 814.855 228.779C813.162 221.857 806.014 216.246 798.888 216.246C791.763 216.246 787.358 221.857 789.051 228.779C790.743 235.7 797.892 241.311 805.017 241.311Z" fill="#29CC7A"/>
<path d="M678.994 268.699C692.762 268.699 701.272 257.857 698.002 244.483C694.732 231.109 680.92 220.267 667.152 220.267C653.383 220.267 644.873 231.109 648.143 244.483C651.413 257.857 665.226 268.699 678.994 268.699Z" fill="#57F287"/>
<path d="M686.639 285.109C694.641 285.109 698.716 275.246 695.741 263.08C692.766 250.914 683.868 241.052 675.867 241.052C667.865 241.052 663.79 250.914 666.765 263.08C669.739 275.246 678.637 285.109 686.639 285.109Z" fill="#91FFAD"/>
<path d="M712.263 265.58C721.827 265.58 727.739 258.049 725.467 248.758C723.195 239.467 713.601 231.936 704.036 231.936C694.472 231.936 688.56 239.467 690.832 248.758C693.104 258.049 702.699 265.58 712.263 265.58Z" fill="#57F287"/>
<path d="M802.355 263.178C811.919 263.178 817.831 255.647 815.559 246.356C813.288 237.066 803.693 229.534 794.129 229.534C784.564 229.534 778.653 237.066 780.924 246.356C783.196 255.647 792.791 263.178 802.355 263.178Z" fill="#57F287"/>
<path d="M719.752 232.008C729.539 232.008 735.588 224.301 733.264 214.794C730.939 205.287 721.121 197.581 711.334 197.581C701.547 197.581 695.497 205.287 697.822 214.794C700.146 224.301 709.965 232.008 719.752 232.008Z" fill="#29CC7A"/>
<path d="M710.076 284.716C719.528 284.716 725.583 278.146 723.601 270.041C721.62 261.936 712.351 255.366 702.9 255.366C693.449 255.366 687.394 261.936 689.375 270.041C691.357 278.146 700.625 284.716 710.076 284.716Z" fill="#91FFAD"/>
<path d="M826.121 234.551C835.908 234.551 841.957 226.844 839.633 217.337C837.308 207.83 827.49 200.123 817.703 200.123C807.916 200.123 801.866 207.83 804.191 217.337C806.515 226.844 816.334 234.551 826.121 234.551Z" fill="#29CC7A"/>
<path d="M649.476 272.697H686.044H877.039L897.168 355.021H669.605L649.476 272.697Z" fill="url(#paint8_linear_813_1487)"/>
<path d="M831.93 272.299C841.494 272.299 846.223 259.932 842.493 244.676C838.763 229.421 827.986 217.054 818.422 217.054C808.857 217.054 804.128 229.421 807.858 244.676C811.588 259.932 822.365 272.299 831.93 272.299Z" fill="#57F287"/>
<path d="M806.478 278.747C815.93 278.747 821.985 272.177 820.003 264.072C818.021 255.967 808.753 249.397 799.302 249.397C789.851 249.397 783.795 255.967 785.777 264.072C787.759 272.177 797.027 278.747 806.478 278.747Z" fill="#91FFAD"/>
<path d="M840.378 283.265C853.473 283.265 861.862 274.162 859.117 262.933C856.371 251.704 843.53 242.601 830.435 242.601C817.34 242.601 808.951 251.704 811.697 262.933C814.442 274.162 827.283 283.265 840.378 283.265Z" fill="#91FFAD"/>
<path d="M706.147 258.04C706.53 246.307 715.488 238.153 727.997 238.153H756.845C769.353 238.153 782.299 246.307 788.419 258.04L810.027 299.464C818.933 316.537 809.796 333.32 791.593 333.32H739.787C721.585 333.32 704.24 316.537 704.796 299.464L706.147 258.04Z" fill="white"/>
<path d="M765.496 232.001H716.335C712.94 232.001 710.842 234.674 711.648 237.972L711.737 238.335C712.543 241.633 715.949 244.307 719.344 244.307H768.505C771.9 244.307 773.999 241.633 773.193 238.335L773.104 237.972C772.297 234.674 768.891 232.001 765.496 232.001Z" fill="#7399FC"/>
<path d="M720.24 233.347L722.916 244.294" stroke="#5A78EE" stroke-width="2.82203"/>
<path d="M734.786 233.347L737.462 244.294" stroke="#5A78EE" stroke-width="2.82203"/>
<path d="M749.332 233.347L752.008 244.294" stroke="#5A78EE" stroke-width="2.82203"/>
<path d="M763.877 233.347L766.554 244.294" stroke="#5A78EE" stroke-width="2.82203"/>
<path d="M694.671 226.526C696.863 226.526 697.781 223.007 696.719 218.666C695.658 214.325 693.02 210.806 690.827 210.806C688.634 210.806 687.717 214.325 688.778 218.666C689.84 223.007 692.478 226.526 694.671 226.526Z" fill="#5A78EE"/>
<path d="M690.827 210.806H700.029C704.794 213.426 707.19 224.522 703.872 226.526H694.671L690.827 210.806Z" fill="#5A78EE"/>
<path d="M726.537 172.624L725.876 169.922C723.3 159.388 730.004 150.849 740.847 150.849" stroke="black" stroke-width="2.82203"/>
<path d="M699.946 170.089C704.15 170.374 707.568 175.839 709.682 178.49L713.397 195.72C707.893 196.432 695.742 195.914 691.169 188.144C685.451 178.434 695.218 169.768 699.946 170.089Z" fill="white"/>
<path d="M751.769 170.089C747.705 170.374 746.96 175.839 746.142 178.49L750.853 195.72C756.705 196.432 768.603 195.914 769.377 188.144C770.344 178.434 756.34 169.768 751.769 170.089Z" fill="white"/>
<path fill-rule="evenodd" clip-rule="evenodd" d="M691.216 176.007L712.041 189.436L712.275 190.516L711.912 195.868C705.946 196.299 695.366 195.276 691.169 188.145C688.492 183.598 689.209 179.28 691.216 176.007Z" fill="#FDAFD6"/>
<path fill-rule="evenodd" clip-rule="evenodd" d="M763.395 176.007L749.135 189.435L749.431 190.515L752.411 195.867C758.588 196.298 768.667 195.275 769.378 188.144C769.831 183.597 767.002 179.279 763.395 176.007Z" fill="#FDAFD6"/>
<path d="M726.126 171.932C738.296 171.932 748.118 177.714 754.814 186.142C762.283 195.542 774.214 205.401 779.627 215.679C780.352 217.055 780.914 218.503 781.279 219.999C783.482 229.006 777.75 236.308 768.478 236.308H715.461C706.188 236.308 696.886 229.006 694.684 219.999C694.318 218.503 694.171 217.055 694.223 215.679C694.61 205.401 701.72 195.542 704.592 186.142C707.167 177.714 714.162 171.932 726.331 171.932H726.126Z" fill="white"/>
<path d="M742.051 204.135C740.738 203.487 740.405 200.867 741.309 198.283C742.213 195.699 744.011 194.13 745.325 194.778C746.638 195.425 746.97 198.045 746.066 200.629C745.162 203.213 743.365 204.782 742.051 204.135Z" fill="black"/>
<path d="M722.811 204.002C723.808 203.354 722.859 200.735 720.692 198.151C718.524 195.567 715.959 193.997 714.962 194.645C713.965 195.293 714.914 197.913 717.082 200.497C719.249 203.081 721.815 204.65 722.811 204.002Z" fill="black"/>
<path d="M738.639 217.43L730.792 220.271C731.237 222.089 732.943 225.739 736.21 225.784C739.477 225.829 739.19 220.234 738.639 217.43Z" fill="#FDAFD6"/>
<path d="M730.768 212.804H731.051C731.791 212.804 732.43 212.519 732.828 212.011C733.595 211.034 733.232 209.435 731.773 209.049C730.618 208.744 729.35 208.717 728.294 209.027C727.009 209.405 727.42 211.053 728.673 212.036C729.299 212.528 730.053 212.804 730.768 212.804Z" fill="black"/>
<path d="M719.661 169.714H731.712C733.41 169.714 735.113 171.051 735.516 172.7L735.566 172.903C735.969 174.552 734.92 175.889 733.222 175.889H721.171C719.473 175.889 717.77 174.552 717.367 172.903L717.317 172.7C716.914 171.051 717.963 169.714 719.661 169.714Z" fill="#7399FC"/>
<path d="M753.955 210.053L750.776 215.829" stroke="#FDAFD6" stroke-width="2.82203" stroke-linecap="round"/>
<path d="M716.022 210.803L722.026 216.579" stroke="#FDAFD6" stroke-width="2.82203" stroke-linecap="round"/>
<path d="M758.719 210.053L755.538 215.829" stroke="#FDAFD6" stroke-width="2.82203" stroke-linecap="round"/>
<path d="M711.218 210.803L717.223 216.579" stroke="#FDAFD6" stroke-width="2.82203" stroke-linecap="round"/>
<path d="M763.482 210.053L760.301 215.829" stroke="#FDAFD6" stroke-width="2.82203" stroke-linecap="round"/>
<path d="M706.414 210.803L712.418 216.579" stroke="#FDAFD6" stroke-width="2.82203" stroke-linecap="round"/>
<path d="M744.441 156.557C741.197 156.557 737.942 154.002 737.171 150.85C736.401 147.699 738.406 145.144 741.651 145.144C744.895 145.144 748.15 147.699 748.921 150.85C749.691 154.002 747.686 156.557 744.441 156.557Z" fill="#7399FC"/>
<path d="M779.739 210.806H770.538C767.053 213.426 770.083 224.522 774.381 226.526H783.583L779.739 210.806Z" fill="#5A78EE"/>
<path d="M783.583 226.526C781.39 226.526 778.752 223.007 777.69 218.666C776.629 214.325 777.546 210.806 779.739 210.806C781.932 210.806 784.57 214.325 785.631 218.666C786.693 223.007 785.775 226.526 783.583 226.526Z" fill="#7399FC"/>
<path d="M783.724 247.757C773.3 277.67 727.682 276.195 706.613 247.757C702.536 247.757 699.699 250.538 699.822 254.417L701.155 296.679C701.716 314.465 704.236 332.58 708.677 350.742L710.05 356.355H831.749L821.652 315.061L791.918 253.092C790.42 249.97 787.02 247.757 783.724 247.757Z" fill="black"/>
<path d="M794.085 275.222L795.716 279.475C803.96 300.973 791.427 320.098 769.095 320.098H758.476" stroke="url(#paint9_linear_813_1487)" stroke-width="25.3983" stroke-linecap="round"/>
<path d="M755.988 338.127C764.765 338.127 770.19 331.215 768.105 322.689C766.02 314.163 757.215 307.252 748.438 307.252C739.661 307.252 734.236 314.163 736.321 322.689C738.405 331.215 747.21 338.127 755.988 338.127Z" fill="#5A78EE"/>
<path d="M767.169 269.265C763.85 255.692 772.488 244.688 786.461 244.688C800.434 244.688 814.452 255.692 817.771 269.265L837.14 348.479H786.539L767.169 269.265Z" fill="#4D2327"/>
<path d="M790.797 254.684C780.742 254.684 774.526 262.602 776.914 272.37L790.49 327.891" stroke="black" stroke-width="2.82203" stroke-linecap="round"/>
<path d="M702.993 264.214L703.442 268.469C705.71 289.966 727.595 309.09 749.927 309.09H760.546" stroke="url(#paint10_linear_813_1487)" stroke-width="25.3983" stroke-linecap="round"/>
<path d="M767.981 324.877C776.758 324.877 782.183 317.965 780.099 309.439C778.014 300.913 769.209 294.002 760.432 294.002C751.655 294.002 746.23 300.913 748.314 309.439C750.399 317.965 759.204 324.877 767.981 324.877Z" fill="#7399FC"/>
<mask id="mask2_813_1487" style="mask-type:alpha" maskUnits="userSpaceOnUse" x="690" y="251" width="84" height="71">
<path d="M702.994 264.217L703.443 268.471C705.712 289.969 727.597 309.093 749.928 309.093H760.548" stroke="url(#paint11_linear_813_1487)" stroke-width="25.3983" stroke-linecap="round"/>
</mask>
<g mask="url(#mask2_813_1487)">
<path d="M692.57 269.766L714.695 271.055" stroke="#DAD7CB" stroke-width="2.82203" stroke-linecap="square"/>
<path d="M698.71 287.398L718.508 282.913" stroke="#DAD7CB" stroke-width="2.82203" stroke-linecap="square"/>
<path d="M713.011 306.142L727.729 292.286" stroke="#DAD7CB" stroke-width="2.82203" stroke-linecap="square"/>
<path d="M740.685 321.134L741.9 296.878" stroke="#DAD7CB" stroke-width="2.82203" stroke-linecap="square"/>
</g>
</g>
<path d="M692.04 356.373L701.295 350.37L846.608 349.465V363.12H692.04V356.373Z" fill="#6B2F34"/>
<path d="M702.835 356.212L701.056 350.07L690.506 357.134L692.053 363.085L702.835 356.212Z" fill="#6B2F34"/>
<path d="M700.994 350.131L857.42 349.485V356.232H702.852L700.994 350.131Z" fill="#904E3F"/>
<path d="M197.974 381.649L205.542 386.534H318.306L372.363 216.88L363.802 209.942H239.776L197.974 381.649Z" fill="#DEE0FD"/>
<path d="M205.593 386.534H331.848L372.48 216.879H246.225L205.593 386.534Z" fill="white"/>
<path d="M268.522 209.742L272.865 205.473L302.561 416.553H297.221L268.522 209.742Z" fill="#6B2F34"/>
<path d="M192.984 449.074H211.488L341.755 206.562L328.889 204.015L322.536 205.967L192.984 449.074Z" fill="#6B2F34"/>
<path d="M198.726 449.073H217.23L345.971 206.705L329.574 204.112L198.726 449.073Z" fill="#904E3F"/>
<path d="M325.872 452.027H307.369L272.821 205.476H291.325L325.872 452.027Z" fill="#904E3F"/>
<path d="M1032.54 305.901L1018.17 283.632L1041.66 295.914C1045.18 297.751 1046.46 302.139 1044.49 305.58C1041.89 310.13 1035.39 310.305 1032.54 305.901Z" stroke="#6B2F34" stroke-width="7.52542"/>
<path d="M1043.81 280.234L1018.22 287.094L1037.11 268.499C1039.93 265.717 1044.5 265.84 1047.17 268.768C1050.71 272.639 1048.88 278.877 1043.81 280.234Z" stroke="#6B2F34" stroke-width="7.52542"/>
<path fill-rule="evenodd" clip-rule="evenodd" d="M1020.1 293.526L1019.65 292.827L1019.1 290.875L1032.78 287.041L1036.43 288.948L1020.1 293.526Z" fill="black"/>
<path d="M812.043 230.04C801.031 226.983 789.624 233.432 786.567 244.446C783.51 255.459 789.96 266.865 800.972 269.922L812.043 230.04ZM908.978 210.043L891.35 223.729L916.731 256.423L934.36 242.737L908.978 210.043ZM831.686 235.493L812.043 230.04L800.972 269.922L820.615 275.374L831.686 235.493ZM891.35 223.729C874.438 236.857 852.316 241.22 831.686 235.493L820.615 275.374C853.848 284.6 889.486 277.573 916.731 256.423L891.35 223.729Z" fill="#5865F2"/>
<path d="M841.539 201.841C843.885 199.483 847.711 199.517 850.015 201.914C852.322 204.316 852.198 208.147 849.739 210.395L778.083 275.892L773.339 270.396L841.539 201.841Z" fill="#6B2F34"/>
<path d="M753.439 274.804C769.221 286.819 792.534 276.119 781.3 266.333C773.895 259.881 768.458 278.775 753.439 274.804Z" fill="#FFF2A6"/>
<path d="M805.327 241.825L805.327 241.825C803.661 245.686 805.44 250.167 809.302 251.833L831.137 261.254C834.999 262.92 839.48 261.141 841.146 257.279L841.146 257.279C842.812 253.418 841.032 248.936 837.171 247.27L815.336 237.849C811.474 236.183 806.993 237.963 805.327 241.825Z" fill="#5865F2"/>
<path d="M826.253 242.562L815.336 237.851C811.473 236.185 806.993 237.964 805.327 241.826C803.66 245.687 805.44 250.169 809.302 251.835L820.22 256.546" stroke="black" stroke-width="2.82203" stroke-linecap="round"/>
<path d="M937.564 443.968C937.564 455.398 928.298 464.663 916.869 464.663C905.44 464.663 896.174 455.398 896.174 443.968H937.564ZM947.78 344.948L938.421 403.252L897.555 396.69L906.916 338.385L947.78 344.948ZM937.564 413.992V443.968H896.174V413.992H937.564ZM938.421 403.252C937.851 406.803 937.564 410.395 937.564 413.992H896.174C896.174 408.197 896.636 402.411 897.555 396.69L938.421 403.252Z" fill="#3946DC"/>
<path d="M1022.3 437.337C1025.78 448.225 1019.77 459.87 1008.88 463.346C997.993 466.823 986.347 460.814 982.876 449.926L1022.3 437.337ZM1012.82 336.801L1008.99 377.924L967.779 374.092L971.607 332.971L1012.82 336.801ZM1011.92 404.799L1022.3 437.337L982.876 449.926L972.482 417.387L1011.92 404.799ZM1008.99 377.924C1008.15 386.987 1009.14 396.128 1011.92 404.799L972.482 417.387C968.023 403.418 966.424 388.694 967.779 374.092L1008.99 377.924Z" fill="#3643DA"/>
<path d="M899.52 202.484H977.844C994.908 202.484 1009.46 214.86 1012.2 231.707L1025.15 311.427C1028.58 332.584 1012.25 351.786 990.816 351.786H913.634C891.882 351.786 875.466 332.043 879.437 310.656L899.52 202.484Z" fill="#567DFC"/>
<path d="M899.52 202.484H977.844C994.908 202.484 1009.46 214.86 1012.2 231.707L1025.15 311.427C1028.58 332.584 1012.25 351.786 990.816 351.786H913.634C891.882 351.786 875.466 332.043 879.437 310.656L899.52 202.484Z" fill="url(#paint12_linear_813_1487)"/>
<path d="M897.792 214.674C904.938 226.182 918.438 238.548 944.817 237.538C955.39 237.134 961.42 237.636 970.968 234.842C977.28 232.994 971.909 217.252 977.412 214.674C984.363 211.424 985.078 212.673 998.868 211.531C982.454 197.878 964.214 201.434 897.792 214.674Z" fill="#3442D9"/>
<path fill-rule="evenodd" clip-rule="evenodd" d="M972.896 236.696C972.896 223.838 983.319 213.415 996.178 213.415H1003.18C998.257 208.209 991.776 204.548 984.551 203.134C970.648 207.949 960.667 221.157 960.667 236.696H972.896Z" fill="#6B2F34"/>
<path d="M1012.78 236.113L1017.27 262.678C1009.04 274.181 1001.9 279.772 983.319 288.108L1012.78 236.113Z" fill="#3442D9"/>
<path d="M895.829 248.044L899.769 226.863C901.879 215.524 911.773 207.3 923.308 207.3" stroke="#6B2F34" stroke-width="12.2288"/>
<path d="M1014.42 190.402H1021.62V194.791C1021.62 196.782 1020.01 198.394 1018.02 198.394C1016.04 198.394 1014.42 196.782 1014.42 194.791V190.402Z" fill="#375CE9"/>
<path d="M1014.42 149.787H1035.69C1037.11 149.787 1038.25 150.934 1038.25 152.35V181.7C1038.25 183.116 1037.11 184.264 1035.69 184.264H1014.42V149.787Z" fill="#B9CEFD"/>
<path d="M983.94 279.837H1021.2C1022.24 279.837 1023.08 280.679 1023.08 281.718V291.553C1023.08 292.592 1022.24 293.434 1021.2 293.434H983.94V279.837Z" fill="#6B2F34"/>
<path d="M892.371 234.964H975.643L1003.29 385.479C965.061 420.139 898.101 412.801 864.276 384.975L892.371 234.964Z" fill="#6B2F34"/>
<path d="M898.754 248.041C901.344 248.041 903.444 245.941 903.444 243.351C903.444 240.761 901.344 238.662 898.754 238.662C896.164 238.662 894.064 240.761 894.064 243.351C894.064 245.941 896.164 248.041 898.754 248.041Z" fill="#FFC619"/>
<path d="M981.08 359.159C981.099 360.712 979.838 361.978 978.286 361.961C976.734 361.944 975.492 360.645 975.558 359.09L977.11 319.651L980.497 319.848L981.08 359.159Z" fill="black"/>
<path d="M969.444 360.007C969.472 361.56 968.202 362.827 966.65 362.81C965.098 362.792 963.865 361.494 963.922 359.939L965.474 320.499L968.87 320.696L969.444 360.007Z" fill="black"/>
<path d="M949.078 332.862H989.245V373.39C989.245 375.866 987.825 378.12 985.586 379.181L972.604 385.333C970.93 386.127 968.992 386.157 967.29 385.413L952.916 379.124C950.583 378.104 949.078 375.799 949.078 373.253V332.862Z" fill="#904E3F"/>
<path d="M987.665 309.992C976.001 311.679 970.836 326.012 979.66 325.326C985.473 324.872 979.735 314.703 987.665 309.992Z" fill="#FFF2A6"/>
<path d="M968.023 309.83C968.023 309.83 956.02 326.774 968.023 326.175C975.68 325.793 968.023 309.83 968.023 309.83Z" fill="#FFF2A6"/>
<path d="M948.457 340.972H989.245" stroke="#6B2F34" stroke-width="2.82203"/>
<path d="M992.274 237.514L979.641 256.707C965.747 277.827 946.115 294.536 923.039 304.867L914.027 308.903" stroke="#5562F0" stroke-width="41.3898" stroke-linecap="round"/>
<path d="M872.786 313.479C904.553 311.609 929.865 302.604 929.321 293.366C928.777 284.129 902.583 278.157 870.817 280.027C839.05 281.898 813.738 290.903 814.282 300.141C814.826 309.378 841.019 315.35 872.786 313.479Z" fill="#FFF2A6"/>
<path d="M858.197 307.155C863.565 307.155 867.916 305.329 867.916 303.076C867.916 300.824 863.565 298.997 858.197 298.997C852.828 298.997 848.477 300.824 848.477 303.076C848.477 305.329 852.828 307.155 858.197 307.155Z" fill="#ED5F00"/>
<path d="M837.959 298.677C843.159 297.347 846.923 294.5 846.365 292.318C845.807 290.136 841.139 289.444 835.938 290.774C830.737 292.104 826.973 294.951 827.531 297.133C828.089 299.315 832.758 300.007 837.959 298.677Z" fill="#EB459F"/>
<path d="M867.701 293.846C873.062 294.131 877.504 292.538 877.624 290.289C877.743 288.039 873.495 285.985 868.134 285.7C862.773 285.415 858.331 287.008 858.211 289.257C858.092 291.507 862.34 293.561 867.701 293.846Z" fill="#29CC7A"/>
<path fill-rule="evenodd" clip-rule="evenodd" d="M907.028 280.314C903.482 278.053 898.774 279.097 896.513 282.643C894.253 286.189 895.296 290.897 898.842 293.157L905.557 297.437L912.062 292.553L916.154 286.131L907.028 280.314Z" fill="#567DFC"/>
<path d="M916.201 285.631C915.417 294.044 908.896 296.785 901.656 296.785" stroke="black" stroke-width="2.82203" stroke-linecap="round"/>
<path fill-rule="evenodd" clip-rule="evenodd" d="M859.054 135.146C854.967 142.777 855.847 152.585 857.609 172.203C859.345 191.532 860.213 201.197 865.544 207.955C867.825 210.846 870.805 213.402 874.009 215.215C881.501 219.455 890.91 218.858 909.728 217.664C927.308 216.548 943.463 215.108 960.875 213.093C973.386 211.645 981.73 210.68 987.872 208.555L1023.32 199.755C1033.14 197.319 1039.71 188.09 1038.81 178.016L1034.85 133.977C1033.95 123.947 1025.9 116.055 1015.86 115.353L979.284 112.8C972.727 111.794 964.111 112.422 951.12 113.368C934.272 114.596 918.606 116.026 901.666 117.858C882.449 119.936 872.841 120.974 866.161 126.478C863.285 128.848 860.814 131.862 859.054 135.146Z" fill="#5865F2"/>
<path d="M891.212 155.878C890.831 151.648 893.951 147.911 898.181 147.531C899.613 147.403 901.179 147.262 902.82 147.114L944.817 143.343C946.463 143.195 948.025 143.054 949.464 142.926C953.688 142.546 957.422 145.667 957.808 149.898L959.887 173.109C960.809 183.297 953.283 192.298 943.096 193.212L913.398 195.88C903.211 196.794 894.21 189.277 893.296 179.09L891.212 155.878Z" fill="#808AFF"/>
<path d="M878.874 156.103C882.129 155.811 884.496 152.537 884.159 148.792C883.823 145.047 880.911 142.248 877.656 142.54C874.4 142.833 872.033 146.106 872.37 149.851C872.706 153.596 875.618 156.395 878.874 156.103Z" fill="black"/>
<path d="M967.231 148.166C970.487 147.874 972.853 144.6 972.517 140.855C972.181 137.11 969.269 134.311 966.013 134.603C962.757 134.896 960.391 138.169 960.727 141.914C961.064 145.659 963.975 148.458 967.231 148.166Z" fill="black"/>
<path d="M913.552 176.745L904.355 177.572C902.426 177.745 901.003 179.449 901.176 181.377C901.35 183.306 903.053 184.729 904.982 184.556L914.18 183.729C916.108 183.556 917.531 181.852 917.358 179.924C917.185 177.995 915.481 176.572 913.552 176.745Z" fill="#5865F2"/>
<path d="M937.366 174.605L928.168 175.432C926.24 175.605 924.817 177.309 924.99 179.237L924.99 179.237C925.163 181.166 926.867 182.589 928.795 182.416L937.993 181.589C939.922 181.416 941.345 179.712 941.171 177.784C940.998 175.855 939.294 174.432 937.366 174.605Z" fill="#5865F2"/>
<path d="M970.027 184.149C970.752 185.284 971.288 186.544 971.589 187.907C973.188 195.079 967.779 202.388 959.511 204.231C953.095 205.662 946.84 203.38 943.613 198.933C945.071 198.775 946.539 198.534 948.006 198.207C957.385 196.115 965.127 190.888 970.027 184.149Z" fill="black"/>
<path fill-rule="evenodd" clip-rule="evenodd" d="M971.843 189.724C972.247 196.274 967.083 202.54 959.52 204.228C959.228 204.292 958.946 204.348 958.654 204.397C958.814 198.812 963.602 192.927 970.874 190.083C971.194 189.956 971.523 189.836 971.843 189.724Z" fill="#FD7AB9"/>
<path d="M966.641 179.018C969.914 178.555 973.78 179.502 976.189 181.769" stroke="black" stroke-width="2.82203" stroke-linecap="round"/>
<path d="M987.223 90.4006C951.618 68.352 917.081 98.3971 945.203 113.904L971.156 112.345C993.328 118.204 997.26 138.4 1013.87 124.922C1031.01 111.012 1014.2 76.6271 987.223 90.4006Z" fill="black"/>
<path d="M994.626 69.4926C987.222 78.4838 984.664 84.3096 982.086 95.6408L983.3 96.8749C988.878 86.4834 993.478 81.598 1004.78 75.0506L994.626 69.4926Z" fill="black"/>
<path d="M952.778 106.428L936.548 107.885C934.821 108.04 933.547 109.566 933.702 111.293L933.746 111.785C933.901 113.511 935.427 114.786 937.154 114.631L953.384 113.173C955.111 113.018 956.385 111.492 956.23 109.765L956.186 109.274C956.031 107.547 954.505 106.273 952.778 106.428Z" fill="black"/>
<path d="M1007.6 132.602C1007.48 131.475 1008.31 130.473 1009.44 130.363L1024.01 128.946C1033.12 128.062 1041.21 134.722 1042.09 143.823L1044.69 170.526C1045.57 179.627 1038.91 187.721 1029.82 188.606L1015.24 190.023C1014.11 190.132 1013.11 189.307 1013 188.18L1007.6 132.602Z" fill="#5865F2"/>
<path d="M1008.47 141.605L1020.35 140.45C1026.56 139.847 1032.08 144.388 1032.69 150.593L1034.15 165.694C1034.76 171.899 1030.21 177.418 1024 178.021L1012.12 179.176L1008.47 141.605Z" fill="#808AFF"/>
<path d="M1015.24 190.023L1029.82 188.606C1038.91 187.721 1045.57 179.627 1044.69 170.526L1042.09 143.823C1041.21 134.722 1033.12 128.062 1024.01 128.946L1009.44 130.363" stroke="black" stroke-width="2.82203" stroke-linecap="round"/>
<path fill-rule="evenodd" clip-rule="evenodd" d="M1012.49 233.517L1013.83 241.714C1012.43 246.414 1010.27 250.869 1008.11 254.633C1006.08 258.138 1004.01 261.105 1002.45 263.195C1001.66 264.242 1001 265.071 1000.54 265.641C1000.31 265.926 1000.13 266.146 999.997 266.296C999.941 266.372 999.894 266.429 999.856 266.468L999.819 266.515L999.809 266.527L999.8 266.531V266.531C999.8 266.531 999.8 266.532 998.737 265.606L999.8 266.532C999.292 267.12 998.398 267.181 997.806 266.67C997.222 266.158 997.157 265.267 997.674 264.679V264.677L997.683 264.669L997.712 264.631C997.74 264.597 997.787 264.546 997.843 264.477C997.966 264.338 998.135 264.131 998.351 263.859C998.793 263.315 999.433 262.518 1000.19 261.505C1001.7 259.479 1003.7 256.607 1005.66 253.223C1008.98 247.454 1012.07 240.371 1012.49 233.517Z" fill="black"/>
<path d="M1059.91 81.5074C1060.21 80.1446 1062.16 80.1446 1062.45 81.5074L1064.73 92.0666C1065.7 96.5565 1068.7 100.347 1072.83 102.342L1074.41 103.105C1075.39 103.578 1075.39 104.97 1074.41 105.441L1072.83 106.205C1068.7 108.2 1065.7 111.991 1064.73 116.481L1062.45 127.04C1062.16 128.402 1060.21 128.402 1059.91 127.04L1057.63 116.481C1056.65 111.991 1053.67 108.2 1049.53 106.205L1047.94 105.441C1046.97 104.97 1046.97 103.578 1047.94 103.105L1049.53 102.342C1053.67 100.347 1056.65 96.5565 1057.63 92.0666L1059.91 81.5074Z" fill="#FFC619"/>
<path d="M819.895 44.2967C820.026 43.6917 820.889 43.6917 821.02 44.2967L822.035 48.9839C822.466 50.9768 823.792 52.6596 825.628 53.5451L826.332 53.8841C826.766 54.0934 826.766 54.7116 826.332 54.9209L825.628 55.2598C823.792 56.1454 822.466 57.8281 822.035 59.8211L821.02 64.5083C820.889 65.1132 820.026 65.1132 819.895 64.5083L818.881 59.8211C818.449 57.8281 817.123 56.1454 815.287 55.2598L814.583 54.9209C814.149 54.7116 814.149 54.0934 814.583 53.8841L815.287 53.5451C817.123 52.6596 818.449 50.9768 818.881 48.9839L819.895 44.2967Z" fill="#FFC619"/>
<path d="M75.6797 97.8003C75.9247 96.6686 77.5392 96.6686 77.7842 97.8003L79.6823 106.57C80.4893 110.298 82.9703 113.447 86.4068 115.103L87.7225 115.738C88.5346 116.129 88.5346 117.285 87.7225 117.678L86.4068 118.312C82.9703 119.968 80.4893 123.117 79.6823 126.846L77.7842 135.615C77.5392 136.746 75.9247 136.746 75.6797 135.615L73.7816 126.846C72.9745 123.117 70.4936 119.968 67.0571 118.312L65.7414 117.678C64.9293 117.285 64.9293 116.129 65.7414 115.738L67.0571 115.103C70.4936 113.447 72.9745 110.298 73.7816 106.57L75.6797 97.8003Z" fill="#FFE75C"/>
<path d="M251.12 46.508C251.253 45.8962 252.126 45.8962 252.258 46.508L253.284 51.2482C253.72 53.2637 255.062 54.9655 256.919 55.8611L257.63 56.2038C258.069 56.4155 258.069 57.0407 257.63 57.2523L256.919 57.5952C255.062 58.4906 253.72 60.1925 253.284 62.208L252.258 66.9482C252.126 67.56 251.253 67.56 251.12 66.9482L250.094 62.208C249.659 60.1925 248.317 58.4906 246.459 57.5952L245.748 57.2523C245.31 57.0407 245.31 56.4155 245.748 56.2038L246.459 55.8611C248.317 54.9655 249.659 53.2637 250.094 51.2482L251.12 46.508Z" fill="#FFE75C"/>
<path opacity="0.3" d="M256.766 135.634C257.043 134.35 258.874 134.35 259.152 135.634L261.304 145.577C262.219 149.806 265.032 153.375 268.929 155.254L270.421 155.973C271.341 156.417 271.341 157.728 270.421 158.172L268.929 158.892C265.032 160.77 262.219 164.34 261.304 168.567L259.152 178.511C258.874 179.794 257.043 179.794 256.766 178.511L254.613 168.567C253.698 164.34 250.885 160.77 246.988 158.892L245.496 158.172C244.575 157.728 244.575 156.417 245.496 155.973L246.988 155.254C250.885 153.375 253.698 149.806 254.613 145.577L256.766 135.634Z" fill="#FFE75C"/>
</g>
</g>
<defs>
<linearGradient id="paint0_linear_813_1487" x1="793.045" y1="205.012" x2="279.606" y2="218.981" gradientUnits="userSpaceOnUse">
<stop stop-color="#FFE75C"/>
<stop offset="1" stop-color="#FFC619"/>
</linearGradient>
<linearGradient id="paint1_linear_813_1487" x1="793.045" y1="205.012" x2="279.606" y2="218.981" gradientUnits="userSpaceOnUse">
<stop stop-color="#FFE75C"/>
<stop offset="1" stop-color="#FFC619"/>
</linearGradient>
<linearGradient id="paint2_linear_813_1487" x1="102.35" y1="306.587" x2="208.234" y2="327.407" gradientUnits="userSpaceOnUse">
<stop stop-color="#EAE9E1"/>
<stop offset="1" stop-color="white"/>
</linearGradient>
<linearGradient id="paint3_linear_813_1487" x1="364.023" y1="200.07" x2="352.88" y2="452.251" gradientUnits="userSpaceOnUse">
<stop stop-color="#3F99F2"/>
<stop offset="1" stop-color="#66BCFF"/>
</linearGradient>
<linearGradient id="paint4_linear_813_1487" x1="360.141" y1="157.027" x2="383.375" y2="301.644" gradientUnits="userSpaceOnUse">
<stop stop-color="#66BCFF"/>
<stop offset="1" stop-color="#3F99F2"/>
</linearGradient>
<linearGradient id="paint5_linear_813_1487" x1="400.69" y1="193.777" x2="411.192" y2="230.862" gradientUnits="userSpaceOnUse">
<stop stop-color="#1774D0"/>
<stop offset="1" stop-color="#3F99F2"/>
</linearGradient>
<linearGradient id="paint6_linear_813_1487" x1="386.295" y1="302.984" x2="290.986" y2="255.215" gradientUnits="userSpaceOnUse">
<stop stop-color="#66BCFF"/>
<stop offset="1" stop-color="#3F99F2"/>
</linearGradient>
<linearGradient id="paint7_linear_813_1487" x1="410.428" y1="104.953" x2="388.211" y2="250.233" gradientUnits="userSpaceOnUse">
<stop stop-color="#EB45A0"/>
<stop offset="1" stop-color="#D11583"/>
</linearGradient>
<linearGradient id="paint8_linear_813_1487" x1="763.257" y1="272.697" x2="763.257" y2="355.021" gradientUnits="userSpaceOnUse">
<stop stop-color="#904E3F"/>
<stop offset="1" stop-color="#6B2F34"/>
</linearGradient>
<linearGradient id="paint9_linear_813_1487" x1="760.658" y1="329.016" x2="773.882" y2="314.22" gradientUnits="userSpaceOnUse">
<stop stop-color="#EAE9E1"/>
<stop offset="1" stop-color="white"/>
</linearGradient>
<linearGradient id="paint10_linear_813_1487" x1="703.714" y1="284.936" x2="761.698" y2="270.957" gradientUnits="userSpaceOnUse">
<stop stop-color="#EAE9E1"/>
<stop offset="1" stop-color="white"/>
</linearGradient>
<linearGradient id="paint11_linear_813_1487" x1="703.715" y1="284.939" x2="761.699" y2="270.96" gradientUnits="userSpaceOnUse">
<stop stop-color="#EAE9E1"/>
<stop offset="1" stop-color="white"/>
</linearGradient>
<linearGradient id="paint12_linear_813_1487" x1="951.75" y1="202.484" x2="951.75" y2="351.786" gradientUnits="userSpaceOnUse">
<stop stop-color="#5865F2"/>
<stop offset="1" stop-color="#3442D9"/>
</linearGradient>
<clipPath id="clip0_813_1487">
<rect width="1110" height="376.271" fill="white"/>
</clipPath>
</defs>
</svg>
