<svg width="22" height="22" viewBox="0 0 22 22" fill="none" xmlns="http://www.w3.org/2000/svg">
<path d="M16.0419 9.80834V5.775C16.0419 2.99503 13.7792 0.733337 11.0002 0.733337C8.21924 0.733337 5.95856 2.99503 5.95856 5.775V9.80834C4.84637 9.80834 3.94189 10.7118 3.94189 11.825V18.8833C3.94189 19.9955 4.84637 20.9 5.95856 20.9H16.0419C17.1541 20.9 18.0586 19.9955 18.0586 18.8833V11.825C18.0586 10.7118 17.1541 9.80834 16.0419 9.80834ZM11.0002 16.8667C10.1653 16.8667 9.48773 16.1891 9.48773 15.3542C9.48773 14.5193 10.1653 13.8417 11.0002 13.8417C11.8351 13.8417 12.5127 14.5193 12.5127 15.3542C12.5127 16.1891 11.8351 16.8667 11.0002 16.8667ZM14.0252 9.80834H7.97523V5.775C7.97523 4.10722 9.33244 2.75 11.0002 2.75C12.668 2.75 14.0252 4.10722 14.0252 5.775V9.80834Z" fill="#979AA1"/>
</svg>
