<svg width="22" height="22" viewBox="0 0 22 22" fill="none" xmlns="http://www.w3.org/2000/svg">
<path d="M16.0419 9.80831V5.77497C16.0419 2.995 13.7792 0.733307 11.0002 0.733307C8.21924 0.733307 5.95856 2.995 5.95856 5.77497V9.80831C4.84637 9.80831 3.94189 10.7118 3.94189 11.825V18.8833C3.94189 19.9955 4.84637 20.9 5.95856 20.9H16.0419C17.1541 20.9 18.0586 19.9955 18.0586 18.8833V11.825C18.0586 10.7118 17.1541 9.80831 16.0419 9.80831ZM11.0002 16.8666C10.1653 16.8666 9.48773 16.189 9.48773 15.3541C9.48773 14.5192 10.1653 13.8416 11.0002 13.8416C11.8351 13.8416 12.5127 14.5192 12.5127 15.3541C12.5127 16.189 11.8351 16.8666 11.0002 16.8666ZM14.0252 9.80831H7.97523V5.77497C7.97523 4.10719 9.33244 2.74997 11.0002 2.74997C12.668 2.74997 14.0252 4.10719 14.0252 5.77497V9.80831Z" fill="#8A8E93"/>
</svg>
