<svg width="39" height="39" viewBox="0 0 39 39" fill="none" xmlns="http://www.w3.org/2000/svg">
<path fill-rule="evenodd" clip-rule="evenodd" d="M13.1024 28.3759H5.22251C4.52701 28.3759 3.85999 28.0995 3.36818 27.6078C2.87639 27.116 2.6001 26.449 2.6001 25.7534V16.1379C2.6001 12.8922 3.88944 9.77947 6.1845 7.48443C8.47956 5.18937 11.5923 3.90002 14.838 3.90002C18.0837 3.90002 21.1965 5.18937 23.4916 7.48443C24.5264 8.51931 25.3568 9.72049 25.9567 11.0251C28.6566 11.4254 31.1577 12.7194 33.049 14.7172C35.2008 16.9901 36.4001 20.001 36.4001 23.1311V32.7465C36.4001 33.4421 36.1239 34.1091 35.632 34.6009C35.1402 35.0926 34.4732 35.369 33.7778 35.369H24.1622C21.6312 35.369 19.1625 34.5845 17.0958 33.1236C15.3734 31.9062 14.0008 30.2687 13.1024 28.3759ZM8.65695 9.95685C10.2963 8.31754 12.5197 7.39658 14.838 7.39658C17.1564 7.39658 19.3798 8.31754 21.0192 9.95687C22.6584 11.5962 23.5794 13.8196 23.5794 16.138C23.5794 18.4563 22.6584 20.6798 21.0192 22.3191C19.3798 23.9583 17.1564 24.8794 14.838 24.8794H14.2836C14.2742 24.8792 14.2649 24.8792 14.2555 24.8794H6.09665V16.1379C6.09665 13.8196 7.01761 11.5962 8.65695 9.95685ZM17.0236 28.1792C17.5936 28.9844 18.299 29.6923 19.1141 30.2683C20.5905 31.3121 22.3542 31.8725 24.1622 31.8725H32.9035V23.1311C32.9035 20.8953 32.0468 18.7446 30.5099 17.1211C29.5336 16.09 28.3301 15.3213 27.0098 14.8663C27.0538 15.2868 27.076 15.7112 27.076 16.138C27.076 19.3836 25.7866 22.4965 23.4916 24.7915C21.7185 26.5646 19.4571 27.7374 17.0236 28.1792Z" fill="#8A8E93"/>
</svg>
