<svg width="39" height="39" viewBox="0 0 39 39" fill="none" xmlns="http://www.w3.org/2000/svg">
<path d="M28.944 14.3829L28.3583 17.643H25.1092L25.6948 14.3829L15.9419 14.3825L14.2194 23.971H17.8099V27.1672H13.6499L12.6152 32.9002C12.5463 33.2817 12.2091 33.5596 11.8152 33.5596H10.2155C9.71001 33.5596 9.32721 33.1105 9.41556 32.6209L10.3999 27.1672H4.86693C4.36217 27.1672 3.97958 26.7194 4.06658 26.2304L4.35096 24.6323C4.41899 24.2501 4.7566 23.971 5.1513 23.971H10.9686L12.6911 14.3825H7.15817C6.65342 14.3825 6.27083 13.9347 6.35783 13.4457L6.6422 11.8476C6.71024 11.4653 7.04785 11.1863 7.44255 11.1863H13.2599L14.2946 5.45332C14.3635 5.07186 14.7007 4.79391 15.0946 4.79391H16.6942C17.1997 4.79391 17.5825 5.24309 17.4941 5.73262L16.5099 11.1863L26.2627 11.1867L27.2975 5.45373C27.3663 5.07226 27.7035 4.79432 28.0975 4.79432H29.6971C30.2025 4.79432 30.5854 5.2435 30.497 5.73303L29.5127 11.1867H35.0457C35.5505 11.1867 35.933 11.6345 35.846 12.1235L35.5617 13.7216C35.4936 14.1039 35.156 14.3829 34.7613 14.3829H28.944Z" fill="#8A8E93"/>
<path d="M22.4938 20.7113C21.6322 20.7113 20.9338 21.3982 20.9338 22.2455V32.3156C20.9338 33.1629 21.6322 33.8498 22.4938 33.8498H24.0538C24.2693 33.8498 24.4438 34.0214 24.4438 34.2333V37.4909C24.4438 37.8233 24.8445 37.9984 25.0952 37.7755L29.0684 34.2455C29.355 33.9907 29.7278 33.8498 30.1142 33.8498H37.3138C38.1754 33.8498 38.8738 33.1629 38.8738 32.3156V22.2455C38.8738 21.3982 38.1754 20.7113 37.3138 20.7113H22.4938Z" fill="#8A8E93"/>
</svg>
