<svg width="39" height="39" viewBox="0 0 39 39" fill="none" xmlns="http://www.w3.org/2000/svg">
<path d="M9.8054 33.9086C9.29986 33.9086 8.91706 33.4503 9.00541 32.9509L9.98974 27.3867H4.45677C3.95201 27.3867 3.56942 26.9298 3.65642 26.4309L3.9408 24.8004C4.00884 24.4104 4.34645 24.1257 4.74114 24.1257H10.5585L12.281 14.3428H6.74802C6.24326 14.3428 5.86067 13.8858 5.94767 13.387L6.23205 11.7565C6.30009 11.3664 6.6377 11.0818 7.0324 11.0818H12.8497L13.8845 5.23259C13.9533 4.84337 14.2905 4.55981 14.6845 4.55981H16.2841C16.7895 4.55981 17.1724 5.0181 17.084 5.51753L16.0997 11.0818H25.8497L26.8845 5.23259C26.9533 4.84337 27.2905 4.55981 27.6845 4.55981H29.284C29.7895 4.55981 30.1724 5.0181 30.084 5.51753L29.0997 11.0818H34.6327C35.1374 11.0818 35.5201 11.5387 35.433 12.0376L35.1486 13.668C35.0807 14.0581 34.743 14.3428 34.3483 14.3428H28.531L26.8085 24.1257H32.3414C32.8462 24.1257 33.2289 24.5826 33.1418 25.0815L32.8574 26.712C32.7895 27.102 32.4518 27.3867 32.0571 27.3867H26.2397L25.2049 33.2359C25.1362 33.6251 24.799 33.9086 24.4049 33.9086H22.8055C22.2999 33.9086 21.9171 33.4503 22.0055 32.9509L22.9897 27.3867H13.2397L12.205 33.2359C12.1362 33.6251 11.7989 33.9086 11.405 33.9086H9.8054ZM15.5317 14.3428L13.8092 24.1257H23.5591L25.2816 14.3428H15.5317Z" fill="#8A8E93"/>
</svg>
