<svg width="26" height="26" viewBox="0 0 26 26" fill="none" xmlns="http://www.w3.org/2000/svg">
<circle cx="13" cy="13" r="12" stroke="white" stroke-width="2"/>
<path d="M6.29129 16.0947C6.20553 16.4148 6.39548 16.7438 6.71556 16.8296L11.9316 18.2272C12.2516 18.3129 12.5806 18.123 12.6664 17.8029C12.7522 17.4828 12.5622 17.1538 12.2421 17.0681L7.6057 15.8257L8.84803 11.1893C8.93379 10.8692 8.74384 10.5402 8.42376 10.4544C8.10368 10.3687 7.77468 10.5586 7.68892 10.8787L6.29129 16.0947ZM18.7087 9.90529C18.7945 9.58521 18.6046 9.25621 18.2845 9.17044L13.0685 7.77282C12.7484 7.68706 12.4194 7.87701 12.3336 8.19709C12.2479 8.51717 12.4378 8.84617 12.7579 8.93193L17.3943 10.1743L16.152 14.8107C16.0662 15.1308 16.2562 15.4598 16.5763 15.5456C16.8963 15.6313 17.2253 15.4414 17.3111 15.1213L18.7087 9.90529ZM7.17085 16.7696L18.4292 10.2696L17.8292 9.23038L6.57085 15.7304L7.17085 16.7696Z" fill="white"/>
</svg>
