<svg width="26" height="26" viewBox="0 0 26 26" fill="none" xmlns="http://www.w3.org/2000/svg">
<circle cx="13" cy="13" r="12" stroke="white" stroke-width="2"/>
<path d="M6.29154 16.0947C6.20577 16.4148 6.39572 16.7438 6.7158 16.8296L11.9318 18.2272C12.2519 18.3129 12.5809 18.123 12.6666 17.8029C12.7524 17.4828 12.5625 17.1538 12.2424 17.0681L7.60594 15.8257L8.84827 11.1893C8.93404 10.8692 8.74409 10.5402 8.42401 10.4544C8.10393 10.3687 7.77493 10.5586 7.68916 10.8787L6.29154 16.0947ZM18.709 9.90529C18.7947 9.58521 18.6048 9.25621 18.2847 9.17044L13.0687 7.77282C12.7486 7.68706 12.4196 7.87701 12.3339 8.19709C12.2481 8.51717 12.4381 8.84617 12.7581 8.93193L17.3946 10.1743L16.1522 14.8107C16.0665 15.1308 16.2564 15.4598 16.5765 15.5456C16.8966 15.6313 17.2256 15.4414 17.3114 15.1213L18.709 9.90529ZM7.17109 16.7696L18.4294 10.2696L17.8294 9.23038L6.57109 15.7304L7.17109 16.7696Z" fill="white"/>
</svg>
