<svg width="26" height="27" viewBox="0 0 26 27" fill="none" xmlns="http://www.w3.org/2000/svg">
<circle cx="13" cy="13.5" r="12" stroke="white" stroke-width="2"/>
<path d="M6.29129 16.5947C6.20553 16.9148 6.39548 17.2438 6.71556 17.3296L11.9316 18.7272C12.2516 18.8129 12.5806 18.623 12.6664 18.3029C12.7522 17.9828 12.5622 17.6538 12.2421 17.5681L7.6057 16.3257L8.84803 11.6893C8.93379 11.3692 8.74384 11.0402 8.42376 10.9544C8.10368 10.8687 7.77468 11.0586 7.68892 11.3787L6.29129 16.5947ZM18.7087 10.4053C18.7945 10.0852 18.6046 9.75621 18.2845 9.67044L13.0685 8.27282C12.7484 8.18706 12.4194 8.37701 12.3336 8.69709C12.2479 9.01717 12.4378 9.34617 12.7579 9.43193L17.3943 10.6743L16.152 15.3107C16.0662 15.6308 16.2562 15.9598 16.5763 16.0456C16.8963 16.1313 17.2253 15.9414 17.3111 15.6213L18.7087 10.4053ZM7.17085 17.2696L18.4292 10.7696L17.8292 9.73038L6.57085 16.2304L7.17085 17.2696Z" fill="white"/>
</svg>
