<svg width="156" height="31" viewBox="0 0 156 31" fill="none" xmlns="http://www.w3.org/2000/svg">
<path d="M47 0L50.48 10.7102H61.7414L52.6307 17.3295L56.1107 28.0398L47 21.4205L37.8893 28.0398L41.3693 17.3295L32.2586 10.7102H43.52L47 0Z" fill="#828282"/>
<path d="M16 0L19.48 10.7102H30.7414L21.6307 17.3295L25.1107 28.0398L16 21.4205L6.88933 28.0398L10.3693 17.3295L1.25862 10.7102H12.52L16 0Z" fill="#828282"/>
<path d="M78 0L81.48 10.7102H92.7414L83.6307 17.3295L87.1107 28.0398L78 21.4205L68.8893 28.0398L72.3693 17.3295L63.2586 10.7102H74.52L78 0Z" fill="#828282"/>
<path d="M109 0L112.48 10.7102H123.741L114.631 17.3295L118.111 28.0398L109 21.4205L99.8893 28.0398L103.369 17.3295L94.2586 10.7102H105.52L109 0Z" fill="#828282"/>
<path d="M140 0L143.48 10.7102H154.741L145.631 17.3295L149.111 28.0398L140 21.4205L130.889 28.0398L134.369 17.3295L125.259 10.7102H136.52L140 0Z" fill="#828282"/>
</svg>
