<svg width="19" height="12" viewBox="0 0 19 12" fill="none" xmlns="http://www.w3.org/2000/svg">
<path d="M13.3333 3C13.3333 4.47276 14.5272 5.66667 16 5.66667C17.4728 5.66667 18.6667 4.47276 18.6667 3C18.6667 1.52724 17.4728 0.333332 16 0.333332C14.5272 0.333332 13.3333 1.52724 13.3333 3ZM4.37114e-08 3.5L16 3.5L16 2.5L-4.37114e-08 2.5L4.37114e-08 3.5Z" fill="white"/>
<path d="M5.66667 9C5.66667 7.52724 4.47276 6.33333 3 6.33333C1.52724 6.33333 0.333332 7.52724 0.333332 9C0.333332 10.4728 1.52724 11.6667 3 11.6667C4.47276 11.6667 5.66667 10.4728 5.66667 9ZM19 8.5L3 8.5V9.5L19 9.5V8.5Z" fill="white"/>
</svg>
