<svg width="37" height="37" viewBox="0 0 37 37" fill="none" xmlns="http://www.w3.org/2000/svg">
<path d="M37 34.3452L26.8746 24.2198C28.9192 21.5988 30.0401 18.3977 30.0401 15.02C30.0401 11.0078 28.4761 7.23591 25.6392 4.40087C22.8042 1.56208 19.0323 0 15.02 0C11.0078 0 7.23591 1.56208 4.40087 4.40087C1.56396 7.23591 0 11.0078 0 15.02C0 19.0323 1.56396 22.8042 4.40087 25.6392C7.23591 28.478 11.0078 30.0401 15.02 30.0401C18.3977 30.0401 21.5988 28.9211 24.2198 26.8746L34.3452 36.9981L37 34.3452ZM15.02 26.2851C12.0104 26.2851 9.18288 25.1135 7.05566 22.9863C4.92657 20.8591 3.75501 18.0297 3.75501 15.02C3.75501 12.0123 4.92657 9.18288 7.05566 7.05566C9.18288 4.92657 12.0104 3.75501 15.02 3.75501C18.0297 3.75501 20.8572 4.92657 22.9844 7.05566C25.1135 9.18288 26.2851 12.0123 26.2851 15.02C26.2851 18.0297 25.1135 20.8591 22.9844 22.9863C20.8572 25.1135 18.0297 26.2851 15.02 26.2851Z" fill="#B5B8BF"/>
</svg>
