<svg width="32" height="32" viewBox="0 0 32 32" fill="none" xmlns="http://www.w3.org/2000/svg">
<mask id="mask0_813_2397" style="mask-type:alpha" maskUnits="userSpaceOnUse" x="0" y="0" width="32" height="32">
<circle cx="16" cy="16" r="16" fill="#D9D9D9"/>
</mask>
<g mask="url(#mask0_813_2397)">
<circle cx="16" cy="16" r="16" fill="#AAFFAE"/>
<path fill-rule="evenodd" clip-rule="evenodd" d="M24.7061 33.0293C24.6378 32.3973 24.5957 31.7609 24.5715 31.1257C24.5474 30.4913 24.5789 29.8491 24.5928 29.2144C24.6211 27.9233 24.667 26.6292 24.5637 25.34C24.4662 24.1217 24.2422 22.9119 23.8888 21.7412C23.7167 21.1711 23.5353 20.5781 23.2522 20.0513C22.9676 19.5217 22.5167 19.169 22.0214 18.8455C21.4941 18.5012 20.9711 18.1503 20.4458 17.8028C20.0049 17.511 19.2115 17.1715 18.8497 16.7814C18.4691 16.371 18.3975 15.3538 18.144 14.8676C17.8972 14.3941 17.1984 14.0852 16.6603 14.0852C15.7697 14.0852 15.0948 14.0398 14.3625 14.8602C13.9971 15.2695 14.2878 15.6833 13.9048 16.0762C13.5527 16.4374 12.6522 16.8086 12.1984 17.0182C11.6549 17.2692 11.0976 17.4908 10.5322 17.6882C9.95554 17.8896 9.3643 18.0397 8.78436 18.2298C8.22847 18.412 7.5026 19.1629 7.07105 19.5602C6.66984 19.9296 6.57027 19.8882 6.26526 20.337C5.59585 21.3218 4.92571 22.318 4.39264 23.3843C4.12712 23.9155 3.87002 24.4742 3.77368 25.0641C3.67092 25.6932 3.77281 26.3012 3.93946 26.9104C4.10909 27.5303 4.64777 28.1205 4.82326 28.7389C4.90413 29.0238 4.62653 29.3348 4.75422 29.6033C4.81799 29.7375 4.8983 29.8569 4.98974 29.9737C5.06019 30.0638 5.33493 30.0438 5.37048 30.154C5.4064 30.2653 5.20763 30.4963 5.20467 30.6115C5.20047 30.7763 5.19388 30.9412 5.18844 31.106L5.15633 32.0806C5.13523 32.721 5.11413 33.3615 5.09303 34.0019C5.08613 34.211 5.07608 34.4152 5.12641 34.6136C5.10825 34.5968 5.09098 34.5786 5.0752 34.5581C5.02903 34.498 4.93112 34.5489 4.9703 34.6191C5.03571 34.7363 5.12977 34.8187 5.24027 34.878C5.3687 35.0665 24.8173 35.4876 24.9129 34.9364C24.9666 34.6272 24.8689 34.2961 24.8298 33.9888C24.7892 33.6688 24.7408 33.3502 24.7061 33.0293Z" fill="white"/>
<path fill-rule="evenodd" clip-rule="evenodd" d="M4.9501 25.0652C4.99768 24.9295 5.21531 24.9882 5.1674 25.1248C4.92109 25.8273 5.09582 26.5918 5.3621 27.2625C5.41554 27.397 5.19751 27.4548 5.1448 27.3221C4.86469 26.6166 4.6914 25.8029 4.9501 25.0652ZM6.60162 29.078C7.29627 29.1753 7.99148 29.2353 8.69092 29.2838C8.72218 29.2861 8.74923 29.2813 8.77261 29.2712C8.75176 29.5901 8.73486 29.9094 8.72162 30.2286C8.53092 30.2233 8.33627 30.2358 8.14725 30.2308C7.90021 30.2241 7.65345 30.2117 7.40697 30.193C6.92979 30.157 6.45345 30.0998 5.98162 30.0207C5.80528 29.9913 5.58134 29.9733 5.38049 29.915C5.19063 29.8597 5.02162 29.7683 4.93289 29.596C4.8574 29.4502 4.84359 29.2715 4.84359 29.1102C4.84359 28.9991 4.86275 28.8864 4.8743 28.7745C4.88866 28.7644 4.90162 28.7523 4.91204 28.7389C5.12162 28.8048 5.33909 28.8511 5.55204 28.8959C5.8988 28.9694 6.25063 29.0289 6.60162 29.078ZM6.20985 26.4844C6.21368 26.6988 6.27325 26.8936 6.38917 27.0741C6.46759 27.1962 6.27247 27.3086 6.19458 27.1873C6.05813 26.9748 5.989 26.7362 5.98449 26.4844C5.9819 26.3397 6.20725 26.3402 6.20985 26.4844ZM24.0163 28.8233C24.1103 28.8285 24.205 28.8317 24.2993 28.8367C24.3825 28.9076 24.4977 28.9439 24.6029 28.9213C24.6066 28.9304 24.6099 28.9406 24.6129 28.9523C24.6315 29.0244 24.6408 29.1018 24.6515 29.1753C24.6622 29.2477 24.6704 29.3206 24.676 29.3935C24.6788 29.4303 24.6965 29.5133 24.674 29.5453C24.6537 29.5742 24.6089 29.5716 24.578 29.5753C24.4946 29.5843 24.4101 29.5885 24.3261 29.5955C24.1675 29.6092 24.0089 29.623 23.8506 29.6367C23.6954 29.6502 23.525 29.646 23.3732 29.6867C23.3473 29.3834 23.3236 29.0802 23.3016 28.7767C23.5368 28.8112 23.7827 28.8104 24.0163 28.8233ZM4.29458 28.3204C4.38923 28.5024 4.47655 28.6813 4.65768 28.7907C4.68134 28.8048 4.70782 28.8123 4.73486 28.8143C4.71458 28.901 4.7019 28.9896 4.69064 29.0715C4.66585 29.2519 4.66049 29.4384 4.70585 29.6162C4.75007 29.7893 4.82331 29.9439 4.96697 30.0547C5.03373 30.1063 5.10669 30.1455 5.18331 30.1767C5.17035 30.2128 5.16275 30.2488 5.16669 30.2883C5.14838 30.38 5.13627 30.4735 5.12303 30.5629C5.09402 30.7615 5.065 30.9604 5.04218 31.1601C4.99655 31.5573 4.96078 31.9544 4.93064 32.353C4.90049 32.7505 4.8788 33.1485 4.86078 33.5468C4.85148 33.7505 4.84331 33.9541 4.83571 34.158C4.8281 34.3676 4.79402 34.5819 4.88697 34.7763C4.9619 34.9333 5.21514 34.9243 5.29289 34.7763C5.39148 34.588 5.36247 34.3645 5.365 34.158C5.36754 33.9636 5.37092 33.769 5.37514 33.5746C5.38359 33.1766 5.39599 32.7788 5.40585 32.3808C5.41542 31.9923 5.42725 31.6041 5.43514 31.2156C5.43909 31.0123 5.43937 30.8089 5.44049 30.6055C5.44106 30.4928 5.44585 30.3725 5.4374 30.2549C5.50782 30.2715 5.5788 30.2855 5.64894 30.2998C6.18444 30.4092 6.72556 30.4889 7.27007 30.5382C7.54359 30.5629 7.81796 30.5803 8.09232 30.5901C8.29401 30.5974 8.50303 30.6114 8.70782 30.6039C8.69176 31.0908 8.68444 31.578 8.68528 32.0653C8.68585 32.4167 8.69063 32.7682 8.69937 33.1196C8.70416 33.3045 8.7081 33.4893 8.71373 33.6742C8.71627 33.7572 8.71627 33.8411 8.7219 33.9238C8.72359 33.9496 8.72725 33.9746 8.73204 33.9993C8.71345 34.0517 8.69796 34.1036 8.68528 34.1522C8.62331 34.3877 8.62331 34.6141 8.65092 34.8542C8.67458 35.0579 8.84669 35.2466 9.07402 35.1751C9.11092 35.1636 9.14782 35.1515 9.18444 35.1392C9.51909 35.1771 9.85571 35.1858 10.1951 35.1922C10.6912 35.2018 11.1875 35.2048 11.6839 35.2074C12.6574 35.2124 13.6312 35.215 14.605 35.2177C16.5619 35.2233 18.5188 35.2287 20.4757 35.2343C21.0188 35.236 21.5619 35.2374 22.105 35.2391C22.3861 35.2399 22.6667 35.2402 22.9475 35.2509C23.0785 35.2559 23.2098 35.2629 23.3408 35.2649C23.4926 35.2674 23.627 35.2239 23.772 35.1844C23.854 35.1616 23.8864 35.0797 23.8689 35.0105C24.0002 35.0416 24.1594 34.9754 24.2042 34.8282C24.2368 34.7213 24.2247 34.6054 24.176 34.5064V34.5061C24.0819 33.9146 23.9625 33.3258 23.8687 32.7339C23.7658 32.0857 23.667 31.4361 23.5799 30.7854C23.5146 30.2939 23.4608 30.6423 23.4143 30.1486C23.6168 30.1643 23.8458 30.1029 24.0464 30.0768C24.1904 30.0583 24.3354 30.0434 24.4796 30.0238C24.4689 30.1685 24.472 30.3161 24.4681 30.4549C24.4605 30.7306 24.4639 31.0052 24.4709 31.281C24.4844 31.8131 24.5146 31.5034 24.5627 32.0333C24.6115 32.567 24.6712 33.0989 24.7436 33.6302C24.7808 33.9036 24.8205 34.1768 24.8625 34.4497C24.8819 34.5771 24.9019 34.7042 24.9225 34.8315C24.947 34.9816 24.9549 35.1238 25.0678 35.2365C25.1537 35.3221 25.3292 35.3148 25.3861 35.1956C25.4582 35.0449 25.4256 34.9159 25.3988 34.7577C25.3771 34.6307 25.3563 34.5036 25.3357 34.3766C25.2918 34.1042 25.2501 33.8315 25.2109 33.5586C25.1354 33.0327 25.0642 32.5059 25.0005 31.9786C24.9363 31.447 24.8698 31.7575 24.8067 31.226C24.7749 30.9578 24.743 30.6903 24.7058 30.423C24.687 30.2855 24.6751 30.1391 24.6504 29.9974C24.6582 29.9963 24.6661 29.9949 24.674 29.9935C24.8453 29.9624 24.9915 29.8662 25.0346 29.6906C25.0757 29.5225 25.0267 29.3293 24.992 29.1644C24.9625 29.0239 24.9357 28.8446 24.8449 28.7242C25.1649 28.3184 25.3731 27.8076 25.5058 27.3166C25.6504 26.7817 25.711 26.2233 25.7238 25.6705C25.7387 25.0301 25.6902 24.3933 25.58 23.7672C25.5774 23.6345 25.5712 23.5018 25.5613 23.3693C25.4644 22.069 25.0577 20.5299 23.7681 19.9223C23.763 19.9198 23.7577 19.9175 23.7523 19.9153C23.6512 19.795 23.525 19.6867 23.423 19.5855C23.2425 19.4059 23.0537 19.2342 22.8537 19.076C22.4577 18.7628 22.0233 18.5126 21.5718 18.2873C21.1151 18.0592 20.6518 17.8453 20.2056 17.5964C19.8168 17.3793 19.467 17.1179 19.1349 16.8228C18.7616 16.491 18.496 16.0436 18.3918 15.5553C18.3864 15.5298 18.3484 15.5368 18.3478 15.5612C18.3205 16.4562 18.9273 17.2472 19.6256 17.7476C20.4605 18.3454 21.4687 18.6284 22.3154 19.2079C22.5258 19.3518 22.7227 19.5142 22.9101 19.6867C22.623 19.6575 22.3309 19.676 22.0619 19.7551C21.956 19.7487 21.8495 19.7467 21.7433 19.7417C21.5005 19.7296 21.2574 19.7184 21.0143 19.7077C20.5188 19.6859 20.023 19.666 19.5273 19.6486C18.5546 19.6143 17.5816 19.5885 16.6087 19.5714C14.6535 19.5369 12.6957 19.5302 10.7408 19.5866C10.2106 19.6017 7.42303 19.4965 7.165 19.5262C7.54444 19.1992 7.96078 18.9322 8.41852 18.7125C8.9912 18.4385 9.58303 18.2556 10.1946 18.0884C11.454 17.7443 12.7619 17.4124 13.7698 16.5381C14.0202 16.3207 14.2427 16.0708 14.425 15.794C14.5991 15.5298 14.7926 15.1915 14.7974 14.8692C14.8008 14.6403 14.4808 14.557 14.367 14.753C14.2963 14.8745 14.2613 15.0077 14.2036 15.1351C14.1461 15.2613 14.078 15.383 14.0022 15.4995C13.8532 15.7284 13.6684 15.9325 13.4673 16.1168C13.0385 16.5101 12.5191 16.7981 11.9816 17.0161C10.7613 17.5106 9.42669 17.7193 8.27035 18.3712C7.76444 18.6564 7.28021 19.05 6.97627 19.552C6.92725 19.5596 6.87852 19.5686 6.82979 19.5787C6.86613 19.533 6.90275 19.4873 6.93965 19.4418C6.96387 19.4121 6.92641 19.3728 6.89683 19.3992C6.3219 19.9086 5.79233 20.4586 5.31233 21.0583C4.85317 21.6322 4.425 22.2336 4.1219 22.9057C3.57711 24.1129 3.45711 25.4938 3.73852 26.7847C3.81514 27.1364 3.92331 27.4808 4.06106 27.8138C4.13204 27.9857 4.20894 28.1551 4.29458 28.3204Z" fill="black"/>
<path fill-rule="evenodd" clip-rule="evenodd" d="M16.7062 3.1422C18.3056 3.1422 20.3089 4.95899 20.8952 5.73211C21.3881 6.38211 21.3184 9.7307 21.3184 11.7171C21.3184 12.1325 21.1298 12.9188 21.0613 13.3162C20.8104 14.7724 19.7174 15.9936 17.5541 15.9936C15.7926 15.9936 14.437 15.4381 13.1262 14.0171C12.8271 13.6929 11.3666 14.8535 11.0679 14.4355C10.2877 14.4355 9.63534 7.17691 11.1671 4.99975C12.6989 2.82259 15.1067 3.1422 16.7062 3.1422Z" fill="white"/>
<path fill-rule="evenodd" clip-rule="evenodd" d="M11.8989 3.65352C12.8231 2.81624 14.0544 2.41345 15.2966 2.44318C15.94 2.45861 16.5811 2.58063 17.1887 2.7896C17.4927 2.8945 17.7871 3.03138 18.0685 3.18622C18.1699 3.24188 18.2634 3.30711 18.3534 3.37638L18.3758 3.39378H18.3761C18.6175 3.48018 18.833 3.63529 19.0285 3.81677C19.4203 3.78564 19.8152 3.8207 20.1941 3.94103C20.7214 4.10877 21.2096 4.41591 21.5524 4.85208C21.9517 5.35987 22.0845 5.97581 22.0371 6.61165L22.0284 6.71966C21.9815 7.28135 21.8976 8.0038 21.4347 8.37286C21.3994 8.40091 21.3606 8.42223 21.3203 8.43513C21.6186 8.94395 21.8634 9.50887 22.0099 10.0794C22.569 12.2586 22.1392 14.5311 21.4668 16.6315C21.4116 16.8046 21.1487 16.9196 21.0149 16.7504C20.7761 16.4481 20.429 16.2175 20.0386 16.1743C19.7978 16.1476 19.558 16.1959 19.3304 16.0871C19.2411 16.0441 19.1549 15.974 19.093 15.8887C18.7087 16.0338 18.2949 16.1022 17.8845 16.0854C17.211 16.0579 16.491 15.8256 16.0276 15.3163C15.9532 15.2345 15.9344 15.1427 15.9515 15.0599C16.0096 15.0393 16.0693 15.0239 16.1308 15.0143C16.7184 15.3591 17.3661 15.5896 18.0622 15.604C18.4644 15.6124 18.8568 15.5564 19.1829 15.3063C19.2535 15.2522 19.3184 15.1922 19.3784 15.1278C20.0603 14.691 20.541 13.9491 20.7696 13.1545C20.9825 12.4134 20.9563 11.6418 20.8831 10.8816L20.8445 10.4805C20.7881 9.89176 20.7359 9.30126 20.7212 8.71002L20.7257 8.70979C20.8697 8.70054 20.8707 8.47606 20.7257 8.4854C20.3505 8.50958 19.9782 8.44829 19.6041 8.47499C19.601 8.29892 19.5883 8.12364 19.5363 7.95383C19.5066 7.85681 19.337 7.83768 19.319 7.95383C19.2949 8.10923 19.2861 8.26375 19.2835 8.41985C18.7238 8.41244 18.1646 8.36554 17.6047 8.38481C17.5015 8.27514 17.4686 8.08067 17.4203 7.94539C17.4132 7.92547 17.4062 7.90584 17.3989 7.88592C17.3564 8.07924 17.2963 8.26832 17.2171 8.45342L17.0798 8.45389C16.3008 8.45752 15.5059 8.48071 14.7452 8.6418C14.6924 8.60138 14.6609 8.53087 14.6524 8.46683C14.5972 8.05013 14.5185 7.64451 14.3789 7.24741L14.3589 7.19139C14.3573 7.18674 14.3556 7.1818 14.3538 7.1766C14.2509 7.3419 14.1282 7.49598 13.9944 7.63945C13.9155 7.72402 13.8328 7.80489 13.748 7.88345C13.6655 7.97462 13.5803 8.0644 13.4977 8.15584C13.5009 8.17248 13.5038 8.18936 13.506 8.20656C13.5313 8.39631 13.5339 8.58876 13.5154 8.77925C13.482 9.12361 13.3843 9.45544 13.2275 9.76241L13.2225 9.79315C13.1987 9.93701 13.1648 10.0857 13.0857 10.194C13.1844 10.3042 13.2605 10.4358 13.3046 10.582C13.3439 10.7122 13.163 10.825 13.0692 10.7185C12.9947 10.6339 12.9119 10.5638 12.821 10.5079C12.8152 10.5157 12.8049 10.5195 12.7932 10.513C12.54 10.3731 12.1099 10.4154 11.8569 10.5473C11.5423 10.7111 11.4194 11.0474 11.4544 11.3882C11.4879 11.7138 11.631 12.0945 11.9085 12.2614C12.0358 12.338 12.1349 12.3444 12.2702 12.3077C12.3134 12.296 12.367 12.2601 12.39 12.2423L12.4126 12.2242C12.5013 12.1545 12.5838 12.1067 12.6885 12.1049C12.7955 12.0716 12.903 12.1177 12.944 12.2295L12.9465 12.2367C12.9656 12.2936 13.0006 12.3652 12.993 12.4521C12.9851 12.5452 12.9423 12.6299 12.8783 12.6981C12.8673 12.7099 12.8555 12.7217 12.8434 12.7326C13.9448 13.9199 14.0862 15.7701 13.5214 17.2534C13.4969 17.3184 13.4707 17.3827 13.4434 17.4463C13.349 17.6646 12.9856 17.597 12.9394 17.3807C12.9256 17.3159 12.9104 17.2514 12.8938 17.1874C12.8633 17.0693 12.8283 16.9522 12.7888 16.8368L12.7738 16.7936C12.7403 16.6983 12.709 16.602 12.6752 16.5067L12.6718 16.4958C12.6706 16.4915 12.6692 16.4865 12.6676 16.4809L12.6104 16.6051L12.4366 16.9802C12.3553 17.1552 12.0969 17.0601 12.0873 16.8914L12.0871 16.8856C12.0862 16.8545 12.0851 16.8236 12.0831 16.7931C12.0707 16.5639 12.031 16.3412 11.9679 16.1232L11.9451 16.1514C11.6061 16.5687 11.2083 16.9599 10.6625 17.0562C10.5256 17.0803 10.3707 16.9378 10.4648 16.8001C10.5037 16.7431 10.5411 16.6848 10.5766 16.6256C10.5459 16.6113 10.5169 16.5964 10.4902 16.5813C10.2831 16.4654 10.1107 16.3005 9.96818 16.1134C9.66593 15.7168 9.55776 15.2175 9.53128 14.7289C9.50311 14.2125 9.54874 13.6681 9.69043 13.1699C9.75184 12.9545 9.83494 12.7478 9.931 12.5472C9.92424 12.5293 9.91776 12.5113 9.91128 12.4933C9.80762 12.2056 9.72255 11.9113 9.65184 11.6137C9.50931 11.0129 9.43269 10.393 9.42339 9.77562C9.40649 8.66963 9.59804 7.54596 10.0017 6.51458C10.4186 5.45094 11.0456 4.42629 11.8989 3.65352ZM11.3797 13.3233C11.3032 13.2033 11.1116 13.3115 11.1827 13.4323L11.1854 13.4367C11.3068 13.6271 11.3637 13.8437 11.4335 14.056C11.4783 14.1926 11.6961 14.1342 11.6507 13.9962L11.6357 13.9502C11.5662 13.7348 11.5028 13.516 11.3797 13.3233ZM12.0465 11.0322L12.0973 11.0077C12.2578 10.9315 12.3983 10.8796 12.5879 10.9461C12.8417 11.035 13.1135 11.3181 12.942 11.5927C12.8789 11.6939 12.7668 11.7343 12.6513 11.7105C12.4566 11.6703 12.4063 11.4957 12.3075 11.3524L12.2905 11.3281C12.2303 11.2414 12.1541 11.1215 12.0538 11.0875C12.031 11.0796 12.0214 11.0443 12.0465 11.0322ZM12.1895 5.20189L12.2059 5.18727C12.3149 5.09134 12.1549 4.93314 12.0465 5.02851C11.5502 5.46524 11.3778 6.14881 11.1203 6.7314C11.0625 6.86239 11.2566 6.97684 11.3149 6.84472C11.5605 6.28879 11.7236 5.62378 12.1895 5.20189ZM18.1541 5.01084C18.0244 4.95265 17.9109 5.14058 18.0356 5.20246L18.0403 5.20466C18.4786 5.40185 18.6651 5.8484 18.8437 6.26297C18.9006 6.39537 19.0947 6.28121 19.0383 6.14993L19.0061 6.07555C18.8197 5.64831 18.6024 5.21284 18.1541 5.01084ZM18.8411 4.741C18.7037 4.6936 18.6448 4.91014 18.7811 4.95755C19.1527 5.08629 19.4076 5.36399 19.6225 5.68151C19.7031 5.80044 19.8983 5.68824 19.8169 5.56819C19.5673 5.19962 19.271 4.89023 18.8411 4.741Z" fill="black"/>
<path fill-rule="evenodd" clip-rule="evenodd" d="M18.0869 14.024C17.8976 13.9471 17.7286 13.8188 17.6051 13.6549C17.5621 13.5979 17.551 13.5377 17.56 13.4827C17.5701 13.4208 17.6069 13.3647 17.657 13.3271C17.7073 13.2894 17.7703 13.2708 17.8311 13.2803C17.8839 13.2885 17.9366 13.3173 17.9782 13.3771L17.9869 13.389C18.0603 13.488 18.156 13.5691 18.2651 13.6215C18.3702 13.6719 18.4877 13.6954 18.6093 13.6817C18.841 13.6557 19.0007 13.5309 19.1704 13.3615C19.1914 13.3401 19.2125 13.3181 19.2336 13.2956C19.247 13.2753 19.2655 13.2623 19.2861 13.2554C19.3089 13.2478 19.3348 13.2482 19.3585 13.2565C19.3813 13.2644 19.4017 13.2794 19.4154 13.2995C19.4284 13.3185 19.4358 13.342 19.4334 13.369C19.4179 13.5446 19.3257 13.7013 19.1947 13.8243C19.0493 13.9609 18.8566 14.0555 18.6751 14.0886C18.4751 14.1251 18.2714 14.099 18.0869 14.024ZM18.7694 11.3156C18.9821 11.4443 19.3062 11.7445 19.0774 12.0637C18.808 12.3452 18.4202 12.0225 18.2291 11.8765C18.0519 11.7634 17.8528 12.0543 18.0172 12.1864C19.3982 13.2045 19.9586 11.3492 18.877 11.1642C18.7579 11.1438 18.7137 11.2758 18.7694 11.3156ZM16.2947 10.1313C16.3182 9.84082 16.7625 9.77486 16.8067 10.0623C16.8463 10.3198 16.7997 10.5563 16.6832 10.7882C16.5719 11.0097 16.2922 10.9063 16.271 10.7046C16.2427 10.4343 16.2801 10.312 16.2947 10.1313ZM19.6768 10.0027C19.7387 9.92192 19.8282 9.86678 19.9353 9.89794C20.2701 9.99536 20.1714 10.4686 20.0539 10.699C19.99 10.8241 19.7835 10.8558 19.6901 10.7457C19.538 10.5661 19.4652 10.2073 19.6586 10.0304C19.6638 10.0212 19.6696 10.012 19.6768 10.0027ZM16.6785 8.86022L16.7314 8.851C16.895 8.82283 17.0984 8.79575 17.2141 8.92672C17.2755 8.99617 17.2967 9.12526 17.2141 9.19174C17.069 9.3087 16.9086 9.26337 16.7347 9.27328C16.5913 9.28147 16.4536 9.30508 16.3155 9.34438C16.0127 9.43058 15.7659 9.58794 15.5072 9.76072C15.4732 9.78338 15.4386 9.74016 15.4548 9.70855C15.6041 9.41731 15.8935 9.17808 16.1834 9.03225C16.3381 8.95441 16.5074 8.88984 16.6785 8.86022ZM19.3716 8.72976L19.4121 8.738C19.8526 8.82969 20.4249 9.01283 20.6335 9.44366C20.6414 9.50458 20.633 9.51763 20.6262 9.52617L20.6239 9.529C20.6183 9.53629 20.6138 9.54633 20.5873 9.55462C20.5799 9.55288 20.5725 9.55103 20.565 9.54907C20.4694 9.52412 20.3937 9.48974 20.3205 9.45408L20.2411 9.41512C20.1489 9.37014 20.056 9.3268 19.9575 9.2948C19.7473 9.22653 19.5311 9.17843 19.3115 9.15275C19.2639 9.14719 19.2181 9.1312 19.182 9.10379C19.1476 9.07777 19.1214 9.04175 19.1095 8.99387C19.094 8.93191 19.0984 8.885 19.1318 8.8291C19.1569 8.78712 19.1929 8.75802 19.2341 8.74131C19.2761 8.72428 19.324 8.72026 19.3716 8.72976Z" fill="black"/>
<path fill-rule="evenodd" clip-rule="evenodd" d="M21.1445 11.5666C20.9548 11.8203 20.6032 11.9012 20.2789 11.8732C19.5795 11.8062 19.3593 11.0152 19.3364 10.4004C19.8054 10.5317 19.2967 9.60123 20.9001 9.4989C21.4653 9.452 21.3095 9.79191 21.5592 10.0403C21.5541 10.5615 21.4669 11.1278 21.1445 11.5666ZM17.8129 10.9677C17.4 12.8934 15.1386 12.4354 14.9011 10.6995C15.1204 10.5453 15.0626 10.1647 15.3352 10.0267C15.767 9.75197 16.3069 9.76372 16.7974 9.77017C17.4243 9.81306 17.6029 10.0716 17.925 10.3538C17.9095 10.5422 17.8648 10.7655 17.8129 10.9677ZM22.0403 9.17998C22.0171 9.17614 21.9939 9.17252 21.9707 9.16912C21.9526 9.15889 21.9313 9.151 21.9066 9.14626C21.8501 9.13199 21.794 9.12237 21.738 9.11718C20.9343 8.93707 19.075 9.1928 18.9982 9.87575C18.7423 9.96082 18.5208 9.88464 18.2242 9.89221C17.9984 8.95241 14.0946 9.08506 13.9069 9.65166C13.9062 9.65146 13.9055 9.6513 13.9047 9.65107C13.7243 9.59548 13.4584 9.60889 13.2519 9.60008C12.811 9.59088 12.3697 9.63001 11.9383 9.7226C11.1306 9.85042 10.0282 10.0001 10.5899 11.0045C10.5901 11.0046 10.5901 11.0048 10.5903 11.005L10.5904 11.0049C10.6872 11.1037 10.8515 11.0242 10.8576 10.8904C10.6687 10.4146 11.0953 10.3574 11.4235 10.2207C12.2403 9.92851 13.0717 9.88801 13.9164 9.97838C13.98 10.0529 14.0764 10.1178 14.1783 10.1518C14.7431 10.2452 14.4454 10.6623 14.8024 10.723C14.7368 12.1772 16.5098 12.9709 17.5371 12.015C17.9473 11.6157 18.0451 11.0242 18.1402 10.491C18.1904 10.4797 18.2224 10.4523 18.2411 10.4161C18.362 10.2959 18.438 10.1849 18.6771 10.1518C18.9163 10.1189 19.1003 10.1851 19.1252 10.2054C19.1315 10.218 19.1383 10.2306 19.1461 10.2432C19.157 10.262 19.1719 10.277 19.1888 10.2888C18.9526 11.7369 20.0816 12.6526 21.2213 11.9016C21.7165 11.4377 21.8211 10.7276 21.8418 10.0937C21.9089 10.0534 21.9514 9.97521 21.9282 9.87693C21.8962 9.74145 21.9713 9.62414 22.0909 9.56524C22.2463 9.48875 22.2188 9.2094 22.0403 9.17998Z" fill="black"/>
</g>
</svg>
