<svg width="30" height="22" viewBox="0 0 30 22" fill="none" xmlns="http://www.w3.org/2000/svg">
<path fill-rule="evenodd" clip-rule="evenodd" d="M21.0317 12.4596C22.8013 13.6608 24.0413 15.2883 24.0413 17.4583V21.3333H29.208V17.4583C29.208 14.6425 24.5967 12.9763 21.0317 12.4596Z" fill="white"/>
<path d="M11.1247 11C13.9781 11 16.2913 8.68679 16.2913 5.83332C16.2913 2.97985 13.9781 0.666656 11.1247 0.666656C8.2712 0.666656 5.95801 2.97985 5.95801 5.83332C5.95801 8.68679 8.2712 11 11.1247 11Z" fill="white"/>
<path fill-rule="evenodd" clip-rule="evenodd" d="M18.8747 11C21.7292 11 24.0413 8.68791 24.0413 5.83332C24.0413 2.97874 21.7292 0.666656 18.8747 0.666656C18.2676 0.666656 17.6992 0.795823 17.1567 0.976656C18.2288 2.30707 18.8747 3.99916 18.8747 5.83332C18.8747 7.66749 18.2288 9.35957 17.1567 10.69C17.6992 10.8708 18.2676 11 18.8747 11Z" fill="white"/>
<path fill-rule="evenodd" clip-rule="evenodd" d="M11.1248 12.2916C7.67609 12.2916 0.791504 14.0225 0.791504 17.4583V21.3333H21.4582V17.4583C21.4582 14.0225 14.5736 12.2916 11.1248 12.2916Z" fill="white"/>
</svg>
