<svg width="126" height="125" viewBox="0 0 126 125" fill="none" xmlns="http://www.w3.org/2000/svg">
<rect x="3.98047" y="3" width="119" height="119" rx="40" stroke="#5964F4" stroke-width="6"/>
<g clip-path="url(#clip0_813_1720)">
<circle cx="37.0039" cy="35.3086" r="26.8945" fill="#F05EAC"/>
<circle cx="72.4648" cy="36.1055" r="26.8945" fill="#FF9563"/>
<circle cx="110.316" cy="35.3086" r="26.8945" fill="#FEE75C"/>
<circle cx="37.0039" cy="70.3711" r="26.8945" fill="#AA53F0"/>
<circle cx="90.793" cy="72.5625" r="26.8945" fill="#57F287"/>
<circle cx="43.1797" cy="97.2656" r="26.8945" fill="#5865F2"/>
<circle cx="90.3945" cy="97.2656" r="26.8945" fill="#1DDDC7"/>
<g filter="url(#filter0_b_813_1720)">
<rect x="12.5" y="12" width="102" height="102" fill="white" fill-opacity="0.01"/>
</g>
<g filter="url(#filter1_d_813_1720)">
<path fill-rule="evenodd" clip-rule="evenodd" d="M63.5072 32.3055C80.4633 32.3055 94.2092 46.0513 94.2092 63.0075C94.2092 64.9995 94.0191 66.9497 93.6553 68.8406C92.512 74.7814 86.7163 77.4102 81.6616 76.8085L81.1231 76.7316L75.7812 75.8413C74.52 75.631 73.2348 76.043 72.3309 76.9469C71.1953 78.0825 70.6524 79.6437 71.4166 81.1718C72.7144 83.7673 72.7325 86.735 71.5855 89.1638C70.0488 92.4182 66.9139 93.7095 63.5072 93.7095C46.5509 93.7095 32.8052 79.9636 32.8052 63.0075C32.8052 46.0513 46.5509 32.3055 63.5072 32.3055ZM49.6913 59.9373C47.1478 59.9373 45.086 61.9993 45.086 64.5426C45.086 67.086 47.1478 69.1479 49.6913 69.1479C52.2347 69.1479 54.2966 67.086 54.2966 64.5426C54.2966 61.9993 52.2347 59.9373 49.6913 59.9373ZM71.1827 47.6565C68.6393 47.6565 66.5774 49.7184 66.5774 52.2618C66.5774 54.8053 68.6393 56.8671 71.1827 56.8671C73.726 56.8671 75.788 54.8053 75.788 52.2618C75.788 49.7184 73.726 47.6565 71.1827 47.6565ZM55.8317 47.6565C53.2882 47.6565 51.2264 49.7184 51.2264 52.2618C51.2264 54.8053 53.2882 56.8671 55.8317 56.8671C58.375 56.8671 60.437 54.8053 60.437 52.2618C60.437 49.7184 58.375 47.6565 55.8317 47.6565Z" fill="white"/>
<path d="M94.4378 68.9912L94.4378 68.9912C94.8111 67.0509 95.006 65.0503 95.006 63.0075C95.006 45.6112 80.9034 31.5087 63.5072 31.5087C46.1108 31.5087 32.0083 45.6112 32.0083 63.0075C32.0083 80.4037 46.1108 94.5064 63.5072 94.5064C67.1084 94.5064 70.5953 93.1272 72.306 89.5041C73.5604 86.8479 73.5334 83.6235 72.1294 80.8154L72.1293 80.8153C71.5658 79.6886 71.9171 78.4876 72.8944 77.5103C73.6163 76.7884 74.6428 76.4593 75.6502 76.6273L75.6502 76.6273L80.992 77.5177L81.0013 77.5192L81.0105 77.5205L81.549 77.5974L81.5582 77.5987L81.5674 77.5998C86.8952 78.234 93.1911 75.4693 94.4378 68.9912ZM45.8828 64.5426C45.8828 62.4394 47.5879 60.7342 49.6913 60.7342C51.7946 60.7342 53.4997 62.4394 53.4997 64.5426C53.4997 66.6459 51.7946 68.3511 49.6913 68.3511C47.5879 68.3511 45.8828 66.6459 45.8828 64.5426ZM67.3742 52.2618C67.3742 50.1585 69.0794 48.4534 71.1827 48.4534C73.2859 48.4534 74.9911 50.1585 74.9911 52.2618C74.9911 54.3652 73.2859 56.0703 71.1827 56.0703C69.0794 56.0703 67.3742 54.3652 67.3742 52.2618ZM52.0232 52.2618C52.0232 50.1585 53.7283 48.4534 55.8317 48.4534C57.9349 48.4534 59.6401 50.1585 59.6401 52.2618C59.6401 54.3652 57.9349 56.0703 55.8317 56.0703C53.7283 56.0703 52.0232 54.3652 52.0232 52.2618Z" stroke="black" stroke-width="1.59375"/>
</g>
<circle cx="55.9062" cy="52.2614" r="4.08398" fill="black"/>
<circle cx="71.2222" cy="52.3583" r="4.08398" fill="black"/>
<circle cx="49.6543" cy="64.6934" r="4.08398" fill="black"/>
</g>
<defs>
<filter id="filter0_b_813_1720" x="-27.3438" y="-27.8438" width="181.688" height="181.688" filterUnits="userSpaceOnUse" color-interpolation-filters="sRGB">
<feFlood flood-opacity="0" result="BackgroundImageFix"/>
<feGaussianBlur in="BackgroundImageFix" stdDeviation="19.9219"/>
<feComposite in2="SourceAlpha" operator="in" result="effect1_backgroundBlur_813_1720"/>
<feBlend mode="normal" in="SourceGraphic" in2="effect1_backgroundBlur_813_1720" result="shape"/>
</filter>
<filter id="filter1_d_813_1720" x="31.2114" y="30.7118" width="66.1851" height="66.1853" filterUnits="userSpaceOnUse" color-interpolation-filters="sRGB">
<feFlood flood-opacity="0" result="BackgroundImageFix"/>
<feColorMatrix in="SourceAlpha" type="matrix" values="0 0 0 0 0 0 0 0 0 0 0 0 0 0 0 0 0 0 127 0" result="hardAlpha"/>
<feOffset dx="1.59375" dy="1.59375"/>
<feComposite in2="hardAlpha" operator="out"/>
<feColorMatrix type="matrix" values="0 0 0 0 0 0 0 0 0 0 0 0 0 0 0 0 0 0 1 0"/>
<feBlend mode="normal" in2="BackgroundImageFix" result="effect1_dropShadow_813_1720"/>
<feBlend mode="normal" in="SourceGraphic" in2="effect1_dropShadow_813_1720" result="shape"/>
</filter>
<clipPath id="clip0_813_1720">
<rect x="12.5" y="12" width="102" height="102" rx="34.5763" fill="white"/>
</clipPath>
</defs>
</svg>
