<svg width="30" height="21" viewBox="0 0 30 21" fill="none" xmlns="http://www.w3.org/2000/svg">
<path fill-rule="evenodd" clip-rule="evenodd" d="M21.032 11.9596C22.8016 13.1608 24.0416 14.7883 24.0416 16.9583V20.8333H29.2082V16.9583C29.2082 14.1425 24.597 12.4763 21.032 11.9596Z" fill="white"/>
<path d="M11.1249 10.5C13.9784 10.5 16.2916 8.18682 16.2916 5.33335C16.2916 2.47988 13.9784 0.166687 11.1249 0.166687C8.27145 0.166687 5.95825 2.47988 5.95825 5.33335C5.95825 8.18682 8.27145 10.5 11.1249 10.5Z" fill="white"/>
<path fill-rule="evenodd" clip-rule="evenodd" d="M18.8749 10.5C21.7295 10.5 24.0416 8.18794 24.0416 5.33335C24.0416 2.47877 21.7295 0.166687 18.8749 0.166687C18.2678 0.166687 17.6995 0.295853 17.157 0.476687C18.2291 1.8071 18.8749 3.49919 18.8749 5.33335C18.8749 7.16752 18.2291 8.8596 17.157 10.19C17.6995 10.3709 18.2678 10.5 18.8749 10.5Z" fill="white"/>
<path fill-rule="evenodd" clip-rule="evenodd" d="M11.125 11.7917C7.67621 11.7917 0.791626 13.5226 0.791626 16.9584V20.8334H21.4583V16.9584C21.4583 13.5226 14.5737 11.7917 11.125 11.7917Z" fill="white"/>
</svg>
