<svg width="30" height="22" viewBox="0 0 30 22" fill="none" xmlns="http://www.w3.org/2000/svg">
<path fill-rule="evenodd" clip-rule="evenodd" d="M21.0322 12.4596C22.8018 13.6608 24.0418 15.2883 24.0418 17.4583V21.3333H29.2085V17.4583C29.2085 14.6425 24.5972 12.9763 21.0322 12.4596Z" fill="white"/>
<path d="M11.1252 11C13.9786 11 16.2918 8.68676 16.2918 5.83329C16.2918 2.97982 13.9786 0.666626 11.1252 0.666626C8.27169 0.666626 5.9585 2.97982 5.9585 5.83329C5.9585 8.68676 8.27169 11 11.1252 11Z" fill="white"/>
<path fill-rule="evenodd" clip-rule="evenodd" d="M18.8751 11C21.7297 11 24.0418 8.68788 24.0418 5.83329C24.0418 2.97871 21.7297 0.666626 18.8751 0.666626C18.2681 0.666626 17.6997 0.795792 17.1572 0.976626C18.2293 2.30704 18.8751 3.99913 18.8751 5.83329C18.8751 7.66746 18.2293 9.35954 17.1572 10.69C17.6997 10.8708 18.2681 11 18.8751 11Z" fill="white"/>
<path fill-rule="evenodd" clip-rule="evenodd" d="M11.1251 12.2916C7.67633 12.2916 0.791748 14.0225 0.791748 17.4583V21.3333H21.4584V17.4583C21.4584 14.0225 14.5738 12.2916 11.1251 12.2916Z" fill="white"/>
</svg>
