<svg width="32" height="32" viewBox="0 0 32 32" fill="none" xmlns="http://www.w3.org/2000/svg">
<mask id="mask0_191_847" style="mask-type:alpha" maskUnits="userSpaceOnUse" x="0" y="0" width="32" height="32">
<circle cx="16" cy="16" r="16" fill="#D9D9D9"/>
</mask>
<g mask="url(#mask0_191_847)">
<circle cx="16" cy="16" r="16" fill="#AAFFAE"/>
<path fill-rule="evenodd" clip-rule="evenodd" d="M24.7061 33.0293C24.6378 32.3973 24.5957 31.7609 24.5715 31.1257C24.5474 30.4913 24.5789 29.8491 24.5928 29.2144C24.6211 27.9233 24.667 26.6292 24.5637 25.34C24.4662 24.1217 24.2422 22.9119 23.8888 21.7412C23.7167 21.1711 23.5353 20.5781 23.2522 20.0513C22.9676 19.5217 22.5167 19.169 22.0214 18.8455C21.4941 18.5012 20.9711 18.1503 20.4458 17.8028C20.0049 17.511 19.2115 17.1715 18.8497 16.7814C18.4691 16.371 18.3975 15.3538 18.144 14.8676C17.8972 14.3941 17.1984 14.0852 16.6603 14.0852C15.7697 14.0852 15.0948 14.0398 14.3625 14.8602C13.9971 15.2695 14.2878 15.6833 13.9048 16.0762C13.5527 16.4374 12.6522 16.8086 12.1984 17.0182C11.6549 17.2692 11.0976 17.4908 10.5322 17.6882C9.95554 17.8896 9.3643 18.0397 8.78436 18.2298C8.22847 18.412 7.5026 19.1629 7.07105 19.5602C6.66984 19.9296 6.57027 19.8882 6.26526 20.337C5.59585 21.3218 4.92571 22.318 4.39264 23.3843C4.12712 23.9155 3.87002 24.4742 3.77368 25.0641C3.67092 25.6932 3.77281 26.3012 3.93946 26.9104C4.10909 27.5303 4.64777 28.1205 4.82326 28.7389C4.90413 29.0238 4.62653 29.3348 4.75422 29.6033C4.81799 29.7375 4.8983 29.8569 4.98974 29.9737C5.06019 30.0638 5.33493 30.0438 5.37048 30.154C5.4064 30.2653 5.20763 30.4963 5.20467 30.6115C5.20047 30.7763 5.19388 30.9412 5.18844 31.106L5.15633 32.0806C5.13523 32.721 5.11413 33.3615 5.09303 34.0019C5.08613 34.211 5.07608 34.4152 5.12641 34.6136C5.10825 34.5968 5.09098 34.5786 5.0752 34.5581C5.02903 34.498 4.93112 34.5489 4.9703 34.6191C5.03571 34.7363 5.12977 34.8187 5.24027 34.878C5.3687 35.0665 24.8173 35.4876 24.9129 34.9364C24.9666 34.6272 24.8689 34.2961 24.8298 33.9888C24.7892 33.6688 24.7408 33.3502 24.7061 33.0293Z" fill="white"/>
<path fill-rule="evenodd" clip-rule="evenodd" d="M4.94986 25.0652C4.99743 24.9295 5.21507 24.9882 5.16715 25.1248C4.92084 25.8273 5.09557 26.5918 5.36186 27.2625C5.41529 27.397 5.19726 27.4548 5.14456 27.3221C4.86445 26.6166 4.69115 25.8029 4.94986 25.0652ZM6.60138 29.078C7.29602 29.1753 7.99124 29.2353 8.69067 29.2838C8.72194 29.2861 8.74898 29.2813 8.77236 29.2712C8.75152 29.5901 8.73462 29.9094 8.72138 30.2286C8.53067 30.2233 8.33602 30.2358 8.14701 30.2308C7.89997 30.2241 7.65321 30.2117 7.40673 30.193C6.92955 30.157 6.45321 30.0998 5.98138 30.0207C5.80504 29.9913 5.58109 29.9733 5.38025 29.915C5.19039 29.8597 5.02138 29.7683 4.93264 29.596C4.85715 29.4502 4.84335 29.2715 4.84335 29.1102C4.84335 28.9991 4.8625 28.8864 4.87405 28.7745C4.88842 28.7644 4.90138 28.7523 4.9118 28.7389C5.12138 28.8048 5.33884 28.8511 5.5518 28.8959C5.89856 28.9694 6.25039 29.0289 6.60138 29.078ZM6.2096 26.4844C6.21343 26.6988 6.27301 26.8936 6.38893 27.0741C6.46735 27.1962 6.27222 27.3086 6.19433 27.1873C6.05788 26.9748 5.98876 26.7362 5.98425 26.4844C5.98166 26.3397 6.20701 26.3402 6.2096 26.4844ZM24.016 28.8233C24.1101 28.8285 24.2047 28.8317 24.2991 28.8367C24.3823 28.9076 24.4975 28.9439 24.6027 28.9213C24.6063 28.9304 24.6096 28.9406 24.6126 28.9523C24.6312 29.0244 24.6405 29.1018 24.6512 29.1753C24.6619 29.2477 24.6701 29.3206 24.6757 29.3935C24.6786 29.4303 24.6963 29.5133 24.6738 29.5453C24.6535 29.5742 24.6087 29.5716 24.5777 29.5753C24.4943 29.5843 24.4098 29.5885 24.3259 29.5955C24.1673 29.6092 24.0087 29.623 23.8504 29.6367C23.6952 29.6502 23.5248 29.646 23.3729 29.6867C23.347 29.3834 23.3233 29.0802 23.3014 28.7767C23.5366 28.8112 23.7825 28.8104 24.016 28.8233ZM4.29433 28.3204C4.38898 28.5024 4.47631 28.6813 4.65743 28.7907C4.6811 28.8048 4.70757 28.8123 4.73462 28.8143C4.71433 28.901 4.70166 28.9896 4.69039 29.0715C4.6656 29.2519 4.66025 29.4384 4.7056 29.6162C4.74983 29.7893 4.82307 29.9439 4.96673 30.0547C5.03349 30.1063 5.10645 30.1455 5.18307 30.1767C5.17011 30.2128 5.1625 30.2488 5.16645 30.2883C5.14814 30.38 5.13602 30.4735 5.12279 30.5629C5.09377 30.7615 5.06476 30.9604 5.04194 31.1601C4.99631 31.5573 4.96053 31.9544 4.93039 32.353C4.90025 32.7505 4.87856 33.1485 4.86053 33.5468C4.85124 33.7505 4.84307 33.9541 4.83546 34.158C4.82786 34.3676 4.79377 34.5819 4.88673 34.7763C4.96166 34.9333 5.2149 34.9243 5.29264 34.7763C5.39124 34.588 5.36222 34.3645 5.36476 34.158C5.36729 33.9636 5.37067 33.769 5.3749 33.5746C5.38335 33.1766 5.39574 32.7788 5.4056 32.3808C5.41518 31.9923 5.42701 31.6041 5.4349 31.2156C5.43884 31.0123 5.43912 30.8089 5.44025 30.6055C5.44081 30.4928 5.4456 30.3725 5.43715 30.2549C5.50757 30.2715 5.57856 30.2855 5.6487 30.2998C6.18419 30.4092 6.72532 30.4889 7.26983 30.5382C7.54335 30.5629 7.81771 30.5803 8.09208 30.5901C8.29377 30.5974 8.50278 30.6114 8.70757 30.6039C8.69152 31.0908 8.68419 31.578 8.68504 32.0653C8.6856 32.4167 8.69039 32.7682 8.69912 33.1196C8.70391 33.3045 8.70786 33.4893 8.71349 33.6742C8.71602 33.7572 8.71602 33.8411 8.72166 33.9238C8.72335 33.9496 8.72701 33.9746 8.7318 33.9993C8.71321 34.0517 8.69771 34.1036 8.68504 34.1522C8.62307 34.3877 8.62307 34.6141 8.65067 34.8542C8.67433 35.0579 8.84645 35.2466 9.07377 35.1751C9.11067 35.1636 9.14757 35.1515 9.18419 35.1392C9.51884 35.1771 9.85546 35.1858 10.1949 35.1922C10.691 35.2018 11.1873 35.2048 11.6836 35.2074C12.6572 35.2124 13.631 35.215 14.6048 35.2177C16.5617 35.2233 18.5186 35.2287 20.4755 35.2343C21.0186 35.236 21.5617 35.2374 22.1048 35.2391C22.3859 35.2399 22.6664 35.2402 22.9473 35.2509C23.0783 35.2559 23.2095 35.2629 23.3405 35.2649C23.4924 35.2674 23.6267 35.2239 23.7718 35.1844C23.8538 35.1616 23.8862 35.0797 23.8687 35.0105C24 35.0416 24.1591 34.9754 24.2039 34.8282C24.2366 34.7213 24.2245 34.6054 24.1757 34.5064V34.5061C24.0817 33.9146 23.9622 33.3258 23.8684 32.7339C23.7656 32.0857 23.6667 31.4361 23.5797 30.7854C23.5143 30.2939 23.4605 30.6423 23.4141 30.1486C23.6166 30.1643 23.8456 30.1029 24.0462 30.0768C24.1901 30.0583 24.3352 30.0434 24.4794 30.0238C24.4687 30.1685 24.4718 30.3161 24.4679 30.4549C24.4602 30.7306 24.4636 31.0052 24.4707 31.281C24.4842 31.8131 24.5143 31.5034 24.5625 32.0333C24.6112 32.567 24.671 33.0989 24.7433 33.6302C24.7805 33.9036 24.8202 34.1768 24.8622 34.4497C24.8817 34.5771 24.9017 34.7042 24.9222 34.8315C24.9467 34.9816 24.9546 35.1238 25.0676 35.2365C25.1535 35.3221 25.329 35.3148 25.3859 35.1956C25.458 35.0449 25.4253 34.9159 25.3986 34.7577C25.3769 34.6307 25.356 34.5036 25.3355 34.3766C25.2915 34.1042 25.2498 33.8315 25.2107 33.5586C25.1352 33.0327 25.0639 32.5059 25.0002 31.9786C24.936 31.447 24.8695 31.7575 24.8064 31.226C24.7746 30.9578 24.7428 30.6903 24.7056 30.423C24.6867 30.2855 24.6749 30.1391 24.6501 29.9974C24.658 29.9963 24.6659 29.9949 24.6738 29.9935C24.845 29.9624 24.9912 29.8662 25.0343 29.6906C25.0755 29.5225 25.0264 29.3293 24.9918 29.1644C24.9622 29.0239 24.9355 28.8446 24.8447 28.7242C25.1647 28.3184 25.3728 27.8076 25.5056 27.3166C25.6502 26.7817 25.7107 26.2233 25.7235 25.6705C25.7384 25.0301 25.6899 24.3933 25.5797 23.7672C25.5771 23.6345 25.571 23.5018 25.5611 23.3693C25.4642 22.069 25.0574 20.5299 23.7679 19.9223C23.7628 19.9198 23.7574 19.9175 23.7521 19.9153C23.651 19.795 23.5248 19.6867 23.4228 19.5855C23.2422 19.4059 23.0535 19.2342 22.8535 19.076C22.4574 18.7628 22.0231 18.5126 21.5715 18.2873C21.1149 18.0592 20.6515 17.8453 20.2053 17.5964C19.8166 17.3793 19.4667 17.1179 19.1346 16.8228C18.7614 16.491 18.4957 16.0436 18.3915 15.5553C18.3862 15.5298 18.3481 15.5368 18.3476 15.5612C18.3202 16.4562 18.927 17.2472 19.6253 17.7476C20.4602 18.3454 21.4684 18.6284 22.3152 19.2079C22.5256 19.3518 22.7225 19.5142 22.9098 19.6867C22.6228 19.6575 22.3307 19.676 22.0617 19.7551C21.9557 19.7487 21.8493 19.7467 21.7431 19.7417C21.5002 19.7296 21.2572 19.7184 21.0141 19.7077C20.5186 19.6859 20.0228 19.666 19.527 19.6486C18.5543 19.6143 17.5814 19.5885 16.6084 19.5714C14.6532 19.5369 12.6955 19.5302 10.7405 19.5866C10.2104 19.6017 7.42279 19.4965 7.16476 19.5262C7.54419 19.1992 7.96053 18.9322 8.41828 18.7125C8.99095 18.4385 9.58278 18.2556 10.1943 18.0884C11.4538 17.7443 12.7617 17.4124 13.7695 16.5381C14.02 16.3207 14.2425 16.0708 14.4248 15.794C14.5988 15.5298 14.7924 15.1915 14.7972 14.8692C14.8005 14.6403 14.4805 14.557 14.3667 14.753C14.296 14.8745 14.2611 15.0077 14.2033 15.1351C14.1459 15.2613 14.0777 15.383 14.0019 15.4995C13.8529 15.7284 13.6681 15.9325 13.467 16.1168C13.0383 16.5101 12.5188 16.7981 11.9814 17.0161C10.7611 17.5106 9.42645 17.7193 8.27011 18.3712C7.76419 18.6564 7.27997 19.05 6.97602 19.552C6.92701 19.5596 6.87828 19.5686 6.82955 19.5787C6.86588 19.533 6.9025 19.4873 6.9394 19.4418C6.96363 19.4121 6.92617 19.3728 6.89659 19.3992C6.32166 19.9086 5.79208 20.4586 5.31208 21.0583C4.85293 21.6322 4.42476 22.2336 4.12166 22.9057C3.57687 24.1129 3.45687 25.4938 3.73828 26.7847C3.8149 27.1364 3.92307 27.4808 4.06081 27.8138C4.1318 27.9857 4.2087 28.1551 4.29433 28.3204Z" fill="black"/>
<path fill-rule="evenodd" clip-rule="evenodd" d="M16.7064 3.14226C18.3059 3.14226 20.3091 4.95905 20.8954 5.73217C21.3883 6.38217 21.3186 9.73076 21.3186 11.7171C21.3186 12.1326 21.13 12.9189 21.0616 13.3162C20.8107 14.7724 19.7176 15.9937 17.5543 15.9937C15.7928 15.9937 14.4373 15.4381 13.1264 14.0172C12.8274 13.693 11.3668 14.8535 11.0681 14.4356C10.288 14.4356 9.63559 7.17697 11.1674 4.99981C12.6992 2.82265 15.1069 3.14226 16.7064 3.14226Z" fill="white"/>
<path fill-rule="evenodd" clip-rule="evenodd" d="M11.8994 3.65352C12.8236 2.81624 14.0549 2.41345 15.2971 2.44318C15.9405 2.45861 16.5816 2.58063 17.1892 2.7896C17.4932 2.8945 17.7875 3.03138 18.0689 3.18622C18.1704 3.24188 18.2638 3.30711 18.3538 3.37638L18.3763 3.39378H18.3766C18.618 3.48018 18.8335 3.63529 19.0289 3.81677C19.4208 3.78564 19.8157 3.8207 20.1946 3.94103C20.7219 4.10877 21.2101 4.41591 21.5529 4.85208C21.9522 5.35987 22.085 5.97581 22.0376 6.61165L22.0289 6.71966C21.982 7.28135 21.8981 8.0038 21.4351 8.37286C21.3999 8.40091 21.3611 8.42223 21.3208 8.43513C21.6191 8.94395 21.8639 9.50887 22.0104 10.0794C22.5695 12.2586 22.1397 14.5311 21.4673 16.6315C21.412 16.8046 21.1492 16.9196 21.0154 16.7504C20.7766 16.4481 20.4295 16.2175 20.0391 16.1743C19.7982 16.1476 19.5585 16.1959 19.3309 16.0871C19.2416 16.0441 19.1554 15.974 19.0935 15.8887C18.7092 16.0338 18.2954 16.1022 17.885 16.0854C17.2115 16.0579 16.4915 15.8256 16.0281 15.3163C15.9537 15.2345 15.9349 15.1427 15.952 15.0599C16.0101 15.0393 16.0698 15.0239 16.1313 15.0143C16.7189 15.3591 17.3666 15.5896 18.0627 15.604C18.4649 15.6124 18.8573 15.5564 19.1834 15.3063C19.254 15.2522 19.3189 15.1922 19.3789 15.1278C20.0608 14.691 20.5415 13.9491 20.7701 13.1545C20.983 12.4134 20.9568 11.6418 20.8836 10.8816L20.845 10.4805C20.7886 9.89176 20.7364 9.30126 20.7217 8.71002L20.7262 8.70979C20.8702 8.70054 20.8712 8.47606 20.7262 8.4854C20.351 8.50958 19.9786 8.44829 19.6046 8.47499C19.6015 8.29892 19.5888 8.12364 19.5368 7.95383C19.5071 7.85681 19.3375 7.83768 19.3195 7.95383C19.2954 8.10923 19.2866 8.26375 19.284 8.41985C18.7243 8.41244 18.1651 8.36554 17.6052 8.38481C17.502 8.27514 17.4691 8.08067 17.4208 7.94539C17.4137 7.92547 17.4067 7.90584 17.3994 7.88592C17.3569 8.07924 17.2968 8.26832 17.2176 8.45342L17.0803 8.45389C16.3013 8.45752 15.5064 8.48071 14.7457 8.6418C14.6929 8.60138 14.6614 8.53087 14.6529 8.46683C14.5977 8.05013 14.519 7.64451 14.3794 7.24741L14.3594 7.19139C14.3578 7.18674 14.3561 7.1818 14.3543 7.1766C14.2514 7.3419 14.1287 7.49598 13.9949 7.63945C13.916 7.72402 13.8333 7.80489 13.7484 7.88345C13.666 7.97462 13.5808 8.0644 13.4982 8.15584C13.5014 8.17248 13.5042 8.18936 13.5065 8.20656C13.5318 8.39631 13.5344 8.58876 13.5159 8.77925C13.4824 9.12361 13.3848 9.45544 13.228 9.76241L13.223 9.79315C13.1992 9.93701 13.1653 10.0857 13.0862 10.194C13.1849 10.3042 13.261 10.4358 13.3051 10.582C13.3444 10.7122 13.1635 10.825 13.0697 10.7185C12.9952 10.6339 12.9124 10.5638 12.8215 10.5079C12.8157 10.5157 12.8054 10.5195 12.7937 10.513C12.5405 10.3731 12.1104 10.4154 11.8574 10.5473C11.5428 10.7111 11.4199 11.0474 11.4549 11.3882C11.4884 11.7138 11.6315 12.0945 11.9089 12.2614C12.0363 12.338 12.1354 12.3444 12.2706 12.3077C12.3139 12.296 12.3675 12.2601 12.3905 12.2423L12.4131 12.2242C12.5018 12.1545 12.5843 12.1067 12.6889 12.1049C12.796 12.0716 12.9035 12.1177 12.9445 12.2295L12.947 12.2367C12.9661 12.2936 13.0011 12.3652 12.9935 12.4521C12.9856 12.5452 12.9428 12.6299 12.8788 12.6981C12.8678 12.7099 12.856 12.7217 12.8439 12.7326C13.9453 13.9199 14.0867 15.7701 13.5219 17.2534C13.4974 17.3184 13.4712 17.3827 13.4439 17.4463C13.3495 17.6646 12.9861 17.597 12.9399 17.3807C12.9261 17.3159 12.9109 17.2514 12.8943 17.1874C12.8638 17.0693 12.8288 16.9522 12.7893 16.8368L12.7743 16.7936C12.7408 16.6983 12.7095 16.602 12.6757 16.5067L12.6723 16.4958C12.6711 16.4915 12.6697 16.4865 12.6681 16.4809L12.6109 16.6051L12.4371 16.9802C12.3558 17.1552 12.0974 17.0601 12.0878 16.8914L12.0875 16.8856C12.0867 16.8545 12.0856 16.8236 12.0836 16.7931C12.0712 16.5639 12.0315 16.3412 11.9684 16.1232L11.9456 16.1514C11.6066 16.5687 11.2088 16.9599 10.663 17.0562C10.5261 17.0803 10.3712 16.9378 10.4653 16.8001C10.5042 16.7431 10.5416 16.6848 10.5771 16.6256C10.5464 16.6113 10.5174 16.5964 10.4906 16.5813C10.2836 16.4654 10.1112 16.3005 9.96867 16.1134C9.66641 15.7168 9.55825 15.2175 9.53177 14.7289C9.5036 14.2125 9.54923 13.6681 9.69092 13.1699C9.75233 12.9545 9.83543 12.7478 9.93148 12.5472C9.92472 12.5293 9.91825 12.5113 9.91177 12.4933C9.8081 12.2056 9.72303 11.9113 9.65233 11.6137C9.50979 11.0129 9.43317 10.393 9.42388 9.77562C9.40698 8.66963 9.59853 7.54596 10.0022 6.51458C10.4191 5.45094 11.0461 4.42629 11.8994 3.65352ZM11.3802 13.3233C11.3037 13.2033 11.1121 13.3115 11.1832 13.4323L11.1859 13.4367C11.3073 13.6271 11.3642 13.8437 11.434 14.056C11.4788 14.1926 11.6966 14.1342 11.6512 13.9962L11.6362 13.9502C11.5667 13.7348 11.5033 13.516 11.3802 13.3233ZM12.047 11.0322L12.0978 11.0077C12.2583 10.9315 12.3988 10.8796 12.5884 10.9461C12.8422 11.035 13.114 11.3181 12.9425 11.5927C12.8794 11.6939 12.7673 11.7343 12.6518 11.7105C12.4571 11.6703 12.4068 11.4957 12.308 11.3524L12.291 11.3281C12.2308 11.2414 12.1546 11.1215 12.0543 11.0875C12.0315 11.0796 12.0219 11.0443 12.047 11.0322ZM12.19 5.20189L12.2064 5.18727C12.3154 5.09134 12.1554 4.93314 12.047 5.02851C11.5506 5.46524 11.3782 6.14881 11.1208 6.7314C11.063 6.86239 11.2571 6.97684 11.3154 6.84472C11.561 6.28879 11.724 5.62378 12.19 5.20189ZM18.1546 5.01084C18.0249 4.95265 17.9114 5.14058 18.0361 5.20246L18.0408 5.20466C18.4791 5.40185 18.6656 5.8484 18.8442 6.26297C18.9011 6.39537 19.0951 6.28121 19.0388 6.14993L19.0066 6.07555C18.8202 5.64831 18.6029 5.21284 18.1546 5.01084ZM18.8416 4.741C18.7042 4.6936 18.6453 4.91014 18.7816 4.95755C19.1532 5.08629 19.4081 5.36399 19.623 5.68151C19.7036 5.80044 19.8988 5.68824 19.8174 5.56819C19.5678 5.19962 19.2715 4.89023 18.8416 4.741Z" fill="black"/>
<path fill-rule="evenodd" clip-rule="evenodd" d="M18.0869 14.024C17.8976 13.9471 17.7286 13.8188 17.6051 13.6549C17.5621 13.5979 17.551 13.5377 17.56 13.4827C17.5701 13.4208 17.6069 13.3647 17.657 13.3271C17.7073 13.2894 17.7703 13.2708 17.8311 13.2803C17.8839 13.2885 17.9366 13.3173 17.9782 13.3771L17.9869 13.389C18.0603 13.488 18.156 13.5691 18.2651 13.6215C18.3702 13.6719 18.4877 13.6954 18.6093 13.6817C18.841 13.6557 19.0007 13.5309 19.1704 13.3615C19.1914 13.3401 19.2125 13.3181 19.2336 13.2956C19.247 13.2753 19.2655 13.2623 19.2861 13.2554C19.3089 13.2478 19.3348 13.2482 19.3585 13.2565C19.3813 13.2644 19.4017 13.2794 19.4154 13.2995C19.4284 13.3185 19.4358 13.342 19.4334 13.369C19.4179 13.5446 19.3257 13.7013 19.1947 13.8243C19.0493 13.9609 18.8566 14.0555 18.6751 14.0886C18.4751 14.1251 18.2714 14.099 18.0869 14.024ZM18.7694 11.3156C18.9821 11.4443 19.3062 11.7445 19.0774 12.0637C18.808 12.3452 18.4202 12.0225 18.2291 11.8765C18.0519 11.7634 17.8528 12.0543 18.0172 12.1864C19.3982 13.2045 19.9586 11.3492 18.877 11.1642C18.7579 11.1438 18.7137 11.2758 18.7694 11.3156ZM16.2947 10.1313C16.3182 9.84082 16.7625 9.77486 16.8067 10.0623C16.8463 10.3198 16.7997 10.5563 16.6832 10.7882C16.5719 11.0097 16.2922 10.9063 16.271 10.7046C16.2427 10.4343 16.2801 10.312 16.2947 10.1313ZM19.6768 10.0027C19.7387 9.92192 19.8282 9.86678 19.9353 9.89794C20.2701 9.99536 20.1714 10.4686 20.0539 10.699C19.99 10.8241 19.7835 10.8558 19.6901 10.7457C19.538 10.5661 19.4652 10.2073 19.6586 10.0304C19.6638 10.0212 19.6696 10.012 19.6768 10.0027ZM16.6785 8.86022L16.7314 8.851C16.895 8.82283 17.0984 8.79575 17.2141 8.92672C17.2755 8.99617 17.2967 9.12526 17.2141 9.19174C17.069 9.3087 16.9086 9.26337 16.7347 9.27328C16.5913 9.28147 16.4536 9.30508 16.3155 9.34438C16.0127 9.43058 15.7659 9.58794 15.5072 9.76072C15.4732 9.78338 15.4386 9.74016 15.4548 9.70855C15.6041 9.41731 15.8935 9.17808 16.1834 9.03225C16.3381 8.95441 16.5074 8.88984 16.6785 8.86022ZM19.3716 8.72976L19.4121 8.738C19.8526 8.82969 20.4249 9.01283 20.6335 9.44366C20.6414 9.50458 20.633 9.51763 20.6262 9.52617L20.6239 9.529C20.6183 9.53629 20.6138 9.54633 20.5873 9.55462C20.5799 9.55288 20.5725 9.55103 20.565 9.54907C20.4694 9.52412 20.3937 9.48974 20.3205 9.45408L20.2411 9.41512C20.1489 9.37014 20.056 9.3268 19.9575 9.2948C19.7473 9.22653 19.5311 9.17843 19.3115 9.15275C19.2639 9.14719 19.2181 9.1312 19.182 9.10379C19.1476 9.07777 19.1214 9.04175 19.1095 8.99387C19.094 8.93191 19.0984 8.885 19.1318 8.8291C19.1569 8.78712 19.1929 8.75802 19.2341 8.74131C19.2761 8.72428 19.324 8.72026 19.3716 8.72976Z" fill="black"/>
<path fill-rule="evenodd" clip-rule="evenodd" d="M21.1445 11.5667C20.9548 11.8204 20.6032 11.9012 20.2789 11.8733C19.5795 11.8063 19.3593 11.0152 19.3364 10.4004C19.8054 10.5318 19.2967 9.60129 20.9001 9.49896C21.4653 9.45207 21.3095 9.79197 21.5592 10.0403C21.5541 10.5615 21.4669 11.1279 21.1445 11.5667ZM17.8129 10.9678C17.4 12.8935 15.1386 12.4354 14.9011 10.6995C15.1204 10.5454 15.0626 10.1647 15.3352 10.0268C15.767 9.75203 16.3069 9.76378 16.7974 9.77023C17.4243 9.81312 17.6029 10.0717 17.925 10.3538C17.9095 10.5423 17.8648 10.7656 17.8129 10.9678ZM22.0403 9.18004C22.0171 9.1762 21.9939 9.17258 21.9707 9.16919C21.9526 9.15895 21.9313 9.15107 21.9066 9.14632C21.8501 9.13205 21.794 9.12243 21.738 9.11724C20.9343 8.93713 19.075 9.19286 18.9982 9.87581C18.7423 9.96088 18.5208 9.8847 18.2242 9.89228C17.9984 8.95247 14.0946 9.08512 13.9069 9.65172C13.9062 9.65153 13.9055 9.65136 13.9047 9.65113C13.7243 9.59554 13.4584 9.60895 13.2519 9.60014C12.811 9.59094 12.3697 9.63007 11.9383 9.72266C11.1306 9.85048 10.0282 10.0001 10.5899 11.0045C10.5901 11.0047 10.5901 11.0049 10.5903 11.0051L10.5904 11.005C10.6872 11.1038 10.8515 11.0242 10.8576 10.8904C10.6687 10.4146 11.0953 10.3575 11.4235 10.2207C12.2403 9.92857 13.0717 9.88807 13.9164 9.97844C13.98 10.0529 14.0764 10.1179 14.1783 10.1519C14.7431 10.2453 14.4454 10.6624 14.8024 10.7231C14.7368 12.1772 16.5098 12.971 17.5371 12.0151C17.9473 11.6158 18.0451 11.0242 18.1402 10.491C18.1904 10.4798 18.2224 10.4524 18.2411 10.4162C18.362 10.2959 18.438 10.1849 18.6771 10.1519C18.9163 10.1189 19.1003 10.1851 19.1252 10.2054C19.1315 10.218 19.1383 10.2306 19.1461 10.2433C19.157 10.2621 19.1719 10.2771 19.1888 10.2889C18.9526 11.7369 20.0816 12.6527 21.2213 11.9017C21.7165 11.4378 21.8211 10.7276 21.8418 10.0938C21.9089 10.0534 21.9514 9.97527 21.9282 9.87699C21.8962 9.74151 21.9713 9.62421 22.0909 9.5653C22.2463 9.48881 22.2188 9.20946 22.0403 9.18004Z" fill="black"/>
</g>
</svg>
