
    <svg width="25" height="26" viewBox="0 0 25 26" fill="none" xmlns="http://www.w3.org/2000/svg">
<g id="Location pin" clip-path="url(#clip0_7_10)">
<path id="Vector" d="M12.5 2.58334C8.46873 2.58334 5.20831 5.84376 5.20831 9.87501C5.20831 11.6875 5.72915 13.3854 6.67706 14.9167C7.66665 16.5208 8.96873 17.8958 9.96873 19.5C10.4583 20.2813 10.8125 21.0104 11.1875 21.8542C11.4583 22.4271 11.6771 23.4167 12.5 23.4167C13.3229 23.4167 13.5416 22.4271 13.8021 21.8542C14.1875 21.0104 14.5312 20.2813 15.0208 19.5C16.0208 17.9063 17.3229 16.5313 18.3125 14.9167C19.2708 13.3854 19.7916 11.6875 19.7916 9.87501C19.7916 5.84376 16.5312 2.58334 12.5 2.58334ZM12.5 12.7396C11.0625 12.7396 9.89581 11.5729 9.89581 10.1354C9.89581 8.69793 11.0625 7.53126 12.5 7.53126C13.9375 7.53126 15.1041 8.69793 15.1041 10.1354C15.1041 11.5729 13.9375 12.7396 12.5 12.7396Z" fill="white"/>
</g>
<defs>
<clipPath id="clip0_7_10">
<rect width="25" height="25" fill="white" transform="translate(0 0.5)"/>
</clipPath>
</defs>
</svg>
