<svg width="60" height="60" viewBox="0 0 60 60" fill="none" xmlns="http://www.w3.org/2000/svg">
<g clip-path="url(#clip0_813_1774)">
<circle cx="14.6738" cy="13.9824" r="15.5566" fill="#F05EAC"/>
<circle cx="35.1855" cy="14.4434" r="15.5566" fill="#FF9563"/>
<circle cx="57.0801" cy="13.9824" r="15.5566" fill="#FEE75C"/>
<circle cx="14.6738" cy="34.2637" r="15.5566" fill="#AA53F0"/>
<circle cx="45.7871" cy="35.5312" r="15.5566" fill="#57F287"/>
<circle cx="18.2461" cy="49.8203" r="15.5566" fill="#5865F2"/>
<circle cx="45.5566" cy="49.8203" r="15.5566" fill="#1DDDC7"/>
<g filter="url(#filter0_b_813_1774)">
<rect x="0.5" y="0.5" width="59" height="59" fill="white" fill-opacity="0.01"/>
</g>
<g filter="url(#filter1_d_813_1774)">
<path fill-rule="evenodd" clip-rule="evenodd" d="M30.0041 12.2454C39.8121 12.2454 47.7631 20.1964 47.7631 30.0044C47.7631 31.1566 47.6532 32.2846 47.4427 33.3784C46.7814 36.8148 43.429 38.3354 40.5052 37.9873L40.1937 37.9428L37.1038 37.4278C36.3743 37.3062 35.6309 37.5445 35.1081 38.0673C34.4511 38.7242 34.1372 39.6273 34.5792 40.5112C35.3299 42.0125 35.3403 43.7291 34.6769 45.134C33.788 47.0164 31.9747 47.7634 30.0041 47.7634C20.1961 47.7634 12.2451 39.8123 12.2451 30.0044C12.2451 20.1964 20.1961 12.2454 30.0041 12.2454ZM22.0126 28.2285C20.5414 28.2285 19.3487 29.4212 19.3487 30.8923C19.3487 32.3635 20.5414 33.5562 22.0126 33.5562C23.4838 33.5562 24.6764 32.3635 24.6764 30.8923C24.6764 29.4212 23.4838 28.2285 22.0126 28.2285ZM34.4439 21.1249C32.9727 21.1249 31.78 22.3175 31.78 23.7887C31.78 25.26 32.9727 26.4526 34.4439 26.4526C35.915 26.4526 37.1077 25.26 37.1077 23.7887C37.1077 22.3175 35.915 21.1249 34.4439 21.1249ZM25.5644 21.1249C24.0932 21.1249 22.9005 22.3175 22.9005 23.7887C22.9005 25.26 24.0932 26.4526 25.5644 26.4526C27.0355 26.4526 28.2282 25.26 28.2282 23.7887C28.2282 22.3175 27.0355 21.1249 25.5644 21.1249Z" fill="white"/>
<path d="M40.4401 38.4436L40.4401 38.4437L40.4507 38.445C43.5325 38.8119 47.1742 37.2127 47.8954 33.4655C48.1113 32.3432 48.2241 31.186 48.2241 30.0044C48.2241 19.9418 40.0666 11.7845 30.0041 11.7845C19.9415 11.7845 11.7842 19.9418 11.7842 30.0044C11.7842 40.0669 19.9415 48.2243 30.0041 48.2243C32.0872 48.2243 34.1041 47.4266 35.0937 45.3308C35.8192 43.7944 35.8036 41.9293 34.9915 40.305L34.9914 40.305C34.6655 39.6532 34.8687 38.9586 35.434 38.3933C35.8516 37.9757 36.4453 37.7853 37.028 37.8825L37.028 37.8825L40.1179 38.3975L40.1179 38.3976L40.1286 38.3992L40.4401 38.4436ZM19.8097 30.8923C19.8097 29.6758 20.7959 28.6894 22.0126 28.6894C23.2292 28.6894 24.2155 29.6758 24.2155 30.8923C24.2155 32.1089 23.2292 33.0953 22.0126 33.0953C20.7959 33.0953 19.8097 32.1089 19.8097 30.8923ZM32.241 23.7887C32.241 22.5721 33.2273 21.5858 34.4439 21.5858C35.6605 21.5858 36.6468 22.5721 36.6468 23.7887C36.6468 25.0054 35.6605 25.9917 34.4439 25.9917C33.2273 25.9917 32.241 25.0054 32.241 23.7887ZM23.3615 23.7887C23.3615 22.5721 24.3477 21.5858 25.5644 21.5858C26.781 21.5858 27.7673 22.5721 27.7673 23.7887C27.7673 25.0054 26.781 25.9917 25.5644 25.9917C24.3477 25.9917 23.3615 25.0054 23.3615 23.7887Z" stroke="black" stroke-width="0.921875"/>
</g>
<circle cx="25.6074" cy="23.7885" r="2.3623" fill="black"/>
<circle cx="34.4668" cy="23.8445" r="2.3623" fill="black"/>
<circle cx="21.9912" cy="30.9795" r="2.3623" fill="black"/>
</g>
<defs>
<filter id="filter0_b_813_1774" x="-22.5469" y="-22.5469" width="105.094" height="105.094" filterUnits="userSpaceOnUse" color-interpolation-filters="sRGB">
<feFlood flood-opacity="0" result="BackgroundImageFix"/>
<feGaussianBlur in="BackgroundImageFix" stdDeviation="11.5234"/>
<feComposite in2="SourceAlpha" operator="in" result="effect1_backgroundBlur_813_1774"/>
<feBlend mode="normal" in="SourceGraphic" in2="effect1_backgroundBlur_813_1774" result="shape"/>
</filter>
<filter id="filter1_d_813_1774" x="11.3232" y="11.3235" width="38.2837" height="38.2836" filterUnits="userSpaceOnUse" color-interpolation-filters="sRGB">
<feFlood flood-opacity="0" result="BackgroundImageFix"/>
<feColorMatrix in="SourceAlpha" type="matrix" values="0 0 0 0 0 0 0 0 0 0 0 0 0 0 0 0 0 0 127 0" result="hardAlpha"/>
<feOffset dx="0.921875" dy="0.921875"/>
<feComposite in2="hardAlpha" operator="out"/>
<feColorMatrix type="matrix" values="0 0 0 0 0 0 0 0 0 0 0 0 0 0 0 0 0 0 1 0"/>
<feBlend mode="normal" in2="BackgroundImageFix" result="effect1_dropShadow_813_1774"/>
<feBlend mode="normal" in="SourceGraphic" in2="effect1_dropShadow_813_1774" result="shape"/>
</filter>
<clipPath id="clip0_813_1774">
<rect x="0.5" y="0.5" width="59" height="59" rx="20" fill="white"/>
</clipPath>
</defs>
</svg>
