<svg width="28" height="27" viewBox="0 0 28 27" fill="none" xmlns="http://www.w3.org/2000/svg">
<g clip-path="url(#clip0_34_62)">
<path d="M20.75 6.75H18.5C18.5 4.26375 16.4862 2.25 14 2.25C11.5138 2.25 9.5 4.26375 9.5 6.75H7.25C6.0125 6.75 5 7.7625 5 9V22.5C5 23.7375 6.0125 24.75 7.25 24.75H20.75C21.9875 24.75 23 23.7375 23 22.5V9C23 7.7625 21.9875 6.75 20.75 6.75ZM11.75 11.25C11.75 11.8687 11.2438 12.375 10.625 12.375C10.0062 12.375 9.5 11.8687 9.5 11.25V9H11.75V11.25ZM14 4.5C15.2375 4.5 16.25 5.5125 16.25 6.75H11.75C11.75 5.5125 12.7625 4.5 14 4.5ZM18.5 11.25C18.5 11.8687 17.9937 12.375 17.375 12.375C16.7563 12.375 16.25 11.8687 16.25 11.25V9H18.5V11.25Z" fill="white"/>
</g>
<defs>
<clipPath id="clip0_34_62">
<rect width="27" height="27" fill="white" transform="translate(0.5)"/>
</clipPath>
</defs>
</svg>
