<svg width="28" height="28" viewBox="0 0 28 28" fill="none" xmlns="http://www.w3.org/2000/svg">
<g clip-path="url(#clip0_191_868)">
<path d="M20.75 7.25H18.5C18.5 4.76375 16.4862 2.75 14 2.75C11.5138 2.75 9.5 4.76375 9.5 7.25H7.25C6.0125 7.25 5 8.2625 5 9.5V23C5 24.2375 6.0125 25.25 7.25 25.25H20.75C21.9875 25.25 23 24.2375 23 23V9.5C23 8.2625 21.9875 7.25 20.75 7.25ZM11.75 11.75C11.75 12.3687 11.2438 12.875 10.625 12.875C10.0062 12.875 9.5 12.3687 9.5 11.75V9.5H11.75V11.75ZM14 5C15.2375 5 16.25 6.0125 16.25 7.25H11.75C11.75 6.0125 12.7625 5 14 5ZM18.5 11.75C18.5 12.3687 17.9937 12.875 17.375 12.875C16.7563 12.875 16.25 12.3687 16.25 11.75V9.5H18.5V11.75Z" fill="white"/>
</g>
<defs>
<clipPath id="clip0_191_868">
<rect width="27" height="27" fill="white" transform="translate(0.5 0.5)"/>
</clipPath>
</defs>
</svg>
