<svg width="16" height="17" viewBox="0 0 16 17" fill="none" xmlns="http://www.w3.org/2000/svg">
<path d="M13.3333 12.0161C12.6578 12.0161 12.0533 12.2721 11.5911 12.6732L5.25333 9.13153C5.29778 8.93524 5.33333 8.73896 5.33333 8.53414C5.33333 8.32932 5.29778 8.13303 5.25333 7.93675L11.52 4.42922C12 4.85592 12.6311 5.12048 13.3333 5.12048C14.8089 5.12048 16 3.97691 16 2.56024C16 1.14357 14.8089 0 13.3333 0C11.8578 0 10.6667 1.14357 10.6667 2.56024C10.6667 2.76506 10.7022 2.96135 10.7467 3.15763L4.48 6.66516C4 6.23845 3.36889 5.9739 2.66667 5.9739C1.19111 5.9739 0 7.11747 0 8.53414C0 9.9508 1.19111 11.0944 2.66667 11.0944C3.36889 11.0944 4 10.8298 4.48 10.4031L10.8089 13.9533C10.7644 14.1325 10.7378 14.3203 10.7378 14.508C10.7378 15.882 11.9022 17 13.3333 17C14.7644 17 15.9289 15.882 15.9289 14.508C15.9289 13.134 14.7644 12.0161 13.3333 12.0161Z" fill="#BBBBBB"/>
</svg>
